  0
SECTION
  2
HEADER
  9
$ACADVER
  1
AC1009
  9
$FILLMODE
 70
 0
  9
$SPLFRAME
 70
 1
  9
$EXTMIN
 10
0
 20
0
 30
0.0
  9
$EXTMAX
 10
1058.33
 20
1058.33
 30
0.0
  0
ENDSEC
  0
SECTION
  2
TABLES
  0
TABLE
  2
LAYER
 70
1
  0
LAYER
  2
0
 70
     0
 62
     7
  6
CONTINUOUS
  0
ENDTAB
  0
ENDSEC
  0
SECTION
  2
ENTITIES
  0
LINE
  8
0
 62
     0
 10
308.372
 20
113.146
 30
0.0
 11
308.449
 21
113.144
 31
0.0
  0
LINE
  8
0
 62
     0
 10
308.449
 20
113.144
 30
0.0
 11
308.527
 21
113.134
 31
0.0
  0
LINE
  8
0
 62
     0
 10
308.527
 20
113.134
 30
0.0
 11
308.605
 21
113.119
 31
0.0
  0
LINE
  8
0
 62
     0
 10
308.605
 20
113.119
 30
0.0
 11
308.681
 21
113.098
 31
0.0
  0
LINE
  8
0
 62
     0
 10
308.681
 20
113.098
 30
0.0
 11
308.754
 21
113.071
 31
0.0
  0
LINE
  8
0
 62
     0
 10
308.754
 20
113.071
 30
0.0
 11
308.824
 21
113.038
 31
0.0
  0
LINE
  8
0
 62
     0
 10
308.824
 20
113.038
 30
0.0
 11
308.894
 21
112.999
 31
0.0
  0
LINE
  8
0
 62
     0
 10
308.894
 20
112.999
 30
0.0
 11
308.959
 21
112.956
 31
0.0
  0
LINE
  8
0
 62
     0
 10
308.959
 20
112.956
 30
0.0
 11
309.021
 21
112.907
 31
0.0
  0
LINE
  8
0
 62
     0
 10
309.021
 20
112.907
 30
0.0
 11
309.079
 21
112.854
 31
0.0
  0
LINE
  8
0
 62
     0
 10
309.079
 20
112.854
 30
0.0
 11
309.131
 21
112.796
 31
0.0
  0
LINE
  8
0
 62
     0
 10
309.131
 20
112.796
 30
0.0
 11
309.181
 21
112.735
 31
0.0
  0
LINE
  8
0
 62
     0
 10
309.181
 20
112.735
 30
0.0
 11
309.223
 21
112.67
 31
0.0
  0
LINE
  8
0
 62
     0
 10
309.223
 20
112.67
 30
0.0
 11
309.262
 21
112.6
 31
0.0
  0
LINE
  8
0
 62
     0
 10
309.262
 20
112.6
 30
0.0
 11
309.295
 21
112.529
 31
0.0
  0
LINE
  8
0
 62
     0
 10
309.295
 20
112.529
 30
0.0
 11
309.323
 21
112.456
 31
0.0
  0
LINE
  8
0
 62
     0
 10
309.323
 20
112.456
 30
0.0
 11
309.343
 21
112.381
 31
0.0
  0
LINE
  8
0
 62
     0
 10
309.343
 20
112.381
 30
0.0
 11
309.359
 21
112.303
 31
0.0
  0
LINE
  8
0
 62
     0
 10
309.359
 20
112.303
 30
0.0
 11
309.367
 21
112.225
 31
0.0
  0
LINE
  8
0
 62
     0
 10
309.367
 20
112.225
 30
0.0
 11
309.371
 21
112.146
 31
0.0
  0
LINE
  8
0
 62
     0
 10
309.371
 20
112.146
 30
0.0
 11
309.371
 21
1.13275
 31
0.0
  0
LINE
  8
0
 62
     0
 10
309.371
 20
1.13275
 30
0.0
 11
309.367
 21
1.05558
 31
0.0
  0
LINE
  8
0
 62
     0
 10
309.367
 20
1.05558
 30
0.0
 11
309.359
 21
0.977029
 31
0.0
  0
LINE
  8
0
 62
     0
 10
309.359
 20
0.977029
 30
0.0
 11
309.343
 21
0.899859
 31
0.0
  0
LINE
  8
0
 62
     0
 10
309.343
 20
0.899859
 30
0.0
 11
309.323
 21
0.824068
 31
0.0
  0
LINE
  8
0
 62
     0
 10
309.323
 20
0.824068
 30
0.0
 11
309.295
 21
0.749653
 31
0.0
  0
LINE
  8
0
 62
     0
 10
309.295
 20
0.749653
 30
0.0
 11
309.262
 21
0.679372
 31
0.0
  0
LINE
  8
0
 62
     0
 10
309.262
 20
0.679372
 30
0.0
 11
309.223
 21
0.611851
 31
0.0
  0
LINE
  8
0
 62
     0
 10
309.223
 20
0.611851
 30
0.0
 11
309.181
 21
0.545705
 31
0.0
  0
LINE
  8
0
 62
     0
 10
309.181
 20
0.545705
 30
0.0
 11
309.131
 21
0.48369
 31
0.0
  0
LINE
  8
0
 62
     0
 10
309.131
 20
0.48369
 30
0.0
 11
309.079
 21
0.425813
 31
0.0
  0
LINE
  8
0
 62
     0
 10
309.079
 20
0.425813
 30
0.0
 11
309.021
 21
0.373447
 31
0.0
  0
LINE
  8
0
 62
     0
 10
309.021
 20
0.373447
 30
0.0
 11
308.959
 21
0.323839
 31
0.0
  0
LINE
  8
0
 62
     0
 10
308.959
 20
0.323839
 30
0.0
 11
308.894
 21
0.279742
 31
0.0
  0
LINE
  8
0
 62
     0
 10
308.894
 20
0.279742
 30
0.0
 11
308.824
 21
0.242535
 31
0.0
  0
LINE
  8
0
 62
     0
 10
308.824
 20
0.242535
 30
0.0
 11
308.754
 21
0.209462
 31
0.0
  0
LINE
  8
0
 62
     0
 10
308.754
 20
0.209462
 30
0.0
 11
308.681
 21
0.181901
 31
0.0
  0
LINE
  8
0
 62
     0
 10
308.681
 20
0.181901
 30
0.0
 11
308.605
 21
0.16123
 31
0.0
  0
LINE
  8
0
 62
     0
 10
308.605
 20
0.16123
 30
0.0
 11
308.527
 21
0.144694
 31
0.0
  0
LINE
  8
0
 62
     0
 10
308.527
 20
0.144694
 30
0.0
 11
308.449
 21
0.136426
 31
0.0
  0
LINE
  8
0
 62
     0
 10
308.449
 20
0.136426
 30
0.0
 11
308.372
 21
0.13367
 31
0.0
  0
LINE
  8
0
 62
     0
 10
308.372
 20
0.13367
 30
0.0
 11
1.09554
 21
0.13367
 31
0.0
  0
LINE
  8
0
 62
     0
 10
1.09554
 20
0.13367
 30
0.0
 11
1.01699
 21
0.136426
 31
0.0
  0
LINE
  8
0
 62
     0
 10
1.01699
 20
0.136426
 30
0.0
 11
0.938445
 21
0.144694
 31
0.0
  0
LINE
  8
0
 62
     0
 10
0.938445
 20
0.144694
 30
0.0
 11
0.861275
 21
0.16123
 31
0.0
  0
LINE
  8
0
 62
     0
 10
0.861275
 20
0.16123
 30
0.0
 11
0.785481
 21
0.181901
 31
0.0
  0
LINE
  8
0
 62
     0
 10
0.785481
 20
0.181901
 30
0.0
 11
0.712445
 21
0.209462
 31
0.0
  0
LINE
  8
0
 62
     0
 10
0.712445
 20
0.209462
 30
0.0
 11
0.642165
 21
0.242535
 31
0.0
  0
LINE
  8
0
 62
     0
 10
0.642165
 20
0.242535
 30
0.0
 11
0.571885
 21
0.279742
 31
0.0
  0
LINE
  8
0
 62
     0
 10
0.571885
 20
0.279742
 30
0.0
 11
0.507118
 21
0.323839
 31
0.0
  0
LINE
  8
0
 62
     0
 10
0.507118
 20
0.323839
 30
0.0
 11
0.445107
 21
0.373447
 31
0.0
  0
LINE
  8
0
 62
     0
 10
0.445107
 20
0.373447
 30
0.0
 11
0.38723
 21
0.425813
 31
0.0
  0
LINE
  8
0
 62
     0
 10
0.38723
 20
0.425813
 30
0.0
 11
0.334863
 21
0.48369
 31
0.0
  0
LINE
  8
0
 62
     0
 10
0.334863
 20
0.48369
 30
0.0
 11
0.285254
 21
0.545705
 31
0.0
  0
LINE
  8
0
 62
     0
 10
0.285254
 20
0.545705
 30
0.0
 11
0.242535
 21
0.611851
 31
0.0
  0
LINE
  8
0
 62
     0
 10
0.242535
 20
0.611851
 30
0.0
 11
0.20395
 21
0.679372
 31
0.0
  0
LINE
  8
0
 62
     0
 10
0.20395
 20
0.679372
 30
0.0
 11
0.170877
 21
0.749653
 31
0.0
  0
LINE
  8
0
 62
     0
 10
0.170877
 20
0.749653
 30
0.0
 11
0.143316
 21
0.824068
 31
0.0
  0
LINE
  8
0
 62
     0
 10
0.143316
 20
0.824068
 30
0.0
 11
0.122645
 21
0.899859
 31
0.0
  0
LINE
  8
0
 62
     0
 10
0.122645
 20
0.899859
 30
0.0
 11
0.107487
 21
0.977029
 31
0.0
  0
LINE
  8
0
 62
     0
 10
0.107487
 20
0.977029
 30
0.0
 11
0.0978408
 21
1.05558
 31
0.0
  0
LINE
  8
0
 62
     0
 10
0.0978408
 20
1.05558
 30
0.0
 11
0.0950846
 21
1.13275
 31
0.0
  0
LINE
  8
0
 62
     0
 10
0.0950846
 20
1.13275
 30
0.0
 11
0.0950846
 21
112.146
 31
0.0
  0
LINE
  8
0
 62
     0
 10
0.0950846
 20
112.146
 30
0.0
 11
0.0978408
 21
112.225
 31
0.0
  0
LINE
  8
0
 62
     0
 10
0.0978408
 20
112.225
 30
0.0
 11
0.107487
 21
112.303
 31
0.0
  0
LINE
  8
0
 62
     0
 10
0.107487
 20
112.303
 30
0.0
 11
0.122645
 21
112.381
 31
0.0
  0
LINE
  8
0
 62
     0
 10
0.122645
 20
112.381
 30
0.0
 11
0.143316
 21
112.456
 31
0.0
  0
LINE
  8
0
 62
     0
 10
0.143316
 20
112.456
 30
0.0
 11
0.170877
 21
112.529
 31
0.0
  0
LINE
  8
0
 62
     0
 10
0.170877
 20
112.529
 30
0.0
 11
0.20395
 21
112.6
 31
0.0
  0
LINE
  8
0
 62
     0
 10
0.20395
 20
112.6
 30
0.0
 11
0.242535
 21
112.67
 31
0.0
  0
LINE
  8
0
 62
     0
 10
0.242535
 20
112.67
 30
0.0
 11
0.285254
 21
112.735
 31
0.0
  0
LINE
  8
0
 62
     0
 10
0.285254
 20
112.735
 30
0.0
 11
0.334863
 21
112.796
 31
0.0
  0
LINE
  8
0
 62
     0
 10
0.334863
 20
112.796
 30
0.0
 11
0.38723
 21
112.854
 31
0.0
  0
LINE
  8
0
 62
     0
 10
0.38723
 20
112.854
 30
0.0
 11
0.445107
 21
112.907
 31
0.0
  0
LINE
  8
0
 62
     0
 10
0.445107
 20
112.907
 30
0.0
 11
0.507118
 21
112.956
 31
0.0
  0
LINE
  8
0
 62
     0
 10
0.507118
 20
112.956
 30
0.0
 11
0.571885
 21
112.999
 31
0.0
  0
LINE
  8
0
 62
     0
 10
0.571885
 20
112.999
 30
0.0
 11
0.642165
 21
113.038
 31
0.0
  0
LINE
  8
0
 62
     0
 10
0.642165
 20
113.038
 30
0.0
 11
0.712445
 21
113.071
 31
0.0
  0
LINE
  8
0
 62
     0
 10
0.712445
 20
113.071
 30
0.0
 11
0.785481
 21
113.098
 31
0.0
  0
LINE
  8
0
 62
     0
 10
0.785481
 20
113.098
 30
0.0
 11
0.861275
 21
113.119
 31
0.0
  0
LINE
  8
0
 62
     0
 10
0.861275
 20
113.119
 30
0.0
 11
0.938445
 21
113.134
 31
0.0
  0
LINE
  8
0
 62
     0
 10
0.938445
 20
113.134
 30
0.0
 11
1.01699
 21
113.144
 31
0.0
  0
LINE
  8
0
 62
     0
 10
1.01699
 20
113.144
 30
0.0
 11
1.09554
 21
113.146
 31
0.0
  0
LINE
  8
0
 62
     0
 10
1.09554
 20
113.146
 30
0.0
 11
308.372
 21
113.146
 31
0.0
  0
LINE
  8
0
 62
     0
 10
306.561
 20
3.58429
 30
0.0
 11
306.284
 21
3.44234
 31
0.0
  0
LINE
  8
0
 62
     0
 10
306.284
 20
3.44234
 30
0.0
 11
306.061
 21
3.22185
 31
0.0
  0
LINE
  8
0
 62
     0
 10
306.061
 20
3.22185
 30
0.0
 11
305.919
 21
2.94211
 31
0.0
  0
LINE
  8
0
 62
     0
 10
305.919
 20
2.94211
 30
0.0
 11
305.872
 21
2.63343
 31
0.0
  0
LINE
  8
0
 62
     0
 10
305.872
 20
2.63343
 30
0.0
 11
305.919
 21
2.32475
 31
0.0
  0
LINE
  8
0
 62
     0
 10
305.919
 20
2.32475
 30
0.0
 11
306.061
 21
2.04501
 31
0.0
  0
LINE
  8
0
 62
     0
 10
306.061
 20
2.04501
 30
0.0
 11
306.284
 21
1.82452
 31
0.0
  0
LINE
  8
0
 62
     0
 10
306.284
 20
1.82452
 30
0.0
 11
306.561
 21
1.68258
 31
0.0
  0
LINE
  8
0
 62
     0
 10
306.561
 20
1.68258
 30
0.0
 11
306.871
 21
1.63298
 31
0.0
  0
LINE
  8
0
 62
     0
 10
306.871
 20
1.63298
 30
0.0
 11
307.18
 21
1.68258
 31
0.0
  0
LINE
  8
0
 62
     0
 10
307.18
 20
1.68258
 30
0.0
 11
307.458
 21
1.82452
 31
0.0
  0
LINE
  8
0
 62
     0
 10
307.458
 20
1.82452
 30
0.0
 11
307.68
 21
2.04501
 31
0.0
  0
LINE
  8
0
 62
     0
 10
307.68
 20
2.04501
 30
0.0
 11
307.822
 21
2.32475
 31
0.0
  0
LINE
  8
0
 62
     0
 10
307.822
 20
2.32475
 30
0.0
 11
307.872
 21
2.63343
 31
0.0
  0
LINE
  8
0
 62
     0
 10
307.872
 20
2.63343
 30
0.0
 11
307.822
 21
2.94211
 31
0.0
  0
LINE
  8
0
 62
     0
 10
307.822
 20
2.94211
 30
0.0
 11
307.68
 21
3.22185
 31
0.0
  0
LINE
  8
0
 62
     0
 10
307.68
 20
3.22185
 30
0.0
 11
307.458
 21
3.44234
 31
0.0
  0
LINE
  8
0
 62
     0
 10
307.458
 20
3.44234
 30
0.0
 11
307.18
 21
3.58429
 31
0.0
  0
LINE
  8
0
 62
     0
 10
307.18
 20
3.58429
 30
0.0
 11
306.871
 21
3.63252
 31
0.0
  0
LINE
  8
0
 62
     0
 10
306.871
 20
3.63252
 30
0.0
 11
306.561
 21
3.58429
 31
0.0
  0
LINE
  8
0
 62
     0
 10
154.423
 20
3.58429
 30
0.0
 11
154.146
 21
3.44234
 31
0.0
  0
LINE
  8
0
 62
     0
 10
154.146
 20
3.44234
 30
0.0
 11
153.924
 21
3.22185
 31
0.0
  0
LINE
  8
0
 62
     0
 10
153.924
 20
3.22185
 30
0.0
 11
153.782
 21
2.94211
 31
0.0
  0
LINE
  8
0
 62
     0
 10
153.782
 20
2.94211
 30
0.0
 11
153.734
 21
2.63343
 31
0.0
  0
LINE
  8
0
 62
     0
 10
153.734
 20
2.63343
 30
0.0
 11
153.782
 21
2.32475
 31
0.0
  0
LINE
  8
0
 62
     0
 10
153.782
 20
2.32475
 30
0.0
 11
153.924
 21
2.04501
 31
0.0
  0
LINE
  8
0
 62
     0
 10
153.924
 20
2.04501
 30
0.0
 11
154.146
 21
1.82452
 31
0.0
  0
LINE
  8
0
 62
     0
 10
154.146
 20
1.82452
 30
0.0
 11
154.423
 21
1.68258
 31
0.0
  0
LINE
  8
0
 62
     0
 10
154.423
 20
1.68258
 30
0.0
 11
154.733
 21
1.63298
 31
0.0
  0
LINE
  8
0
 62
     0
 10
154.733
 20
1.63298
 30
0.0
 11
155.043
 21
1.68258
 31
0.0
  0
LINE
  8
0
 62
     0
 10
155.043
 20
1.68258
 30
0.0
 11
155.32
 21
1.82452
 31
0.0
  0
LINE
  8
0
 62
     0
 10
155.32
 20
1.82452
 30
0.0
 11
155.542
 21
2.04501
 31
0.0
  0
LINE
  8
0
 62
     0
 10
155.542
 20
2.04501
 30
0.0
 11
155.684
 21
2.32475
 31
0.0
  0
LINE
  8
0
 62
     0
 10
155.684
 20
2.32475
 30
0.0
 11
155.733
 21
2.63343
 31
0.0
  0
LINE
  8
0
 62
     0
 10
155.733
 20
2.63343
 30
0.0
 11
155.684
 21
2.94211
 31
0.0
  0
LINE
  8
0
 62
     0
 10
155.684
 20
2.94211
 30
0.0
 11
155.542
 21
3.22185
 31
0.0
  0
LINE
  8
0
 62
     0
 10
155.542
 20
3.22185
 30
0.0
 11
155.32
 21
3.44234
 31
0.0
  0
LINE
  8
0
 62
     0
 10
155.32
 20
3.44234
 30
0.0
 11
155.043
 21
3.58429
 31
0.0
  0
LINE
  8
0
 62
     0
 10
155.043
 20
3.58429
 30
0.0
 11
154.733
 21
3.63252
 31
0.0
  0
LINE
  8
0
 62
     0
 10
154.733
 20
3.63252
 30
0.0
 11
154.423
 21
3.58429
 31
0.0
  0
LINE
  8
0
 62
     0
 10
2.28617
 20
3.58429
 30
0.0
 11
2.0078
 21
3.44234
 31
0.0
  0
LINE
  8
0
 62
     0
 10
2.0078
 20
3.44234
 30
0.0
 11
1.78594
 21
3.22185
 31
0.0
  0
LINE
  8
0
 62
     0
 10
1.78594
 20
3.22185
 30
0.0
 11
1.644
 21
2.94211
 31
0.0
  0
LINE
  8
0
 62
     0
 10
1.644
 20
2.94211
 30
0.0
 11
1.59439
 21
2.63343
 31
0.0
  0
LINE
  8
0
 62
     0
 10
1.59439
 20
2.63343
 30
0.0
 11
1.644
 21
2.32475
 31
0.0
  0
LINE
  8
0
 62
     0
 10
1.644
 20
2.32475
 30
0.0
 11
1.78594
 21
2.04501
 31
0.0
  0
LINE
  8
0
 62
     0
 10
1.78594
 20
2.04501
 30
0.0
 11
2.0078
 21
1.82452
 31
0.0
  0
LINE
  8
0
 62
     0
 10
2.0078
 20
1.82452
 30
0.0
 11
2.28617
 21
1.68258
 31
0.0
  0
LINE
  8
0
 62
     0
 10
2.28617
 20
1.68258
 30
0.0
 11
2.59485
 21
1.63298
 31
0.0
  0
LINE
  8
0
 62
     0
 10
2.59485
 20
1.63298
 30
0.0
 11
2.90491
 21
1.68258
 31
0.0
  0
LINE
  8
0
 62
     0
 10
2.90491
 20
1.68258
 30
0.0
 11
3.18189
 21
1.82452
 31
0.0
  0
LINE
  8
0
 62
     0
 10
3.18189
 20
1.82452
 30
0.0
 11
3.40513
 21
2.04501
 31
0.0
  0
LINE
  8
0
 62
     0
 10
3.40513
 20
2.04501
 30
0.0
 11
3.54707
 21
2.32475
 31
0.0
  0
LINE
  8
0
 62
     0
 10
3.54707
 20
2.32475
 30
0.0
 11
3.5953
 21
2.63343
 31
0.0
  0
LINE
  8
0
 62
     0
 10
3.5953
 20
2.63343
 30
0.0
 11
3.54707
 21
2.94211
 31
0.0
  0
LINE
  8
0
 62
     0
 10
3.54707
 20
2.94211
 30
0.0
 11
3.40513
 21
3.22185
 31
0.0
  0
LINE
  8
0
 62
     0
 10
3.40513
 20
3.22185
 30
0.0
 11
3.18189
 21
3.44234
 31
0.0
  0
LINE
  8
0
 62
     0
 10
3.18189
 20
3.44234
 30
0.0
 11
2.90491
 21
3.58429
 31
0.0
  0
LINE
  8
0
 62
     0
 10
2.90491
 20
3.58429
 30
0.0
 11
2.59485
 21
3.63252
 31
0.0
  0
LINE
  8
0
 62
     0
 10
2.59485
 20
3.63252
 30
0.0
 11
2.28617
 21
3.58429
 31
0.0
  0
LINE
  8
0
 62
     0
 10
154.423
 20
111.598
 30
0.0
 11
154.146
 21
111.456
 31
0.0
  0
LINE
  8
0
 62
     0
 10
154.146
 20
111.456
 30
0.0
 11
153.924
 21
111.234
 31
0.0
  0
LINE
  8
0
 62
     0
 10
153.924
 20
111.234
 30
0.0
 11
153.782
 21
110.956
 31
0.0
  0
LINE
  8
0
 62
     0
 10
153.782
 20
110.956
 30
0.0
 11
153.734
 21
110.647
 31
0.0
  0
LINE
  8
0
 62
     0
 10
153.734
 20
110.647
 30
0.0
 11
153.782
 21
110.337
 31
0.0
  0
LINE
  8
0
 62
     0
 10
153.782
 20
110.337
 30
0.0
 11
153.924
 21
110.06
 31
0.0
  0
LINE
  8
0
 62
     0
 10
153.924
 20
110.06
 30
0.0
 11
154.146
 21
109.837
 31
0.0
  0
LINE
  8
0
 62
     0
 10
154.146
 20
109.837
 30
0.0
 11
154.423
 21
109.694
 31
0.0
  0
LINE
  8
0
 62
     0
 10
154.423
 20
109.694
 30
0.0
 11
154.733
 21
109.647
 31
0.0
  0
LINE
  8
0
 62
     0
 10
154.733
 20
109.647
 30
0.0
 11
155.043
 21
109.694
 31
0.0
  0
LINE
  8
0
 62
     0
 10
155.043
 20
109.694
 30
0.0
 11
155.32
 21
109.837
 31
0.0
  0
LINE
  8
0
 62
     0
 10
155.32
 20
109.837
 30
0.0
 11
155.542
 21
110.06
 31
0.0
  0
LINE
  8
0
 62
     0
 10
155.542
 20
110.06
 30
0.0
 11
155.684
 21
110.337
 31
0.0
  0
LINE
  8
0
 62
     0
 10
155.684
 20
110.337
 30
0.0
 11
155.733
 21
110.647
 31
0.0
  0
LINE
  8
0
 62
     0
 10
155.733
 20
110.647
 30
0.0
 11
155.684
 21
110.956
 31
0.0
  0
LINE
  8
0
 62
     0
 10
155.684
 20
110.956
 30
0.0
 11
155.542
 21
111.234
 31
0.0
  0
LINE
  8
0
 62
     0
 10
155.542
 20
111.234
 30
0.0
 11
155.32
 21
111.456
 31
0.0
  0
LINE
  8
0
 62
     0
 10
155.32
 20
111.456
 30
0.0
 11
155.043
 21
111.598
 31
0.0
  0
LINE
  8
0
 62
     0
 10
155.043
 20
111.598
 30
0.0
 11
154.733
 21
111.646
 31
0.0
  0
LINE
  8
0
 62
     0
 10
154.733
 20
111.646
 30
0.0
 11
154.423
 21
111.598
 31
0.0
  0
LINE
  8
0
 62
     0
 10
306.561
 20
111.598
 30
0.0
 11
306.284
 21
111.456
 31
0.0
  0
LINE
  8
0
 62
     0
 10
306.284
 20
111.456
 30
0.0
 11
306.061
 21
111.234
 31
0.0
  0
LINE
  8
0
 62
     0
 10
306.061
 20
111.234
 30
0.0
 11
305.919
 21
110.956
 31
0.0
  0
LINE
  8
0
 62
     0
 10
305.919
 20
110.956
 30
0.0
 11
305.872
 21
110.647
 31
0.0
  0
LINE
  8
0
 62
     0
 10
305.872
 20
110.647
 30
0.0
 11
305.919
 21
110.337
 31
0.0
  0
LINE
  8
0
 62
     0
 10
305.919
 20
110.337
 30
0.0
 11
306.061
 21
110.06
 31
0.0
  0
LINE
  8
0
 62
     0
 10
306.061
 20
110.06
 30
0.0
 11
306.284
 21
109.837
 31
0.0
  0
LINE
  8
0
 62
     0
 10
306.284
 20
109.837
 30
0.0
 11
306.561
 21
109.694
 31
0.0
  0
LINE
  8
0
 62
     0
 10
306.561
 20
109.694
 30
0.0
 11
306.871
 21
109.647
 31
0.0
  0
LINE
  8
0
 62
     0
 10
306.871
 20
109.647
 30
0.0
 11
307.18
 21
109.694
 31
0.0
  0
LINE
  8
0
 62
     0
 10
307.18
 20
109.694
 30
0.0
 11
307.458
 21
109.837
 31
0.0
  0
LINE
  8
0
 62
     0
 10
307.458
 20
109.837
 30
0.0
 11
307.68
 21
110.06
 31
0.0
  0
LINE
  8
0
 62
     0
 10
307.68
 20
110.06
 30
0.0
 11
307.822
 21
110.337
 31
0.0
  0
LINE
  8
0
 62
     0
 10
307.822
 20
110.337
 30
0.0
 11
307.872
 21
110.647
 31
0.0
  0
LINE
  8
0
 62
     0
 10
307.872
 20
110.647
 30
0.0
 11
307.822
 21
110.956
 31
0.0
  0
LINE
  8
0
 62
     0
 10
307.822
 20
110.956
 30
0.0
 11
307.68
 21
111.234
 31
0.0
  0
LINE
  8
0
 62
     0
 10
307.68
 20
111.234
 30
0.0
 11
307.458
 21
111.456
 31
0.0
  0
LINE
  8
0
 62
     0
 10
307.458
 20
111.456
 30
0.0
 11
307.18
 21
111.598
 31
0.0
  0
LINE
  8
0
 62
     0
 10
307.18
 20
111.598
 30
0.0
 11
306.871
 21
111.646
 31
0.0
  0
LINE
  8
0
 62
     0
 10
306.871
 20
111.646
 30
0.0
 11
306.561
 21
111.598
 31
0.0
  0
LINE
  8
0
 62
     0
 10
2.28617
 20
111.598
 30
0.0
 11
2.0078
 21
111.456
 31
0.0
  0
LINE
  8
0
 62
     0
 10
2.0078
 20
111.456
 30
0.0
 11
1.78594
 21
111.234
 31
0.0
  0
LINE
  8
0
 62
     0
 10
1.78594
 20
111.234
 30
0.0
 11
1.644
 21
110.956
 31
0.0
  0
LINE
  8
0
 62
     0
 10
1.644
 20
110.956
 30
0.0
 11
1.59439
 21
110.647
 31
0.0
  0
LINE
  8
0
 62
     0
 10
1.59439
 20
110.647
 30
0.0
 11
1.644
 21
110.337
 31
0.0
  0
LINE
  8
0
 62
     0
 10
1.644
 20
110.337
 30
0.0
 11
1.78594
 21
110.06
 31
0.0
  0
LINE
  8
0
 62
     0
 10
1.78594
 20
110.06
 30
0.0
 11
2.0078
 21
109.837
 31
0.0
  0
LINE
  8
0
 62
     0
 10
2.0078
 20
109.837
 30
0.0
 11
2.28617
 21
109.694
 31
0.0
  0
LINE
  8
0
 62
     0
 10
2.28617
 20
109.694
 30
0.0
 11
2.59485
 21
109.647
 31
0.0
  0
LINE
  8
0
 62
     0
 10
2.59485
 20
109.647
 30
0.0
 11
2.90491
 21
109.694
 31
0.0
  0
LINE
  8
0
 62
     0
 10
2.90491
 20
109.694
 30
0.0
 11
3.18189
 21
109.837
 31
0.0
  0
LINE
  8
0
 62
     0
 10
3.18189
 20
109.837
 30
0.0
 11
3.40513
 21
110.06
 31
0.0
  0
LINE
  8
0
 62
     0
 10
3.40513
 20
110.06
 30
0.0
 11
3.54707
 21
110.337
 31
0.0
  0
LINE
  8
0
 62
     0
 10
3.54707
 20
110.337
 30
0.0
 11
3.5953
 21
110.647
 31
0.0
  0
LINE
  8
0
 62
     0
 10
3.5953
 20
110.647
 30
0.0
 11
3.54707
 21
110.956
 31
0.0
  0
LINE
  8
0
 62
     0
 10
3.54707
 20
110.956
 30
0.0
 11
3.40513
 21
111.234
 31
0.0
  0
LINE
  8
0
 62
     0
 10
3.40513
 20
111.234
 30
0.0
 11
3.18189
 21
111.456
 31
0.0
  0
LINE
  8
0
 62
     0
 10
3.18189
 20
111.456
 30
0.0
 11
2.90491
 21
111.598
 31
0.0
  0
LINE
  8
0
 62
     0
 10
2.90491
 20
111.598
 30
0.0
 11
2.59485
 21
111.646
 31
0.0
  0
LINE
  8
0
 62
     0
 10
2.59485
 20
111.646
 30
0.0
 11
2.28617
 21
111.598
 31
0.0
  0
ENDSEC
  0
EOF
