  0
SECTION
  2
HEADER
  9
$ACADVER
  1
AC1009
  9
$FILLMODE
 70
 0
  9
$SPLFRAME
 70
 1
  9
$EXTMIN
 10
0
 20
0
 30
0.0
  9
$EXTMAX
 10
1058.33
 20
1058.33
 30
0.0
  0
ENDSEC
  0
SECTION
  2
TABLES
  0
TABLE
  2
LAYER
 70
1
  0
LAYER
  2
0
 70
     0
 62
     7
  6
CONTINUOUS
  0
ENDTAB
  0
ENDSEC
  0
SECTION
  2
ENTITIES
  0
LINE
  8
0
 62
     0
 10
308.372
 20
113.146
 30
0.0
 11
308.449
 21
113.144
 31
0.0
  0
LINE
  8
0
 62
     0
 10
308.449
 20
113.144
 30
0.0
 11
308.527
 21
113.134
 31
0.0
  0
LINE
  8
0
 62
     0
 10
308.527
 20
113.134
 30
0.0
 11
308.605
 21
113.119
 31
0.0
  0
LINE
  8
0
 62
     0
 10
308.605
 20
113.119
 30
0.0
 11
308.681
 21
113.098
 31
0.0
  0
LINE
  8
0
 62
     0
 10
308.681
 20
113.098
 30
0.0
 11
308.754
 21
113.071
 31
0.0
  0
LINE
  8
0
 62
     0
 10
308.754
 20
113.071
 30
0.0
 11
308.824
 21
113.038
 31
0.0
  0
LINE
  8
0
 62
     0
 10
308.824
 20
113.038
 30
0.0
 11
308.894
 21
112.999
 31
0.0
  0
LINE
  8
0
 62
     0
 10
308.894
 20
112.999
 30
0.0
 11
308.959
 21
112.956
 31
0.0
  0
LINE
  8
0
 62
     0
 10
308.959
 20
112.956
 30
0.0
 11
309.021
 21
112.907
 31
0.0
  0
LINE
  8
0
 62
     0
 10
309.021
 20
112.907
 30
0.0
 11
309.079
 21
112.854
 31
0.0
  0
LINE
  8
0
 62
     0
 10
309.079
 20
112.854
 30
0.0
 11
309.131
 21
112.796
 31
0.0
  0
LINE
  8
0
 62
     0
 10
309.131
 20
112.796
 30
0.0
 11
309.181
 21
112.735
 31
0.0
  0
LINE
  8
0
 62
     0
 10
309.181
 20
112.735
 30
0.0
 11
309.223
 21
112.67
 31
0.0
  0
LINE
  8
0
 62
     0
 10
309.223
 20
112.67
 30
0.0
 11
309.262
 21
112.6
 31
0.0
  0
LINE
  8
0
 62
     0
 10
309.262
 20
112.6
 30
0.0
 11
309.295
 21
112.529
 31
0.0
  0
LINE
  8
0
 62
     0
 10
309.295
 20
112.529
 30
0.0
 11
309.323
 21
112.456
 31
0.0
  0
LINE
  8
0
 62
     0
 10
309.323
 20
112.456
 30
0.0
 11
309.343
 21
112.381
 31
0.0
  0
LINE
  8
0
 62
     0
 10
309.343
 20
112.381
 30
0.0
 11
309.359
 21
112.303
 31
0.0
  0
LINE
  8
0
 62
     0
 10
309.359
 20
112.303
 30
0.0
 11
309.367
 21
112.225
 31
0.0
  0
LINE
  8
0
 62
     0
 10
309.367
 20
112.225
 30
0.0
 11
309.371
 21
112.146
 31
0.0
  0
LINE
  8
0
 62
     0
 10
309.371
 20
112.146
 30
0.0
 11
309.371
 21
1.13275
 31
0.0
  0
LINE
  8
0
 62
     0
 10
309.371
 20
1.13275
 30
0.0
 11
309.367
 21
1.05558
 31
0.0
  0
LINE
  8
0
 62
     0
 10
309.367
 20
1.05558
 30
0.0
 11
309.359
 21
0.977029
 31
0.0
  0
LINE
  8
0
 62
     0
 10
309.359
 20
0.977029
 30
0.0
 11
309.343
 21
0.899859
 31
0.0
  0
LINE
  8
0
 62
     0
 10
309.343
 20
0.899859
 30
0.0
 11
309.323
 21
0.824068
 31
0.0
  0
LINE
  8
0
 62
     0
 10
309.323
 20
0.824068
 30
0.0
 11
309.295
 21
0.749653
 31
0.0
  0
LINE
  8
0
 62
     0
 10
309.295
 20
0.749653
 30
0.0
 11
309.262
 21
0.679372
 31
0.0
  0
LINE
  8
0
 62
     0
 10
309.262
 20
0.679372
 30
0.0
 11
309.223
 21
0.611851
 31
0.0
  0
LINE
  8
0
 62
     0
 10
309.223
 20
0.611851
 30
0.0
 11
309.181
 21
0.545705
 31
0.0
  0
LINE
  8
0
 62
     0
 10
309.181
 20
0.545705
 30
0.0
 11
309.131
 21
0.48369
 31
0.0
  0
LINE
  8
0
 62
     0
 10
309.131
 20
0.48369
 30
0.0
 11
309.079
 21
0.425813
 31
0.0
  0
LINE
  8
0
 62
     0
 10
309.079
 20
0.425813
 30
0.0
 11
309.021
 21
0.373447
 31
0.0
  0
LINE
  8
0
 62
     0
 10
309.021
 20
0.373447
 30
0.0
 11
308.959
 21
0.323839
 31
0.0
  0
LINE
  8
0
 62
     0
 10
308.959
 20
0.323839
 30
0.0
 11
308.894
 21
0.279742
 31
0.0
  0
LINE
  8
0
 62
     0
 10
308.894
 20
0.279742
 30
0.0
 11
308.824
 21
0.242535
 31
0.0
  0
LINE
  8
0
 62
     0
 10
308.824
 20
0.242535
 30
0.0
 11
308.754
 21
0.209462
 31
0.0
  0
LINE
  8
0
 62
     0
 10
308.754
 20
0.209462
 30
0.0
 11
308.681
 21
0.181901
 31
0.0
  0
LINE
  8
0
 62
     0
 10
308.681
 20
0.181901
 30
0.0
 11
308.605
 21
0.16123
 31
0.0
  0
LINE
  8
0
 62
     0
 10
308.605
 20
0.16123
 30
0.0
 11
308.527
 21
0.144694
 31
0.0
  0
LINE
  8
0
 62
     0
 10
308.527
 20
0.144694
 30
0.0
 11
308.449
 21
0.136426
 31
0.0
  0
LINE
  8
0
 62
     0
 10
308.449
 20
0.136426
 30
0.0
 11
308.372
 21
0.13367
 31
0.0
  0
LINE
  8
0
 62
     0
 10
308.372
 20
0.13367
 30
0.0
 11
1.09554
 21
0.13367
 31
0.0
  0
LINE
  8
0
 62
     0
 10
1.09554
 20
0.13367
 30
0.0
 11
1.01699
 21
0.136426
 31
0.0
  0
LINE
  8
0
 62
     0
 10
1.01699
 20
0.136426
 30
0.0
 11
0.938445
 21
0.144694
 31
0.0
  0
LINE
  8
0
 62
     0
 10
0.938445
 20
0.144694
 30
0.0
 11
0.861275
 21
0.16123
 31
0.0
  0
LINE
  8
0
 62
     0
 10
0.861275
 20
0.16123
 30
0.0
 11
0.785481
 21
0.181901
 31
0.0
  0
LINE
  8
0
 62
     0
 10
0.785481
 20
0.181901
 30
0.0
 11
0.712445
 21
0.209462
 31
0.0
  0
LINE
  8
0
 62
     0
 10
0.712445
 20
0.209462
 30
0.0
 11
0.642165
 21
0.242535
 31
0.0
  0
LINE
  8
0
 62
     0
 10
0.642165
 20
0.242535
 30
0.0
 11
0.571885
 21
0.279742
 31
0.0
  0
LINE
  8
0
 62
     0
 10
0.571885
 20
0.279742
 30
0.0
 11
0.507118
 21
0.323839
 31
0.0
  0
LINE
  8
0
 62
     0
 10
0.507118
 20
0.323839
 30
0.0
 11
0.445107
 21
0.373447
 31
0.0
  0
LINE
  8
0
 62
     0
 10
0.445107
 20
0.373447
 30
0.0
 11
0.38723
 21
0.425813
 31
0.0
  0
LINE
  8
0
 62
     0
 10
0.38723
 20
0.425813
 30
0.0
 11
0.334863
 21
0.48369
 31
0.0
  0
LINE
  8
0
 62
     0
 10
0.334863
 20
0.48369
 30
0.0
 11
0.285254
 21
0.545705
 31
0.0
  0
LINE
  8
0
 62
     0
 10
0.285254
 20
0.545705
 30
0.0
 11
0.242535
 21
0.611851
 31
0.0
  0
LINE
  8
0
 62
     0
 10
0.242535
 20
0.611851
 30
0.0
 11
0.20395
 21
0.679372
 31
0.0
  0
LINE
  8
0
 62
     0
 10
0.20395
 20
0.679372
 30
0.0
 11
0.170877
 21
0.749653
 31
0.0
  0
LINE
  8
0
 62
     0
 10
0.170877
 20
0.749653
 30
0.0
 11
0.143316
 21
0.824068
 31
0.0
  0
LINE
  8
0
 62
     0
 10
0.143316
 20
0.824068
 30
0.0
 11
0.122645
 21
0.899859
 31
0.0
  0
LINE
  8
0
 62
     0
 10
0.122645
 20
0.899859
 30
0.0
 11
0.107487
 21
0.977029
 31
0.0
  0
LINE
  8
0
 62
     0
 10
0.107487
 20
0.977029
 30
0.0
 11
0.0978408
 21
1.05558
 31
0.0
  0
LINE
  8
0
 62
     0
 10
0.0978408
 20
1.05558
 30
0.0
 11
0.0950846
 21
1.13275
 31
0.0
  0
LINE
  8
0
 62
     0
 10
0.0950846
 20
1.13275
 30
0.0
 11
0.0950846
 21
112.146
 31
0.0
  0
LINE
  8
0
 62
     0
 10
0.0950846
 20
112.146
 30
0.0
 11
0.0978408
 21
112.225
 31
0.0
  0
LINE
  8
0
 62
     0
 10
0.0978408
 20
112.225
 30
0.0
 11
0.107487
 21
112.303
 31
0.0
  0
LINE
  8
0
 62
     0
 10
0.107487
 20
112.303
 30
0.0
 11
0.122645
 21
112.381
 31
0.0
  0
LINE
  8
0
 62
     0
 10
0.122645
 20
112.381
 30
0.0
 11
0.143316
 21
112.456
 31
0.0
  0
LINE
  8
0
 62
     0
 10
0.143316
 20
112.456
 30
0.0
 11
0.170877
 21
112.529
 31
0.0
  0
LINE
  8
0
 62
     0
 10
0.170877
 20
112.529
 30
0.0
 11
0.20395
 21
112.6
 31
0.0
  0
LINE
  8
0
 62
     0
 10
0.20395
 20
112.6
 30
0.0
 11
0.242535
 21
112.67
 31
0.0
  0
LINE
  8
0
 62
     0
 10
0.242535
 20
112.67
 30
0.0
 11
0.285254
 21
112.735
 31
0.0
  0
LINE
  8
0
 62
     0
 10
0.285254
 20
112.735
 30
0.0
 11
0.334863
 21
112.796
 31
0.0
  0
LINE
  8
0
 62
     0
 10
0.334863
 20
112.796
 30
0.0
 11
0.38723
 21
112.854
 31
0.0
  0
LINE
  8
0
 62
     0
 10
0.38723
 20
112.854
 30
0.0
 11
0.445107
 21
112.907
 31
0.0
  0
LINE
  8
0
 62
     0
 10
0.445107
 20
112.907
 30
0.0
 11
0.507118
 21
112.956
 31
0.0
  0
LINE
  8
0
 62
     0
 10
0.507118
 20
112.956
 30
0.0
 11
0.571885
 21
112.999
 31
0.0
  0
LINE
  8
0
 62
     0
 10
0.571885
 20
112.999
 30
0.0
 11
0.642165
 21
113.038
 31
0.0
  0
LINE
  8
0
 62
     0
 10
0.642165
 20
113.038
 30
0.0
 11
0.712445
 21
113.071
 31
0.0
  0
LINE
  8
0
 62
     0
 10
0.712445
 20
113.071
 30
0.0
 11
0.785481
 21
113.098
 31
0.0
  0
LINE
  8
0
 62
     0
 10
0.785481
 20
113.098
 30
0.0
 11
0.861275
 21
113.119
 31
0.0
  0
LINE
  8
0
 62
     0
 10
0.861275
 20
113.119
 30
0.0
 11
0.938445
 21
113.134
 31
0.0
  0
LINE
  8
0
 62
     0
 10
0.938445
 20
113.134
 30
0.0
 11
1.01699
 21
113.144
 31
0.0
  0
LINE
  8
0
 62
     0
 10
1.01699
 20
113.144
 30
0.0
 11
1.09554
 21
113.146
 31
0.0
  0
LINE
  8
0
 62
     0
 10
1.09554
 20
113.146
 30
0.0
 11
308.372
 21
113.146
 31
0.0
  0
LINE
  8
0
 62
     0
 10
306.561
 20
3.58429
 30
0.0
 11
306.284
 21
3.44234
 31
0.0
  0
LINE
  8
0
 62
     0
 10
306.284
 20
3.44234
 30
0.0
 11
306.061
 21
3.22185
 31
0.0
  0
LINE
  8
0
 62
     0
 10
306.061
 20
3.22185
 30
0.0
 11
305.919
 21
2.94211
 31
0.0
  0
LINE
  8
0
 62
     0
 10
305.919
 20
2.94211
 30
0.0
 11
305.872
 21
2.63343
 31
0.0
  0
LINE
  8
0
 62
     0
 10
305.872
 20
2.63343
 30
0.0
 11
305.919
 21
2.32475
 31
0.0
  0
LINE
  8
0
 62
     0
 10
305.919
 20
2.32475
 30
0.0
 11
306.061
 21
2.04501
 31
0.0
  0
LINE
  8
0
 62
     0
 10
306.061
 20
2.04501
 30
0.0
 11
306.284
 21
1.82452
 31
0.0
  0
LINE
  8
0
 62
     0
 10
306.284
 20
1.82452
 30
0.0
 11
306.561
 21
1.68258
 31
0.0
  0
LINE
  8
0
 62
     0
 10
306.561
 20
1.68258
 30
0.0
 11
306.871
 21
1.63298
 31
0.0
  0
LINE
  8
0
 62
     0
 10
306.871
 20
1.63298
 30
0.0
 11
307.18
 21
1.68258
 31
0.0
  0
LINE
  8
0
 62
     0
 10
307.18
 20
1.68258
 30
0.0
 11
307.458
 21
1.82452
 31
0.0
  0
LINE
  8
0
 62
     0
 10
307.458
 20
1.82452
 30
0.0
 11
307.68
 21
2.04501
 31
0.0
  0
LINE
  8
0
 62
     0
 10
307.68
 20
2.04501
 30
0.0
 11
307.822
 21
2.32475
 31
0.0
  0
LINE
  8
0
 62
     0
 10
307.822
 20
2.32475
 30
0.0
 11
307.872
 21
2.63343
 31
0.0
  0
LINE
  8
0
 62
     0
 10
307.872
 20
2.63343
 30
0.0
 11
307.822
 21
2.94211
 31
0.0
  0
LINE
  8
0
 62
     0
 10
307.822
 20
2.94211
 30
0.0
 11
307.68
 21
3.22185
 31
0.0
  0
LINE
  8
0
 62
     0
 10
307.68
 20
3.22185
 30
0.0
 11
307.458
 21
3.44234
 31
0.0
  0
LINE
  8
0
 62
     0
 10
307.458
 20
3.44234
 30
0.0
 11
307.18
 21
3.58429
 31
0.0
  0
LINE
  8
0
 62
     0
 10
307.18
 20
3.58429
 30
0.0
 11
306.871
 21
3.63252
 31
0.0
  0
LINE
  8
0
 62
     0
 10
306.871
 20
3.63252
 30
0.0
 11
306.561
 21
3.58429
 31
0.0
  0
LINE
  8
0
 62
     0
 10
154.423
 20
3.58429
 30
0.0
 11
154.146
 21
3.44234
 31
0.0
  0
LINE
  8
0
 62
     0
 10
154.146
 20
3.44234
 30
0.0
 11
153.924
 21
3.22185
 31
0.0
  0
LINE
  8
0
 62
     0
 10
153.924
 20
3.22185
 30
0.0
 11
153.782
 21
2.94211
 31
0.0
  0
LINE
  8
0
 62
     0
 10
153.782
 20
2.94211
 30
0.0
 11
153.734
 21
2.63343
 31
0.0
  0
LINE
  8
0
 62
     0
 10
153.734
 20
2.63343
 30
0.0
 11
153.782
 21
2.32475
 31
0.0
  0
LINE
  8
0
 62
     0
 10
153.782
 20
2.32475
 30
0.0
 11
153.924
 21
2.04501
 31
0.0
  0
LINE
  8
0
 62
     0
 10
153.924
 20
2.04501
 30
0.0
 11
154.146
 21
1.82452
 31
0.0
  0
LINE
  8
0
 62
     0
 10
154.146
 20
1.82452
 30
0.0
 11
154.423
 21
1.68258
 31
0.0
  0
LINE
  8
0
 62
     0
 10
154.423
 20
1.68258
 30
0.0
 11
154.733
 21
1.63298
 31
0.0
  0
LINE
  8
0
 62
     0
 10
154.733
 20
1.63298
 30
0.0
 11
155.043
 21
1.68258
 31
0.0
  0
LINE
  8
0
 62
     0
 10
155.043
 20
1.68258
 30
0.0
 11
155.32
 21
1.82452
 31
0.0
  0
LINE
  8
0
 62
     0
 10
155.32
 20
1.82452
 30
0.0
 11
155.542
 21
2.04501
 31
0.0
  0
LINE
  8
0
 62
     0
 10
155.542
 20
2.04501
 30
0.0
 11
155.684
 21
2.32475
 31
0.0
  0
LINE
  8
0
 62
     0
 10
155.684
 20
2.32475
 30
0.0
 11
155.733
 21
2.63343
 31
0.0
  0
LINE
  8
0
 62
     0
 10
155.733
 20
2.63343
 30
0.0
 11
155.684
 21
2.94211
 31
0.0
  0
LINE
  8
0
 62
     0
 10
155.684
 20
2.94211
 30
0.0
 11
155.542
 21
3.22185
 31
0.0
  0
LINE
  8
0
 62
     0
 10
155.542
 20
3.22185
 30
0.0
 11
155.32
 21
3.44234
 31
0.0
  0
LINE
  8
0
 62
     0
 10
155.32
 20
3.44234
 30
0.0
 11
155.043
 21
3.58429
 31
0.0
  0
LINE
  8
0
 62
     0
 10
155.043
 20
3.58429
 30
0.0
 11
154.733
 21
3.63252
 31
0.0
  0
LINE
  8
0
 62
     0
 10
154.733
 20
3.63252
 30
0.0
 11
154.423
 21
3.58429
 31
0.0
  0
LINE
  8
0
 62
     0
 10
2.28617
 20
3.58429
 30
0.0
 11
2.0078
 21
3.44234
 31
0.0
  0
LINE
  8
0
 62
     0
 10
2.0078
 20
3.44234
 30
0.0
 11
1.78594
 21
3.22185
 31
0.0
  0
LINE
  8
0
 62
     0
 10
1.78594
 20
3.22185
 30
0.0
 11
1.644
 21
2.94211
 31
0.0
  0
LINE
  8
0
 62
     0
 10
1.644
 20
2.94211
 30
0.0
 11
1.59439
 21
2.63343
 31
0.0
  0
LINE
  8
0
 62
     0
 10
1.59439
 20
2.63343
 30
0.0
 11
1.644
 21
2.32475
 31
0.0
  0
LINE
  8
0
 62
     0
 10
1.644
 20
2.32475
 30
0.0
 11
1.78594
 21
2.04501
 31
0.0
  0
LINE
  8
0
 62
     0
 10
1.78594
 20
2.04501
 30
0.0
 11
2.0078
 21
1.82452
 31
0.0
  0
LINE
  8
0
 62
     0
 10
2.0078
 20
1.82452
 30
0.0
 11
2.28617
 21
1.68258
 31
0.0
  0
LINE
  8
0
 62
     0
 10
2.28617
 20
1.68258
 30
0.0
 11
2.59485
 21
1.63298
 31
0.0
  0
LINE
  8
0
 62
     0
 10
2.59485
 20
1.63298
 30
0.0
 11
2.90491
 21
1.68258
 31
0.0
  0
LINE
  8
0
 62
     0
 10
2.90491
 20
1.68258
 30
0.0
 11
3.18189
 21
1.82452
 31
0.0
  0
LINE
  8
0
 62
     0
 10
3.18189
 20
1.82452
 30
0.0
 11
3.40513
 21
2.04501
 31
0.0
  0
LINE
  8
0
 62
     0
 10
3.40513
 20
2.04501
 30
0.0
 11
3.54707
 21
2.32475
 31
0.0
  0
LINE
  8
0
 62
     0
 10
3.54707
 20
2.32475
 30
0.0
 11
3.5953
 21
2.63343
 31
0.0
  0
LINE
  8
0
 62
     0
 10
3.5953
 20
2.63343
 30
0.0
 11
3.54707
 21
2.94211
 31
0.0
  0
LINE
  8
0
 62
     0
 10
3.54707
 20
2.94211
 30
0.0
 11
3.40513
 21
3.22185
 31
0.0
  0
LINE
  8
0
 62
     0
 10
3.40513
 20
3.22185
 30
0.0
 11
3.18189
 21
3.44234
 31
0.0
  0
LINE
  8
0
 62
     0
 10
3.18189
 20
3.44234
 30
0.0
 11
2.90491
 21
3.58429
 31
0.0
  0
LINE
  8
0
 62
     0
 10
2.90491
 20
3.58429
 30
0.0
 11
2.59485
 21
3.63252
 31
0.0
  0
LINE
  8
0
 62
     0
 10
2.59485
 20
3.63252
 30
0.0
 11
2.28617
 21
3.58429
 31
0.0
  0
LINE
  8
0
 62
     0
 10
114.395
 20
23.1593
 30
0.0
 11
114.395
 21
22.1589
 31
0.0
  0
LINE
  8
0
 62
     0
 10
114.395
 20
22.1589
 30
0.0
 11
113.596
 21
22.1589
 31
0.0
  0
LINE
  8
0
 62
     0
 10
113.596
 20
22.1589
 30
0.0
 11
113.596
 21
19.0596
 31
0.0
  0
LINE
  8
0
 62
     0
 10
113.596
 20
19.0596
 30
0.0
 11
114.395
 21
19.0596
 31
0.0
  0
LINE
  8
0
 62
     0
 10
114.395
 20
19.0596
 30
0.0
 11
114.395
 21
18.4588
 31
0.0
  0
LINE
  8
0
 62
     0
 10
114.395
 20
18.4588
 30
0.0
 11
67.6204
 21
18.4588
 31
0.0
  0
LINE
  8
0
 62
     0
 10
67.6204
 20
18.4588
 30
0.0
 11
67.6204
 21
21.689
 31
0.0
  0
LINE
  8
0
 62
     0
 10
67.6204
 20
21.689
 30
0.0
 11
65.895
 21
21.689
 31
0.0
  0
LINE
  8
0
 62
     0
 10
65.895
 20
21.689
 30
0.0
 11
65.895
 21
22.6095
 31
0.0
  0
LINE
  8
0
 62
     0
 10
65.895
 20
22.6095
 30
0.0
 11
62.5962
 21
22.6095
 31
0.0
  0
LINE
  8
0
 62
     0
 10
62.5962
 20
22.6095
 30
0.0
 11
62.5962
 21
21.689
 31
0.0
  0
LINE
  8
0
 62
     0
 10
62.5962
 20
21.689
 30
0.0
 11
60.8707
 21
21.689
 31
0.0
  0
LINE
  8
0
 62
     0
 10
60.8707
 20
21.689
 30
0.0
 11
60.8707
 21
18.4588
 31
0.0
  0
LINE
  8
0
 62
     0
 10
60.8707
 20
18.4588
 30
0.0
 11
60.0438
 21
18.4588
 31
0.0
  0
LINE
  8
0
 62
     0
 10
60.0438
 20
18.4588
 30
0.0
 11
60.0438
 21
15.6586
 31
0.0
  0
LINE
  8
0
 62
     0
 10
60.0438
 20
15.6586
 30
0.0
 11
60.8707
 21
15.6586
 31
0.0
  0
LINE
  8
0
 62
     0
 10
60.8707
 20
15.6586
 30
0.0
 11
60.8707
 21
9.38858
 31
0.0
  0
LINE
  8
0
 62
     0
 10
60.8707
 20
9.38858
 30
0.0
 11
62.5962
 21
9.38858
 31
0.0
  0
LINE
  8
0
 62
     0
 10
62.5962
 20
9.38858
 30
0.0
 11
62.5962
 21
8.40878
 31
0.0
  0
LINE
  8
0
 62
     0
 10
62.5962
 20
8.40878
 30
0.0
 11
65.895
 21
8.40878
 31
0.0
  0
LINE
  8
0
 62
     0
 10
65.895
 20
8.40878
 30
0.0
 11
65.895
 21
9.38858
 31
0.0
  0
LINE
  8
0
 62
     0
 10
65.895
 20
9.38858
 30
0.0
 11
67.6204
 21
9.38858
 31
0.0
  0
LINE
  8
0
 62
     0
 10
67.6204
 20
9.38858
 30
0.0
 11
67.6204
 21
13.8589
 31
0.0
  0
LINE
  8
0
 62
     0
 10
67.6204
 20
13.8589
 30
0.0
 11
114.395
 21
13.8589
 31
0.0
  0
LINE
  8
0
 62
     0
 10
114.395
 20
13.8589
 30
0.0
 11
114.395
 21
13.2595
 31
0.0
  0
LINE
  8
0
 62
     0
 10
114.395
 20
13.2595
 30
0.0
 11
113.596
 21
13.2595
 31
0.0
  0
LINE
  8
0
 62
     0
 10
113.596
 20
13.2595
 30
0.0
 11
113.596
 21
10.1589
 31
0.0
  0
LINE
  8
0
 62
     0
 10
113.596
 20
10.1589
 30
0.0
 11
114.395
 21
10.1589
 31
0.0
  0
LINE
  8
0
 62
     0
 10
114.395
 20
10.1589
 30
0.0
 11
114.395
 21
9.1598
 31
0.0
  0
LINE
  8
0
 62
     0
 10
114.395
 20
9.1598
 30
0.0
 11
128.396
 21
9.1598
 31
0.0
  0
LINE
  8
0
 62
     0
 10
128.396
 20
9.1598
 30
0.0
 11
128.396
 21
10.1589
 31
0.0
  0
LINE
  8
0
 62
     0
 10
128.396
 20
10.1589
 30
0.0
 11
129.195
 21
10.1589
 31
0.0
  0
LINE
  8
0
 62
     0
 10
129.195
 20
10.1589
 30
0.0
 11
129.195
 21
13.2595
 31
0.0
  0
LINE
  8
0
 62
     0
 10
129.195
 20
13.2595
 30
0.0
 11
128.396
 21
13.2595
 31
0.0
  0
LINE
  8
0
 62
     0
 10
128.396
 20
13.2595
 30
0.0
 11
128.396
 21
13.8589
 31
0.0
  0
LINE
  8
0
 62
     0
 10
128.396
 20
13.8589
 30
0.0
 11
175.171
 21
13.8589
 31
0.0
  0
LINE
  8
0
 62
     0
 10
175.171
 20
13.8589
 30
0.0
 11
175.171
 21
9.38858
 31
0.0
  0
LINE
  8
0
 62
     0
 10
175.171
 20
9.38858
 30
0.0
 11
176.896
 21
9.38858
 31
0.0
  0
LINE
  8
0
 62
     0
 10
176.896
 20
9.38858
 30
0.0
 11
176.896
 21
8.40878
 31
0.0
  0
LINE
  8
0
 62
     0
 10
176.896
 20
8.40878
 30
0.0
 11
180.195
 21
8.40878
 31
0.0
  0
LINE
  8
0
 62
     0
 10
180.195
 20
8.40878
 30
0.0
 11
180.195
 21
9.38858
 31
0.0
  0
LINE
  8
0
 62
     0
 10
180.195
 20
9.38858
 30
0.0
 11
181.92
 21
9.38858
 31
0.0
  0
LINE
  8
0
 62
     0
 10
181.92
 20
9.38858
 30
0.0
 11
181.92
 21
15.6586
 31
0.0
  0
LINE
  8
0
 62
     0
 10
181.92
 20
15.6586
 30
0.0
 11
182.746
 21
15.6586
 31
0.0
  0
LINE
  8
0
 62
     0
 10
182.746
 20
15.6586
 30
0.0
 11
182.746
 21
18.4588
 31
0.0
  0
LINE
  8
0
 62
     0
 10
182.746
 20
18.4588
 30
0.0
 11
181.92
 21
18.4588
 31
0.0
  0
LINE
  8
0
 62
     0
 10
181.92
 20
18.4588
 30
0.0
 11
181.92
 21
21.689
 31
0.0
  0
LINE
  8
0
 62
     0
 10
181.92
 20
21.689
 30
0.0
 11
180.195
 21
21.689
 31
0.0
  0
LINE
  8
0
 62
     0
 10
180.195
 20
21.689
 30
0.0
 11
180.195
 21
22.6095
 31
0.0
  0
LINE
  8
0
 62
     0
 10
180.195
 20
22.6095
 30
0.0
 11
176.896
 21
22.6095
 31
0.0
  0
LINE
  8
0
 62
     0
 10
176.896
 20
22.6095
 30
0.0
 11
176.896
 21
21.689
 31
0.0
  0
LINE
  8
0
 62
     0
 10
176.896
 20
21.689
 30
0.0
 11
175.171
 21
21.689
 31
0.0
  0
LINE
  8
0
 62
     0
 10
175.171
 20
21.689
 30
0.0
 11
175.171
 21
18.4588
 31
0.0
  0
LINE
  8
0
 62
     0
 10
175.171
 20
18.4588
 30
0.0
 11
128.396
 21
18.4588
 31
0.0
  0
LINE
  8
0
 62
     0
 10
128.396
 20
18.4588
 30
0.0
 11
128.396
 21
19.0596
 31
0.0
  0
LINE
  8
0
 62
     0
 10
128.396
 20
19.0596
 30
0.0
 11
129.195
 21
19.0596
 31
0.0
  0
LINE
  8
0
 62
     0
 10
129.195
 20
19.0596
 30
0.0
 11
129.195
 21
22.1589
 31
0.0
  0
LINE
  8
0
 62
     0
 10
129.195
 20
22.1589
 30
0.0
 11
128.396
 21
22.1589
 31
0.0
  0
LINE
  8
0
 62
     0
 10
128.396
 20
22.1589
 30
0.0
 11
128.396
 21
23.1593
 31
0.0
  0
LINE
  8
0
 62
     0
 10
128.396
 20
23.1593
 30
0.0
 11
114.395
 21
23.1593
 31
0.0
  0
LINE
  8
0
 62
     0
 10
12.0013
 20
23.1593
 30
0.0
 11
12.0013
 21
22.1589
 31
0.0
  0
LINE
  8
0
 62
     0
 10
12.0013
 20
22.1589
 30
0.0
 11
11.2021
 21
22.1589
 31
0.0
  0
LINE
  8
0
 62
     0
 10
11.2021
 20
22.1589
 30
0.0
 11
11.2021
 21
19.0596
 31
0.0
  0
LINE
  8
0
 62
     0
 10
11.2021
 20
19.0596
 30
0.0
 11
12.0013
 21
19.0596
 31
0.0
  0
LINE
  8
0
 62
     0
 10
12.0013
 20
19.0596
 30
0.0
 11
12.0013
 21
13.2595
 31
0.0
  0
LINE
  8
0
 62
     0
 10
12.0013
 20
13.2595
 30
0.0
 11
11.2021
 21
13.2595
 31
0.0
  0
LINE
  8
0
 62
     0
 10
11.2021
 20
13.2595
 30
0.0
 11
11.2021
 21
10.1589
 31
0.0
  0
LINE
  8
0
 62
     0
 10
11.2021
 20
10.1589
 30
0.0
 11
12.0013
 21
10.1589
 31
0.0
  0
LINE
  8
0
 62
     0
 10
12.0013
 20
10.1589
 30
0.0
 11
12.0013
 21
9.1598
 31
0.0
  0
LINE
  8
0
 62
     0
 10
12.0013
 20
9.1598
 30
0.0
 11
26.0008
 21
9.1598
 31
0.0
  0
LINE
  8
0
 62
     0
 10
26.0008
 20
9.1598
 30
0.0
 11
26.0008
 21
10.1589
 31
0.0
  0
LINE
  8
0
 62
     0
 10
26.0008
 20
10.1589
 30
0.0
 11
26.8015
 21
10.1589
 31
0.0
  0
LINE
  8
0
 62
     0
 10
26.8015
 20
10.1589
 30
0.0
 11
26.8015
 21
13.2595
 31
0.0
  0
LINE
  8
0
 62
     0
 10
26.8015
 20
13.2595
 30
0.0
 11
26.0008
 21
13.2595
 31
0.0
  0
LINE
  8
0
 62
     0
 10
26.0008
 20
13.2595
 30
0.0
 11
26.0008
 21
19.0596
 31
0.0
  0
LINE
  8
0
 62
     0
 10
26.0008
 20
19.0596
 30
0.0
 11
26.8015
 21
19.0596
 31
0.0
  0
LINE
  8
0
 62
     0
 10
26.8015
 20
19.0596
 30
0.0
 11
26.8015
 21
22.1589
 31
0.0
  0
LINE
  8
0
 62
     0
 10
26.8015
 20
22.1589
 30
0.0
 11
26.0008
 21
22.1589
 31
0.0
  0
LINE
  8
0
 62
     0
 10
26.0008
 20
22.1589
 30
0.0
 11
26.0008
 21
23.1593
 31
0.0
  0
LINE
  8
0
 62
     0
 10
26.0008
 20
23.1593
 30
0.0
 11
12.0013
 21
23.1593
 31
0.0
  0
LINE
  8
0
 62
     0
 10
35.814
 20
23.1593
 30
0.0
 11
35.814
 21
22.1589
 31
0.0
  0
LINE
  8
0
 62
     0
 10
35.814
 20
22.1589
 30
0.0
 11
35.0132
 21
22.1589
 31
0.0
  0
LINE
  8
0
 62
     0
 10
35.0132
 20
22.1589
 30
0.0
 11
35.0132
 21
19.0596
 31
0.0
  0
LINE
  8
0
 62
     0
 10
35.0132
 20
19.0596
 30
0.0
 11
35.814
 21
19.0596
 31
0.0
  0
LINE
  8
0
 62
     0
 10
35.814
 20
19.0596
 30
0.0
 11
35.814
 21
13.2595
 31
0.0
  0
LINE
  8
0
 62
     0
 10
35.814
 20
13.2595
 30
0.0
 11
35.0132
 21
13.2595
 31
0.0
  0
LINE
  8
0
 62
     0
 10
35.0132
 20
13.2595
 30
0.0
 11
35.0132
 21
10.1589
 31
0.0
  0
LINE
  8
0
 62
     0
 10
35.0132
 20
10.1589
 30
0.0
 11
35.814
 21
10.1589
 31
0.0
  0
LINE
  8
0
 62
     0
 10
35.814
 20
10.1589
 30
0.0
 11
35.814
 21
9.1598
 31
0.0
  0
LINE
  8
0
 62
     0
 10
35.814
 20
9.1598
 30
0.0
 11
49.8133
 21
9.1598
 31
0.0
  0
LINE
  8
0
 62
     0
 10
49.8133
 20
9.1598
 30
0.0
 11
49.8133
 21
10.1589
 31
0.0
  0
LINE
  8
0
 62
     0
 10
49.8133
 20
10.1589
 30
0.0
 11
50.6141
 21
10.1589
 31
0.0
  0
LINE
  8
0
 62
     0
 10
50.6141
 20
10.1589
 30
0.0
 11
50.6141
 21
13.2595
 31
0.0
  0
LINE
  8
0
 62
     0
 10
50.6141
 20
13.2595
 30
0.0
 11
49.8133
 21
13.2595
 31
0.0
  0
LINE
  8
0
 62
     0
 10
49.8133
 20
13.2595
 30
0.0
 11
49.8133
 21
19.0596
 31
0.0
  0
LINE
  8
0
 62
     0
 10
49.8133
 20
19.0596
 30
0.0
 11
50.6141
 21
19.0596
 31
0.0
  0
LINE
  8
0
 62
     0
 10
50.6141
 20
19.0596
 30
0.0
 11
50.6141
 21
22.1589
 31
0.0
  0
LINE
  8
0
 62
     0
 10
50.6141
 20
22.1589
 30
0.0
 11
49.8133
 21
22.1589
 31
0.0
  0
LINE
  8
0
 62
     0
 10
49.8133
 20
22.1589
 30
0.0
 11
49.8133
 21
23.1593
 31
0.0
  0
LINE
  8
0
 62
     0
 10
49.8133
 20
23.1593
 30
0.0
 11
35.814
 21
23.1593
 31
0.0
  0
LINE
  8
0
 62
     0
 10
192.977
 20
23.1593
 30
0.0
 11
192.977
 21
22.1589
 31
0.0
  0
LINE
  8
0
 62
     0
 10
192.977
 20
22.1589
 30
0.0
 11
192.177
 21
22.1589
 31
0.0
  0
LINE
  8
0
 62
     0
 10
192.177
 20
22.1589
 30
0.0
 11
192.177
 21
19.0596
 31
0.0
  0
LINE
  8
0
 62
     0
 10
192.177
 20
19.0596
 30
0.0
 11
192.977
 21
19.0596
 31
0.0
  0
LINE
  8
0
 62
     0
 10
192.977
 20
19.0596
 30
0.0
 11
192.977
 21
13.2595
 31
0.0
  0
LINE
  8
0
 62
     0
 10
192.977
 20
13.2595
 30
0.0
 11
192.177
 21
13.2595
 31
0.0
  0
LINE
  8
0
 62
     0
 10
192.177
 20
13.2595
 30
0.0
 11
192.177
 21
10.1589
 31
0.0
  0
LINE
  8
0
 62
     0
 10
192.177
 20
10.1589
 30
0.0
 11
192.977
 21
10.1589
 31
0.0
  0
LINE
  8
0
 62
     0
 10
192.977
 20
10.1589
 30
0.0
 11
192.977
 21
9.1598
 31
0.0
  0
LINE
  8
0
 62
     0
 10
192.977
 20
9.1598
 30
0.0
 11
206.976
 21
9.1598
 31
0.0
  0
LINE
  8
0
 62
     0
 10
206.976
 20
9.1598
 30
0.0
 11
206.976
 21
10.1589
 31
0.0
  0
LINE
  8
0
 62
     0
 10
206.976
 20
10.1589
 30
0.0
 11
207.777
 21
10.1589
 31
0.0
  0
LINE
  8
0
 62
     0
 10
207.777
 20
10.1589
 30
0.0
 11
207.777
 21
13.2595
 31
0.0
  0
LINE
  8
0
 62
     0
 10
207.777
 20
13.2595
 30
0.0
 11
206.976
 21
13.2595
 31
0.0
  0
LINE
  8
0
 62
     0
 10
206.976
 20
13.2595
 30
0.0
 11
206.976
 21
19.0596
 31
0.0
  0
LINE
  8
0
 62
     0
 10
206.976
 20
19.0596
 30
0.0
 11
207.777
 21
19.0596
 31
0.0
  0
LINE
  8
0
 62
     0
 10
207.777
 20
19.0596
 30
0.0
 11
207.777
 21
22.1589
 31
0.0
  0
LINE
  8
0
 62
     0
 10
207.777
 20
22.1589
 30
0.0
 11
206.976
 21
22.1589
 31
0.0
  0
LINE
  8
0
 62
     0
 10
206.976
 20
22.1589
 30
0.0
 11
206.976
 21
23.1593
 31
0.0
  0
LINE
  8
0
 62
     0
 10
206.976
 20
23.1593
 30
0.0
 11
192.977
 21
23.1593
 31
0.0
  0
LINE
  8
0
 62
     0
 10
216.789
 20
23.1593
 30
0.0
 11
216.789
 21
22.1589
 31
0.0
  0
LINE
  8
0
 62
     0
 10
216.789
 20
22.1589
 30
0.0
 11
215.988
 21
22.1589
 31
0.0
  0
LINE
  8
0
 62
     0
 10
215.988
 20
22.1589
 30
0.0
 11
215.988
 21
19.0596
 31
0.0
  0
LINE
  8
0
 62
     0
 10
215.988
 20
19.0596
 30
0.0
 11
216.789
 21
19.0596
 31
0.0
  0
LINE
  8
0
 62
     0
 10
216.789
 20
19.0596
 30
0.0
 11
216.789
 21
13.2595
 31
0.0
  0
LINE
  8
0
 62
     0
 10
216.789
 20
13.2595
 30
0.0
 11
215.988
 21
13.2595
 31
0.0
  0
LINE
  8
0
 62
     0
 10
215.988
 20
13.2595
 30
0.0
 11
215.988
 21
10.1589
 31
0.0
  0
LINE
  8
0
 62
     0
 10
215.988
 20
10.1589
 30
0.0
 11
216.789
 21
10.1589
 31
0.0
  0
LINE
  8
0
 62
     0
 10
216.789
 20
10.1589
 30
0.0
 11
216.789
 21
9.1598
 31
0.0
  0
LINE
  8
0
 62
     0
 10
216.789
 20
9.1598
 30
0.0
 11
230.788
 21
9.1598
 31
0.0
  0
LINE
  8
0
 62
     0
 10
230.788
 20
9.1598
 30
0.0
 11
230.788
 21
10.1589
 31
0.0
  0
LINE
  8
0
 62
     0
 10
230.788
 20
10.1589
 30
0.0
 11
231.589
 21
10.1589
 31
0.0
  0
LINE
  8
0
 62
     0
 10
231.589
 20
10.1589
 30
0.0
 11
231.589
 21
13.2595
 31
0.0
  0
LINE
  8
0
 62
     0
 10
231.589
 20
13.2595
 30
0.0
 11
230.788
 21
13.2595
 31
0.0
  0
LINE
  8
0
 62
     0
 10
230.788
 20
13.2595
 30
0.0
 11
230.788
 21
19.0596
 31
0.0
  0
LINE
  8
0
 62
     0
 10
230.788
 20
19.0596
 30
0.0
 11
231.589
 21
19.0596
 31
0.0
  0
LINE
  8
0
 62
     0
 10
231.589
 20
19.0596
 30
0.0
 11
231.589
 21
22.1589
 31
0.0
  0
LINE
  8
0
 62
     0
 10
231.589
 20
22.1589
 30
0.0
 11
230.788
 21
22.1589
 31
0.0
  0
LINE
  8
0
 62
     0
 10
230.788
 20
22.1589
 30
0.0
 11
230.788
 21
23.1593
 31
0.0
  0
LINE
  8
0
 62
     0
 10
230.788
 20
23.1593
 30
0.0
 11
216.789
 21
23.1593
 31
0.0
  0
LINE
  8
0
 62
     0
 10
247.745
 20
23.1593
 30
0.0
 11
247.745
 21
22.1589
 31
0.0
  0
LINE
  8
0
 62
     0
 10
247.745
 20
22.1589
 30
0.0
 11
246.944
 21
22.1589
 31
0.0
  0
LINE
  8
0
 62
     0
 10
246.944
 20
22.1589
 30
0.0
 11
246.944
 21
19.0596
 31
0.0
  0
LINE
  8
0
 62
     0
 10
246.944
 20
19.0596
 30
0.0
 11
247.745
 21
19.0596
 31
0.0
  0
LINE
  8
0
 62
     0
 10
247.745
 20
19.0596
 30
0.0
 11
247.745
 21
13.2595
 31
0.0
  0
LINE
  8
0
 62
     0
 10
247.745
 20
13.2595
 30
0.0
 11
246.944
 21
13.2595
 31
0.0
  0
LINE
  8
0
 62
     0
 10
246.944
 20
13.2595
 30
0.0
 11
246.944
 21
10.1589
 31
0.0
  0
LINE
  8
0
 62
     0
 10
246.944
 20
10.1589
 30
0.0
 11
247.745
 21
10.1589
 31
0.0
  0
LINE
  8
0
 62
     0
 10
247.745
 20
10.1589
 30
0.0
 11
247.745
 21
9.1598
 31
0.0
  0
LINE
  8
0
 62
     0
 10
247.745
 20
9.1598
 30
0.0
 11
261.746
 21
9.1598
 31
0.0
  0
LINE
  8
0
 62
     0
 10
261.746
 20
9.1598
 30
0.0
 11
261.746
 21
10.1589
 31
0.0
  0
LINE
  8
0
 62
     0
 10
261.746
 20
10.1589
 30
0.0
 11
262.545
 21
10.1589
 31
0.0
  0
LINE
  8
0
 62
     0
 10
262.545
 20
10.1589
 30
0.0
 11
262.545
 21
13.2595
 31
0.0
  0
LINE
  8
0
 62
     0
 10
262.545
 20
13.2595
 30
0.0
 11
261.746
 21
13.2595
 31
0.0
  0
LINE
  8
0
 62
     0
 10
261.746
 20
13.2595
 30
0.0
 11
261.746
 21
19.0596
 31
0.0
  0
LINE
  8
0
 62
     0
 10
261.746
 20
19.0596
 30
0.0
 11
262.545
 21
19.0596
 31
0.0
  0
LINE
  8
0
 62
     0
 10
262.545
 20
19.0596
 30
0.0
 11
262.545
 21
22.1589
 31
0.0
  0
LINE
  8
0
 62
     0
 10
262.545
 20
22.1589
 30
0.0
 11
261.746
 21
22.1589
 31
0.0
  0
LINE
  8
0
 62
     0
 10
261.746
 20
22.1589
 30
0.0
 11
261.746
 21
23.1593
 31
0.0
  0
LINE
  8
0
 62
     0
 10
261.746
 20
23.1593
 30
0.0
 11
247.745
 21
23.1593
 31
0.0
  0
LINE
  8
0
 62
     0
 10
266.795
 20
23.1593
 30
0.0
 11
266.795
 21
22.1589
 31
0.0
  0
LINE
  8
0
 62
     0
 10
266.795
 20
22.1589
 30
0.0
 11
265.996
 21
22.1589
 31
0.0
  0
LINE
  8
0
 62
     0
 10
265.996
 20
22.1589
 30
0.0
 11
265.996
 21
19.0596
 31
0.0
  0
LINE
  8
0
 62
     0
 10
265.996
 20
19.0596
 30
0.0
 11
266.795
 21
19.0596
 31
0.0
  0
LINE
  8
0
 62
     0
 10
266.795
 20
19.0596
 30
0.0
 11
266.795
 21
13.2595
 31
0.0
  0
LINE
  8
0
 62
     0
 10
266.795
 20
13.2595
 30
0.0
 11
265.996
 21
13.2595
 31
0.0
  0
LINE
  8
0
 62
     0
 10
265.996
 20
13.2595
 30
0.0
 11
265.996
 21
10.1589
 31
0.0
  0
LINE
  8
0
 62
     0
 10
265.996
 20
10.1589
 30
0.0
 11
266.795
 21
10.1589
 31
0.0
  0
LINE
  8
0
 62
     0
 10
266.795
 20
10.1589
 30
0.0
 11
266.795
 21
9.1598
 31
0.0
  0
LINE
  8
0
 62
     0
 10
266.795
 20
9.1598
 30
0.0
 11
280.796
 21
9.1598
 31
0.0
  0
LINE
  8
0
 62
     0
 10
280.796
 20
9.1598
 30
0.0
 11
280.796
 21
10.1589
 31
0.0
  0
LINE
  8
0
 62
     0
 10
280.796
 20
10.1589
 30
0.0
 11
281.595
 21
10.1589
 31
0.0
  0
LINE
  8
0
 62
     0
 10
281.595
 20
10.1589
 30
0.0
 11
281.595
 21
13.2595
 31
0.0
  0
LINE
  8
0
 62
     0
 10
281.595
 20
13.2595
 30
0.0
 11
280.796
 21
13.2595
 31
0.0
  0
LINE
  8
0
 62
     0
 10
280.796
 20
13.2595
 30
0.0
 11
280.796
 21
19.0596
 31
0.0
  0
LINE
  8
0
 62
     0
 10
280.796
 20
19.0596
 30
0.0
 11
281.595
 21
19.0596
 31
0.0
  0
LINE
  8
0
 62
     0
 10
281.595
 20
19.0596
 30
0.0
 11
281.595
 21
22.1589
 31
0.0
  0
LINE
  8
0
 62
     0
 10
281.595
 20
22.1589
 30
0.0
 11
280.796
 21
22.1589
 31
0.0
  0
LINE
  8
0
 62
     0
 10
280.796
 20
22.1589
 30
0.0
 11
280.796
 21
23.1593
 31
0.0
  0
LINE
  8
0
 62
     0
 10
280.796
 20
23.1593
 30
0.0
 11
266.795
 21
23.1593
 31
0.0
  0
LINE
  8
0
 62
     0
 10
285.845
 20
23.1593
 30
0.0
 11
285.845
 21
22.1589
 31
0.0
  0
LINE
  8
0
 62
     0
 10
285.845
 20
22.1589
 30
0.0
 11
285.046
 21
22.1589
 31
0.0
  0
LINE
  8
0
 62
     0
 10
285.046
 20
22.1589
 30
0.0
 11
285.046
 21
19.0596
 31
0.0
  0
LINE
  8
0
 62
     0
 10
285.046
 20
19.0596
 30
0.0
 11
285.845
 21
19.0596
 31
0.0
  0
LINE
  8
0
 62
     0
 10
285.845
 20
19.0596
 30
0.0
 11
285.845
 21
13.2595
 31
0.0
  0
LINE
  8
0
 62
     0
 10
285.845
 20
13.2595
 30
0.0
 11
285.046
 21
13.2595
 31
0.0
  0
LINE
  8
0
 62
     0
 10
285.046
 20
13.2595
 30
0.0
 11
285.046
 21
10.1589
 31
0.0
  0
LINE
  8
0
 62
     0
 10
285.046
 20
10.1589
 30
0.0
 11
285.845
 21
10.1589
 31
0.0
  0
LINE
  8
0
 62
     0
 10
285.845
 20
10.1589
 30
0.0
 11
285.845
 21
9.1598
 31
0.0
  0
LINE
  8
0
 62
     0
 10
285.845
 20
9.1598
 30
0.0
 11
299.846
 21
9.1598
 31
0.0
  0
LINE
  8
0
 62
     0
 10
299.846
 20
9.1598
 30
0.0
 11
299.846
 21
10.1589
 31
0.0
  0
LINE
  8
0
 62
     0
 10
299.846
 20
10.1589
 30
0.0
 11
300.645
 21
10.1589
 31
0.0
  0
LINE
  8
0
 62
     0
 10
300.645
 20
10.1589
 30
0.0
 11
300.645
 21
13.2595
 31
0.0
  0
LINE
  8
0
 62
     0
 10
300.645
 20
13.2595
 30
0.0
 11
299.846
 21
13.2595
 31
0.0
  0
LINE
  8
0
 62
     0
 10
299.846
 20
13.2595
 30
0.0
 11
299.846
 21
19.0596
 31
0.0
  0
LINE
  8
0
 62
     0
 10
299.846
 20
19.0596
 30
0.0
 11
300.645
 21
19.0596
 31
0.0
  0
LINE
  8
0
 62
     0
 10
300.645
 20
19.0596
 30
0.0
 11
300.645
 21
22.1589
 31
0.0
  0
LINE
  8
0
 62
     0
 10
300.645
 20
22.1589
 30
0.0
 11
299.846
 21
22.1589
 31
0.0
  0
LINE
  8
0
 62
     0
 10
299.846
 20
22.1589
 30
0.0
 11
299.846
 21
23.1593
 31
0.0
  0
LINE
  8
0
 62
     0
 10
299.846
 20
23.1593
 30
0.0
 11
285.845
 21
23.1593
 31
0.0
  0
LINE
  8
0
 62
     0
 10
16.7638
 20
42.2092
 30
0.0
 11
16.7638
 21
41.209
 31
0.0
  0
LINE
  8
0
 62
     0
 10
16.7638
 20
41.209
 30
0.0
 11
15.9632
 21
41.209
 31
0.0
  0
LINE
  8
0
 62
     0
 10
15.9632
 20
41.209
 30
0.0
 11
15.9632
 21
38.1095
 31
0.0
  0
LINE
  8
0
 62
     0
 10
15.9632
 20
38.1095
 30
0.0
 11
16.7638
 21
38.1095
 31
0.0
  0
LINE
  8
0
 62
     0
 10
16.7638
 20
38.1095
 30
0.0
 11
16.7638
 21
32.3095
 31
0.0
  0
LINE
  8
0
 62
     0
 10
16.7638
 20
32.3095
 30
0.0
 11
15.9632
 21
32.3095
 31
0.0
  0
LINE
  8
0
 62
     0
 10
15.9632
 20
32.3095
 30
0.0
 11
15.9632
 21
29.2089
 31
0.0
  0
LINE
  8
0
 62
     0
 10
15.9632
 20
29.2089
 30
0.0
 11
16.7638
 21
29.2089
 31
0.0
  0
LINE
  8
0
 62
     0
 10
16.7638
 20
29.2089
 30
0.0
 11
16.7638
 21
28.2098
 31
0.0
  0
LINE
  8
0
 62
     0
 10
16.7638
 20
28.2098
 30
0.0
 11
30.7633
 21
28.2098
 31
0.0
  0
LINE
  8
0
 62
     0
 10
30.7633
 20
28.2098
 30
0.0
 11
30.7633
 21
29.2089
 31
0.0
  0
LINE
  8
0
 62
     0
 10
30.7633
 20
29.2089
 30
0.0
 11
31.564
 21
29.2089
 31
0.0
  0
LINE
  8
0
 62
     0
 10
31.564
 20
29.2089
 30
0.0
 11
31.564
 21
32.3095
 31
0.0
  0
LINE
  8
0
 62
     0
 10
31.564
 20
32.3095
 30
0.0
 11
30.7633
 21
32.3095
 31
0.0
  0
LINE
  8
0
 62
     0
 10
30.7633
 20
32.3095
 30
0.0
 11
30.7633
 21
38.1095
 31
0.0
  0
LINE
  8
0
 62
     0
 10
30.7633
 20
38.1095
 30
0.0
 11
31.564
 21
38.1095
 31
0.0
  0
LINE
  8
0
 62
     0
 10
31.564
 20
38.1095
 30
0.0
 11
31.564
 21
41.209
 31
0.0
  0
LINE
  8
0
 62
     0
 10
31.564
 20
41.209
 30
0.0
 11
30.7633
 21
41.209
 31
0.0
  0
LINE
  8
0
 62
     0
 10
30.7633
 20
41.209
 30
0.0
 11
30.7633
 21
42.2092
 31
0.0
  0
LINE
  8
0
 62
     0
 10
30.7633
 20
42.2092
 30
0.0
 11
16.7638
 21
42.2092
 31
0.0
  0
LINE
  8
0
 62
     0
 10
42.9577
 20
42.2092
 30
0.0
 11
42.9577
 21
41.209
 31
0.0
  0
LINE
  8
0
 62
     0
 10
42.9577
 20
41.209
 30
0.0
 11
42.1569
 21
41.209
 31
0.0
  0
LINE
  8
0
 62
     0
 10
42.1569
 20
41.209
 30
0.0
 11
42.1569
 21
38.1095
 31
0.0
  0
LINE
  8
0
 62
     0
 10
42.1569
 20
38.1095
 30
0.0
 11
42.9577
 21
38.1095
 31
0.0
  0
LINE
  8
0
 62
     0
 10
42.9577
 20
38.1095
 30
0.0
 11
42.9577
 21
32.3095
 31
0.0
  0
LINE
  8
0
 62
     0
 10
42.9577
 20
32.3095
 30
0.0
 11
42.1569
 21
32.3095
 31
0.0
  0
LINE
  8
0
 62
     0
 10
42.1569
 20
32.3095
 30
0.0
 11
42.1569
 21
29.2089
 31
0.0
  0
LINE
  8
0
 62
     0
 10
42.1569
 20
29.2089
 30
0.0
 11
42.9577
 21
29.2089
 31
0.0
  0
LINE
  8
0
 62
     0
 10
42.9577
 20
29.2089
 30
0.0
 11
42.9577
 21
28.2098
 31
0.0
  0
LINE
  8
0
 62
     0
 10
42.9577
 20
28.2098
 30
0.0
 11
56.957
 21
28.2098
 31
0.0
  0
LINE
  8
0
 62
     0
 10
56.957
 20
28.2098
 30
0.0
 11
56.957
 21
29.2089
 31
0.0
  0
LINE
  8
0
 62
     0
 10
56.957
 20
29.2089
 30
0.0
 11
57.7578
 21
29.2089
 31
0.0
  0
LINE
  8
0
 62
     0
 10
57.7578
 20
29.2089
 30
0.0
 11
57.7578
 21
32.3095
 31
0.0
  0
LINE
  8
0
 62
     0
 10
57.7578
 20
32.3095
 30
0.0
 11
56.957
 21
32.3095
 31
0.0
  0
LINE
  8
0
 62
     0
 10
56.957
 20
32.3095
 30
0.0
 11
56.957
 21
38.1095
 31
0.0
  0
LINE
  8
0
 62
     0
 10
56.957
 20
38.1095
 30
0.0
 11
57.7578
 21
38.1095
 31
0.0
  0
LINE
  8
0
 62
     0
 10
57.7578
 20
38.1095
 30
0.0
 11
57.7578
 21
41.209
 31
0.0
  0
LINE
  8
0
 62
     0
 10
57.7578
 20
41.209
 30
0.0
 11
56.957
 21
41.209
 31
0.0
  0
LINE
  8
0
 62
     0
 10
56.957
 20
41.209
 30
0.0
 11
56.957
 21
42.2092
 31
0.0
  0
LINE
  8
0
 62
     0
 10
56.957
 20
42.2092
 30
0.0
 11
42.9577
 21
42.2092
 31
0.0
  0
LINE
  8
0
 62
     0
 10
62.0078
 20
42.2092
 30
0.0
 11
62.0078
 21
41.209
 31
0.0
  0
LINE
  8
0
 62
     0
 10
62.0078
 20
41.209
 30
0.0
 11
61.2069
 21
41.209
 31
0.0
  0
LINE
  8
0
 62
     0
 10
61.2069
 20
41.209
 30
0.0
 11
61.2069
 21
38.1095
 31
0.0
  0
LINE
  8
0
 62
     0
 10
61.2069
 20
38.1095
 30
0.0
 11
62.0078
 21
38.1095
 31
0.0
  0
LINE
  8
0
 62
     0
 10
62.0078
 20
38.1095
 30
0.0
 11
62.0078
 21
32.3095
 31
0.0
  0
LINE
  8
0
 62
     0
 10
62.0078
 20
32.3095
 30
0.0
 11
61.2069
 21
32.3095
 31
0.0
  0
LINE
  8
0
 62
     0
 10
61.2069
 20
32.3095
 30
0.0
 11
61.2069
 21
29.2089
 31
0.0
  0
LINE
  8
0
 62
     0
 10
61.2069
 20
29.2089
 30
0.0
 11
62.0078
 21
29.2089
 31
0.0
  0
LINE
  8
0
 62
     0
 10
62.0078
 20
29.2089
 30
0.0
 11
62.0078
 21
28.2098
 31
0.0
  0
LINE
  8
0
 62
     0
 10
62.0078
 20
28.2098
 30
0.0
 11
76.007
 21
28.2098
 31
0.0
  0
LINE
  8
0
 62
     0
 10
76.007
 20
28.2098
 30
0.0
 11
76.007
 21
29.2089
 31
0.0
  0
LINE
  8
0
 62
     0
 10
76.007
 20
29.2089
 30
0.0
 11
76.8078
 21
29.2089
 31
0.0
  0
LINE
  8
0
 62
     0
 10
76.8078
 20
29.2089
 30
0.0
 11
76.8078
 21
32.3095
 31
0.0
  0
LINE
  8
0
 62
     0
 10
76.8078
 20
32.3095
 30
0.0
 11
76.007
 21
32.3095
 31
0.0
  0
LINE
  8
0
 62
     0
 10
76.007
 20
32.3095
 30
0.0
 11
76.007
 21
38.1095
 31
0.0
  0
LINE
  8
0
 62
     0
 10
76.007
 20
38.1095
 30
0.0
 11
76.8078
 21
38.1095
 31
0.0
  0
LINE
  8
0
 62
     0
 10
76.8078
 20
38.1095
 30
0.0
 11
76.8078
 21
41.209
 31
0.0
  0
LINE
  8
0
 62
     0
 10
76.8078
 20
41.209
 30
0.0
 11
76.007
 21
41.209
 31
0.0
  0
LINE
  8
0
 62
     0
 10
76.007
 20
41.209
 30
0.0
 11
76.007
 21
42.2092
 31
0.0
  0
LINE
  8
0
 62
     0
 10
76.007
 20
42.2092
 30
0.0
 11
62.0078
 21
42.2092
 31
0.0
  0
LINE
  8
0
 62
     0
 10
81.0578
 20
42.2092
 30
0.0
 11
81.0578
 21
41.209
 31
0.0
  0
LINE
  8
0
 62
     0
 10
81.0578
 20
41.209
 30
0.0
 11
80.2569
 21
41.209
 31
0.0
  0
LINE
  8
0
 62
     0
 10
80.2569
 20
41.209
 30
0.0
 11
80.2569
 21
38.1095
 31
0.0
  0
LINE
  8
0
 62
     0
 10
80.2569
 20
38.1095
 30
0.0
 11
81.0578
 21
38.1095
 31
0.0
  0
LINE
  8
0
 62
     0
 10
81.0578
 20
38.1095
 30
0.0
 11
81.0578
 21
32.3095
 31
0.0
  0
LINE
  8
0
 62
     0
 10
81.0578
 20
32.3095
 30
0.0
 11
80.2569
 21
32.3095
 31
0.0
  0
LINE
  8
0
 62
     0
 10
80.2569
 20
32.3095
 30
0.0
 11
80.2569
 21
29.2089
 31
0.0
  0
LINE
  8
0
 62
     0
 10
80.2569
 20
29.2089
 30
0.0
 11
81.0578
 21
29.2089
 31
0.0
  0
LINE
  8
0
 62
     0
 10
81.0578
 20
29.2089
 30
0.0
 11
81.0578
 21
28.2098
 31
0.0
  0
LINE
  8
0
 62
     0
 10
81.0578
 20
28.2098
 30
0.0
 11
95.057
 21
28.2098
 31
0.0
  0
LINE
  8
0
 62
     0
 10
95.057
 20
28.2098
 30
0.0
 11
95.057
 21
29.2089
 31
0.0
  0
LINE
  8
0
 62
     0
 10
95.057
 20
29.2089
 30
0.0
 11
95.8578
 21
29.2089
 31
0.0
  0
LINE
  8
0
 62
     0
 10
95.8578
 20
29.2089
 30
0.0
 11
95.8578
 21
32.3095
 31
0.0
  0
LINE
  8
0
 62
     0
 10
95.8578
 20
32.3095
 30
0.0
 11
95.057
 21
32.3095
 31
0.0
  0
LINE
  8
0
 62
     0
 10
95.057
 20
32.3095
 30
0.0
 11
95.057
 21
38.1095
 31
0.0
  0
LINE
  8
0
 62
     0
 10
95.057
 20
38.1095
 30
0.0
 11
95.8578
 21
38.1095
 31
0.0
  0
LINE
  8
0
 62
     0
 10
95.8578
 20
38.1095
 30
0.0
 11
95.8578
 21
41.209
 31
0.0
  0
LINE
  8
0
 62
     0
 10
95.8578
 20
41.209
 30
0.0
 11
95.057
 21
41.209
 31
0.0
  0
LINE
  8
0
 62
     0
 10
95.057
 20
41.209
 30
0.0
 11
95.057
 21
42.2092
 31
0.0
  0
LINE
  8
0
 62
     0
 10
95.057
 20
42.2092
 30
0.0
 11
81.0578
 21
42.2092
 31
0.0
  0
LINE
  8
0
 62
     0
 10
100.108
 20
42.2092
 30
0.0
 11
100.108
 21
41.209
 31
0.0
  0
LINE
  8
0
 62
     0
 10
100.108
 20
41.209
 30
0.0
 11
99.3069
 21
41.209
 31
0.0
  0
LINE
  8
0
 62
     0
 10
99.3069
 20
41.209
 30
0.0
 11
99.3069
 21
38.1095
 31
0.0
  0
LINE
  8
0
 62
     0
 10
99.3069
 20
38.1095
 30
0.0
 11
100.108
 21
38.1095
 31
0.0
  0
LINE
  8
0
 62
     0
 10
100.108
 20
38.1095
 30
0.0
 11
100.108
 21
32.3095
 31
0.0
  0
LINE
  8
0
 62
     0
 10
100.108
 20
32.3095
 30
0.0
 11
99.3069
 21
32.3095
 31
0.0
  0
LINE
  8
0
 62
     0
 10
99.3069
 20
32.3095
 30
0.0
 11
99.3069
 21
29.2089
 31
0.0
  0
LINE
  8
0
 62
     0
 10
99.3069
 20
29.2089
 30
0.0
 11
100.108
 21
29.2089
 31
0.0
  0
LINE
  8
0
 62
     0
 10
100.108
 20
29.2089
 30
0.0
 11
100.108
 21
28.2098
 31
0.0
  0
LINE
  8
0
 62
     0
 10
100.108
 20
28.2098
 30
0.0
 11
114.107
 21
28.2098
 31
0.0
  0
LINE
  8
0
 62
     0
 10
114.107
 20
28.2098
 30
0.0
 11
114.107
 21
29.2089
 31
0.0
  0
LINE
  8
0
 62
     0
 10
114.107
 20
29.2089
 30
0.0
 11
114.908
 21
29.2089
 31
0.0
  0
LINE
  8
0
 62
     0
 10
114.908
 20
29.2089
 30
0.0
 11
114.908
 21
32.3095
 31
0.0
  0
LINE
  8
0
 62
     0
 10
114.908
 20
32.3095
 30
0.0
 11
114.107
 21
32.3095
 31
0.0
  0
LINE
  8
0
 62
     0
 10
114.107
 20
32.3095
 30
0.0
 11
114.107
 21
38.1095
 31
0.0
  0
LINE
  8
0
 62
     0
 10
114.107
 20
38.1095
 30
0.0
 11
114.908
 21
38.1095
 31
0.0
  0
LINE
  8
0
 62
     0
 10
114.908
 20
38.1095
 30
0.0
 11
114.908
 21
41.209
 31
0.0
  0
LINE
  8
0
 62
     0
 10
114.908
 20
41.209
 30
0.0
 11
114.107
 21
41.209
 31
0.0
  0
LINE
  8
0
 62
     0
 10
114.107
 20
41.209
 30
0.0
 11
114.107
 21
42.2092
 31
0.0
  0
LINE
  8
0
 62
     0
 10
114.107
 20
42.2092
 30
0.0
 11
100.108
 21
42.2092
 31
0.0
  0
LINE
  8
0
 62
     0
 10
119.158
 20
42.2092
 30
0.0
 11
119.158
 21
41.209
 31
0.0
  0
LINE
  8
0
 62
     0
 10
119.158
 20
41.209
 30
0.0
 11
118.357
 21
41.209
 31
0.0
  0
LINE
  8
0
 62
     0
 10
118.357
 20
41.209
 30
0.0
 11
118.357
 21
38.1095
 31
0.0
  0
LINE
  8
0
 62
     0
 10
118.357
 20
38.1095
 30
0.0
 11
119.158
 21
38.1095
 31
0.0
  0
LINE
  8
0
 62
     0
 10
119.158
 20
38.1095
 30
0.0
 11
119.158
 21
32.3095
 31
0.0
  0
LINE
  8
0
 62
     0
 10
119.158
 20
32.3095
 30
0.0
 11
118.357
 21
32.3095
 31
0.0
  0
LINE
  8
0
 62
     0
 10
118.357
 20
32.3095
 30
0.0
 11
118.357
 21
29.2089
 31
0.0
  0
LINE
  8
0
 62
     0
 10
118.357
 20
29.2089
 30
0.0
 11
119.158
 21
29.2089
 31
0.0
  0
LINE
  8
0
 62
     0
 10
119.158
 20
29.2089
 30
0.0
 11
119.158
 21
28.2098
 31
0.0
  0
LINE
  8
0
 62
     0
 10
119.158
 20
28.2098
 30
0.0
 11
133.157
 21
28.2098
 31
0.0
  0
LINE
  8
0
 62
     0
 10
133.157
 20
28.2098
 30
0.0
 11
133.157
 21
29.2089
 31
0.0
  0
LINE
  8
0
 62
     0
 10
133.157
 20
29.2089
 30
0.0
 11
133.958
 21
29.2089
 31
0.0
  0
LINE
  8
0
 62
     0
 10
133.958
 20
29.2089
 30
0.0
 11
133.958
 21
32.3095
 31
0.0
  0
LINE
  8
0
 62
     0
 10
133.958
 20
32.3095
 30
0.0
 11
133.157
 21
32.3095
 31
0.0
  0
LINE
  8
0
 62
     0
 10
133.157
 20
32.3095
 30
0.0
 11
133.157
 21
38.1095
 31
0.0
  0
LINE
  8
0
 62
     0
 10
133.157
 20
38.1095
 30
0.0
 11
133.958
 21
38.1095
 31
0.0
  0
LINE
  8
0
 62
     0
 10
133.958
 20
38.1095
 30
0.0
 11
133.958
 21
41.209
 31
0.0
  0
LINE
  8
0
 62
     0
 10
133.958
 20
41.209
 30
0.0
 11
133.157
 21
41.209
 31
0.0
  0
LINE
  8
0
 62
     0
 10
133.157
 20
41.209
 30
0.0
 11
133.157
 21
42.2092
 31
0.0
  0
LINE
  8
0
 62
     0
 10
133.157
 20
42.2092
 30
0.0
 11
119.158
 21
42.2092
 31
0.0
  0
LINE
  8
0
 62
     0
 10
138.208
 20
42.2092
 30
0.0
 11
138.208
 21
41.209
 31
0.0
  0
LINE
  8
0
 62
     0
 10
138.208
 20
41.209
 30
0.0
 11
137.407
 21
41.209
 31
0.0
  0
LINE
  8
0
 62
     0
 10
137.407
 20
41.209
 30
0.0
 11
137.407
 21
38.1095
 31
0.0
  0
LINE
  8
0
 62
     0
 10
137.407
 20
38.1095
 30
0.0
 11
138.208
 21
38.1095
 31
0.0
  0
LINE
  8
0
 62
     0
 10
138.208
 20
38.1095
 30
0.0
 11
138.208
 21
32.3095
 31
0.0
  0
LINE
  8
0
 62
     0
 10
138.208
 20
32.3095
 30
0.0
 11
137.407
 21
32.3095
 31
0.0
  0
LINE
  8
0
 62
     0
 10
137.407
 20
32.3095
 30
0.0
 11
137.407
 21
29.2089
 31
0.0
  0
LINE
  8
0
 62
     0
 10
137.407
 20
29.2089
 30
0.0
 11
138.208
 21
29.2089
 31
0.0
  0
LINE
  8
0
 62
     0
 10
138.208
 20
29.2089
 30
0.0
 11
138.208
 21
28.2098
 31
0.0
  0
LINE
  8
0
 62
     0
 10
138.208
 20
28.2098
 30
0.0
 11
152.207
 21
28.2098
 31
0.0
  0
LINE
  8
0
 62
     0
 10
152.207
 20
28.2098
 30
0.0
 11
152.207
 21
29.2089
 31
0.0
  0
LINE
  8
0
 62
     0
 10
152.207
 20
29.2089
 30
0.0
 11
153.008
 21
29.2089
 31
0.0
  0
LINE
  8
0
 62
     0
 10
153.008
 20
29.2089
 30
0.0
 11
153.008
 21
32.3095
 31
0.0
  0
LINE
  8
0
 62
     0
 10
153.008
 20
32.3095
 30
0.0
 11
152.207
 21
32.3095
 31
0.0
  0
LINE
  8
0
 62
     0
 10
152.207
 20
32.3095
 30
0.0
 11
152.207
 21
38.1095
 31
0.0
  0
LINE
  8
0
 62
     0
 10
152.207
 20
38.1095
 30
0.0
 11
153.008
 21
38.1095
 31
0.0
  0
LINE
  8
0
 62
     0
 10
153.008
 20
38.1095
 30
0.0
 11
153.008
 21
41.209
 31
0.0
  0
LINE
  8
0
 62
     0
 10
153.008
 20
41.209
 30
0.0
 11
152.207
 21
41.209
 31
0.0
  0
LINE
  8
0
 62
     0
 10
152.207
 20
41.209
 30
0.0
 11
152.207
 21
42.2092
 31
0.0
  0
LINE
  8
0
 62
     0
 10
152.207
 20
42.2092
 30
0.0
 11
138.208
 21
42.2092
 31
0.0
  0
LINE
  8
0
 62
     0
 10
157.258
 20
42.2092
 30
0.0
 11
157.258
 21
41.209
 31
0.0
  0
LINE
  8
0
 62
     0
 10
157.258
 20
41.209
 30
0.0
 11
156.457
 21
41.209
 31
0.0
  0
LINE
  8
0
 62
     0
 10
156.457
 20
41.209
 30
0.0
 11
156.457
 21
38.1095
 31
0.0
  0
LINE
  8
0
 62
     0
 10
156.457
 20
38.1095
 30
0.0
 11
157.258
 21
38.1095
 31
0.0
  0
LINE
  8
0
 62
     0
 10
157.258
 20
38.1095
 30
0.0
 11
157.258
 21
32.3095
 31
0.0
  0
LINE
  8
0
 62
     0
 10
157.258
 20
32.3095
 30
0.0
 11
156.457
 21
32.3095
 31
0.0
  0
LINE
  8
0
 62
     0
 10
156.457
 20
32.3095
 30
0.0
 11
156.457
 21
29.2089
 31
0.0
  0
LINE
  8
0
 62
     0
 10
156.457
 20
29.2089
 30
0.0
 11
157.258
 21
29.2089
 31
0.0
  0
LINE
  8
0
 62
     0
 10
157.258
 20
29.2089
 30
0.0
 11
157.258
 21
28.2098
 31
0.0
  0
LINE
  8
0
 62
     0
 10
157.258
 20
28.2098
 30
0.0
 11
171.257
 21
28.2098
 31
0.0
  0
LINE
  8
0
 62
     0
 10
171.257
 20
28.2098
 30
0.0
 11
171.257
 21
29.2089
 31
0.0
  0
LINE
  8
0
 62
     0
 10
171.257
 20
29.2089
 30
0.0
 11
172.058
 21
29.2089
 31
0.0
  0
LINE
  8
0
 62
     0
 10
172.058
 20
29.2089
 30
0.0
 11
172.058
 21
32.3095
 31
0.0
  0
LINE
  8
0
 62
     0
 10
172.058
 20
32.3095
 30
0.0
 11
171.257
 21
32.3095
 31
0.0
  0
LINE
  8
0
 62
     0
 10
171.257
 20
32.3095
 30
0.0
 11
171.257
 21
38.1095
 31
0.0
  0
LINE
  8
0
 62
     0
 10
171.257
 20
38.1095
 30
0.0
 11
172.058
 21
38.1095
 31
0.0
  0
LINE
  8
0
 62
     0
 10
172.058
 20
38.1095
 30
0.0
 11
172.058
 21
41.209
 31
0.0
  0
LINE
  8
0
 62
     0
 10
172.058
 20
41.209
 30
0.0
 11
171.257
 21
41.209
 31
0.0
  0
LINE
  8
0
 62
     0
 10
171.257
 20
41.209
 30
0.0
 11
171.257
 21
42.2092
 31
0.0
  0
LINE
  8
0
 62
     0
 10
171.257
 20
42.2092
 30
0.0
 11
157.258
 21
42.2092
 31
0.0
  0
LINE
  8
0
 62
     0
 10
176.308
 20
42.2092
 30
0.0
 11
176.308
 21
41.209
 31
0.0
  0
LINE
  8
0
 62
     0
 10
176.308
 20
41.209
 30
0.0
 11
175.507
 21
41.209
 31
0.0
  0
LINE
  8
0
 62
     0
 10
175.507
 20
41.209
 30
0.0
 11
175.507
 21
38.1095
 31
0.0
  0
LINE
  8
0
 62
     0
 10
175.507
 20
38.1095
 30
0.0
 11
176.308
 21
38.1095
 31
0.0
  0
LINE
  8
0
 62
     0
 10
176.308
 20
38.1095
 30
0.0
 11
176.308
 21
32.3095
 31
0.0
  0
LINE
  8
0
 62
     0
 10
176.308
 20
32.3095
 30
0.0
 11
175.507
 21
32.3095
 31
0.0
  0
LINE
  8
0
 62
     0
 10
175.507
 20
32.3095
 30
0.0
 11
175.507
 21
29.2089
 31
0.0
  0
LINE
  8
0
 62
     0
 10
175.507
 20
29.2089
 30
0.0
 11
176.308
 21
29.2089
 31
0.0
  0
LINE
  8
0
 62
     0
 10
176.308
 20
29.2089
 30
0.0
 11
176.308
 21
28.2098
 31
0.0
  0
LINE
  8
0
 62
     0
 10
176.308
 20
28.2098
 30
0.0
 11
190.307
 21
28.2098
 31
0.0
  0
LINE
  8
0
 62
     0
 10
190.307
 20
28.2098
 30
0.0
 11
190.307
 21
29.2089
 31
0.0
  0
LINE
  8
0
 62
     0
 10
190.307
 20
29.2089
 30
0.0
 11
191.108
 21
29.2089
 31
0.0
  0
LINE
  8
0
 62
     0
 10
191.108
 20
29.2089
 30
0.0
 11
191.108
 21
32.3095
 31
0.0
  0
LINE
  8
0
 62
     0
 10
191.108
 20
32.3095
 30
0.0
 11
190.307
 21
32.3095
 31
0.0
  0
LINE
  8
0
 62
     0
 10
190.307
 20
32.3095
 30
0.0
 11
190.307
 21
38.1095
 31
0.0
  0
LINE
  8
0
 62
     0
 10
190.307
 20
38.1095
 30
0.0
 11
191.108
 21
38.1095
 31
0.0
  0
LINE
  8
0
 62
     0
 10
191.108
 20
38.1095
 30
0.0
 11
191.108
 21
41.209
 31
0.0
  0
LINE
  8
0
 62
     0
 10
191.108
 20
41.209
 30
0.0
 11
190.307
 21
41.209
 31
0.0
  0
LINE
  8
0
 62
     0
 10
190.307
 20
41.209
 30
0.0
 11
190.307
 21
42.2092
 31
0.0
  0
LINE
  8
0
 62
     0
 10
190.307
 20
42.2092
 30
0.0
 11
176.308
 21
42.2092
 31
0.0
  0
LINE
  8
0
 62
     0
 10
197.739
 20
42.2092
 30
0.0
 11
197.739
 21
41.209
 31
0.0
  0
LINE
  8
0
 62
     0
 10
197.739
 20
41.209
 30
0.0
 11
196.938
 21
41.209
 31
0.0
  0
LINE
  8
0
 62
     0
 10
196.938
 20
41.209
 30
0.0
 11
196.938
 21
38.1095
 31
0.0
  0
LINE
  8
0
 62
     0
 10
196.938
 20
38.1095
 30
0.0
 11
197.739
 21
38.1095
 31
0.0
  0
LINE
  8
0
 62
     0
 10
197.739
 20
38.1095
 30
0.0
 11
197.739
 21
32.3095
 31
0.0
  0
LINE
  8
0
 62
     0
 10
197.739
 20
32.3095
 30
0.0
 11
196.938
 21
32.3095
 31
0.0
  0
LINE
  8
0
 62
     0
 10
196.938
 20
32.3095
 30
0.0
 11
196.938
 21
29.2089
 31
0.0
  0
LINE
  8
0
 62
     0
 10
196.938
 20
29.2089
 30
0.0
 11
197.739
 21
29.2089
 31
0.0
  0
LINE
  8
0
 62
     0
 10
197.739
 20
29.2089
 30
0.0
 11
197.739
 21
28.2098
 31
0.0
  0
LINE
  8
0
 62
     0
 10
197.739
 20
28.2098
 30
0.0
 11
211.738
 21
28.2098
 31
0.0
  0
LINE
  8
0
 62
     0
 10
211.738
 20
28.2098
 30
0.0
 11
211.738
 21
29.2089
 31
0.0
  0
LINE
  8
0
 62
     0
 10
211.738
 20
29.2089
 30
0.0
 11
212.539
 21
29.2089
 31
0.0
  0
LINE
  8
0
 62
     0
 10
212.539
 20
29.2089
 30
0.0
 11
212.539
 21
32.3095
 31
0.0
  0
LINE
  8
0
 62
     0
 10
212.539
 20
32.3095
 30
0.0
 11
211.738
 21
32.3095
 31
0.0
  0
LINE
  8
0
 62
     0
 10
211.738
 20
32.3095
 30
0.0
 11
211.738
 21
38.1095
 31
0.0
  0
LINE
  8
0
 62
     0
 10
211.738
 20
38.1095
 30
0.0
 11
212.539
 21
38.1095
 31
0.0
  0
LINE
  8
0
 62
     0
 10
212.539
 20
38.1095
 30
0.0
 11
212.539
 21
41.209
 31
0.0
  0
LINE
  8
0
 62
     0
 10
212.539
 20
41.209
 30
0.0
 11
211.738
 21
41.209
 31
0.0
  0
LINE
  8
0
 62
     0
 10
211.738
 20
41.209
 30
0.0
 11
211.738
 21
42.2092
 31
0.0
  0
LINE
  8
0
 62
     0
 10
211.738
 20
42.2092
 30
0.0
 11
197.739
 21
42.2092
 31
0.0
  0
LINE
  8
0
 62
     0
 10
219.17
 20
42.2092
 30
0.0
 11
219.17
 21
41.209
 31
0.0
  0
LINE
  8
0
 62
     0
 10
219.17
 20
41.209
 30
0.0
 11
218.371
 21
41.209
 31
0.0
  0
LINE
  8
0
 62
     0
 10
218.371
 20
41.209
 30
0.0
 11
218.371
 21
38.1095
 31
0.0
  0
LINE
  8
0
 62
     0
 10
218.371
 20
38.1095
 30
0.0
 11
219.17
 21
38.1095
 31
0.0
  0
LINE
  8
0
 62
     0
 10
219.17
 20
38.1095
 30
0.0
 11
219.17
 21
32.3095
 31
0.0
  0
LINE
  8
0
 62
     0
 10
219.17
 20
32.3095
 30
0.0
 11
218.371
 21
32.3095
 31
0.0
  0
LINE
  8
0
 62
     0
 10
218.371
 20
32.3095
 30
0.0
 11
218.371
 21
29.2089
 31
0.0
  0
LINE
  8
0
 62
     0
 10
218.371
 20
29.2089
 30
0.0
 11
219.17
 21
29.2089
 31
0.0
  0
LINE
  8
0
 62
     0
 10
219.17
 20
29.2089
 30
0.0
 11
219.17
 21
28.2098
 31
0.0
  0
LINE
  8
0
 62
     0
 10
219.17
 20
28.2098
 30
0.0
 11
233.171
 21
28.2098
 31
0.0
  0
LINE
  8
0
 62
     0
 10
233.171
 20
28.2098
 30
0.0
 11
233.171
 21
29.2089
 31
0.0
  0
LINE
  8
0
 62
     0
 10
233.171
 20
29.2089
 30
0.0
 11
233.97
 21
29.2089
 31
0.0
  0
LINE
  8
0
 62
     0
 10
233.97
 20
29.2089
 30
0.0
 11
233.97
 21
32.3095
 31
0.0
  0
LINE
  8
0
 62
     0
 10
233.97
 20
32.3095
 30
0.0
 11
233.171
 21
32.3095
 31
0.0
  0
LINE
  8
0
 62
     0
 10
233.171
 20
32.3095
 30
0.0
 11
233.171
 21
38.1095
 31
0.0
  0
LINE
  8
0
 62
     0
 10
233.171
 20
38.1095
 30
0.0
 11
233.97
 21
38.1095
 31
0.0
  0
LINE
  8
0
 62
     0
 10
233.97
 20
38.1095
 30
0.0
 11
233.97
 21
41.209
 31
0.0
  0
LINE
  8
0
 62
     0
 10
233.97
 20
41.209
 30
0.0
 11
233.171
 21
41.209
 31
0.0
  0
LINE
  8
0
 62
     0
 10
233.171
 20
41.209
 30
0.0
 11
233.171
 21
42.2092
 31
0.0
  0
LINE
  8
0
 62
     0
 10
233.171
 20
42.2092
 30
0.0
 11
219.17
 21
42.2092
 31
0.0
  0
LINE
  8
0
 62
     0
 10
266.795
 20
42.2092
 30
0.0
 11
266.795
 21
41.209
 31
0.0
  0
LINE
  8
0
 62
     0
 10
266.795
 20
41.209
 30
0.0
 11
265.996
 21
41.209
 31
0.0
  0
LINE
  8
0
 62
     0
 10
265.996
 20
41.209
 30
0.0
 11
265.996
 21
38.1095
 31
0.0
  0
LINE
  8
0
 62
     0
 10
265.996
 20
38.1095
 30
0.0
 11
266.795
 21
38.1095
 31
0.0
  0
LINE
  8
0
 62
     0
 10
266.795
 20
38.1095
 30
0.0
 11
266.795
 21
32.3095
 31
0.0
  0
LINE
  8
0
 62
     0
 10
266.795
 20
32.3095
 30
0.0
 11
265.996
 21
32.3095
 31
0.0
  0
LINE
  8
0
 62
     0
 10
265.996
 20
32.3095
 30
0.0
 11
265.996
 21
29.2089
 31
0.0
  0
LINE
  8
0
 62
     0
 10
265.996
 20
29.2089
 30
0.0
 11
266.795
 21
29.2089
 31
0.0
  0
LINE
  8
0
 62
     0
 10
266.795
 20
29.2089
 30
0.0
 11
266.795
 21
28.2098
 31
0.0
  0
LINE
  8
0
 62
     0
 10
266.795
 20
28.2098
 30
0.0
 11
280.796
 21
28.2098
 31
0.0
  0
LINE
  8
0
 62
     0
 10
280.796
 20
28.2098
 30
0.0
 11
280.796
 21
29.2089
 31
0.0
  0
LINE
  8
0
 62
     0
 10
280.796
 20
29.2089
 30
0.0
 11
281.595
 21
29.2089
 31
0.0
  0
LINE
  8
0
 62
     0
 10
281.595
 20
29.2089
 30
0.0
 11
281.595
 21
32.3095
 31
0.0
  0
LINE
  8
0
 62
     0
 10
281.595
 20
32.3095
 30
0.0
 11
280.796
 21
32.3095
 31
0.0
  0
LINE
  8
0
 62
     0
 10
280.796
 20
32.3095
 30
0.0
 11
280.796
 21
38.1095
 31
0.0
  0
LINE
  8
0
 62
     0
 10
280.796
 20
38.1095
 30
0.0
 11
281.595
 21
38.1095
 31
0.0
  0
LINE
  8
0
 62
     0
 10
281.595
 20
38.1095
 30
0.0
 11
281.595
 21
41.209
 31
0.0
  0
LINE
  8
0
 62
     0
 10
281.595
 20
41.209
 30
0.0
 11
280.796
 21
41.209
 31
0.0
  0
LINE
  8
0
 62
     0
 10
280.796
 20
41.209
 30
0.0
 11
280.796
 21
42.2092
 31
0.0
  0
LINE
  8
0
 62
     0
 10
280.796
 20
42.2092
 30
0.0
 11
266.795
 21
42.2092
 31
0.0
  0
LINE
  8
0
 62
     0
 10
12.0013
 20
61.2592
 30
0.0
 11
12.0013
 21
60.259
 31
0.0
  0
LINE
  8
0
 62
     0
 10
12.0013
 20
60.259
 30
0.0
 11
11.2021
 21
60.259
 31
0.0
  0
LINE
  8
0
 62
     0
 10
11.2021
 20
60.259
 30
0.0
 11
11.2021
 21
57.1595
 31
0.0
  0
LINE
  8
0
 62
     0
 10
11.2021
 20
57.1595
 30
0.0
 11
12.0013
 21
57.1595
 31
0.0
  0
LINE
  8
0
 62
     0
 10
12.0013
 20
57.1595
 30
0.0
 11
12.0013
 21
51.3595
 31
0.0
  0
LINE
  8
0
 62
     0
 10
12.0013
 20
51.3595
 30
0.0
 11
11.2021
 21
51.3595
 31
0.0
  0
LINE
  8
0
 62
     0
 10
11.2021
 20
51.3595
 30
0.0
 11
11.2021
 21
48.2589
 31
0.0
  0
LINE
  8
0
 62
     0
 10
11.2021
 20
48.2589
 30
0.0
 11
12.0013
 21
48.2589
 31
0.0
  0
LINE
  8
0
 62
     0
 10
12.0013
 20
48.2589
 30
0.0
 11
12.0013
 21
47.2599
 31
0.0
  0
LINE
  8
0
 62
     0
 10
12.0013
 20
47.2599
 30
0.0
 11
26.0008
 21
47.2599
 31
0.0
  0
LINE
  8
0
 62
     0
 10
26.0008
 20
47.2599
 30
0.0
 11
26.0008
 21
48.2589
 31
0.0
  0
LINE
  8
0
 62
     0
 10
26.0008
 20
48.2589
 30
0.0
 11
26.8015
 21
48.2589
 31
0.0
  0
LINE
  8
0
 62
     0
 10
26.8015
 20
48.2589
 30
0.0
 11
26.8015
 21
51.3595
 31
0.0
  0
LINE
  8
0
 62
     0
 10
26.8015
 20
51.3595
 30
0.0
 11
26.0008
 21
51.3595
 31
0.0
  0
LINE
  8
0
 62
     0
 10
26.0008
 20
51.3595
 30
0.0
 11
26.0008
 21
57.1595
 31
0.0
  0
LINE
  8
0
 62
     0
 10
26.0008
 20
57.1595
 30
0.0
 11
26.8015
 21
57.1595
 31
0.0
  0
LINE
  8
0
 62
     0
 10
26.8015
 20
57.1595
 30
0.0
 11
26.8015
 21
60.259
 31
0.0
  0
LINE
  8
0
 62
     0
 10
26.8015
 20
60.259
 30
0.0
 11
26.0008
 21
60.259
 31
0.0
  0
LINE
  8
0
 62
     0
 10
26.0008
 20
60.259
 30
0.0
 11
26.0008
 21
61.2592
 31
0.0
  0
LINE
  8
0
 62
     0
 10
26.0008
 20
61.2592
 30
0.0
 11
12.0013
 21
61.2592
 31
0.0
  0
LINE
  8
0
 62
     0
 10
33.4326
 20
61.2592
 30
0.0
 11
33.4326
 21
60.259
 31
0.0
  0
LINE
  8
0
 62
     0
 10
33.4326
 20
60.259
 30
0.0
 11
32.6319
 21
60.259
 31
0.0
  0
LINE
  8
0
 62
     0
 10
32.6319
 20
60.259
 30
0.0
 11
32.6319
 21
57.1595
 31
0.0
  0
LINE
  8
0
 62
     0
 10
32.6319
 20
57.1595
 30
0.0
 11
33.4326
 21
57.1595
 31
0.0
  0
LINE
  8
0
 62
     0
 10
33.4326
 20
57.1595
 30
0.0
 11
33.4326
 21
51.3595
 31
0.0
  0
LINE
  8
0
 62
     0
 10
33.4326
 20
51.3595
 30
0.0
 11
32.6319
 21
51.3595
 31
0.0
  0
LINE
  8
0
 62
     0
 10
32.6319
 20
51.3595
 30
0.0
 11
32.6319
 21
48.2589
 31
0.0
  0
LINE
  8
0
 62
     0
 10
32.6319
 20
48.2589
 30
0.0
 11
33.4326
 21
48.2589
 31
0.0
  0
LINE
  8
0
 62
     0
 10
33.4326
 20
48.2589
 30
0.0
 11
33.4326
 21
47.2599
 31
0.0
  0
LINE
  8
0
 62
     0
 10
33.4326
 20
47.2599
 30
0.0
 11
47.432
 21
47.2599
 31
0.0
  0
LINE
  8
0
 62
     0
 10
47.432
 20
47.2599
 30
0.0
 11
47.432
 21
48.2589
 31
0.0
  0
LINE
  8
0
 62
     0
 10
47.432
 20
48.2589
 30
0.0
 11
48.2328
 21
48.2589
 31
0.0
  0
LINE
  8
0
 62
     0
 10
48.2328
 20
48.2589
 30
0.0
 11
48.2328
 21
51.3595
 31
0.0
  0
LINE
  8
0
 62
     0
 10
48.2328
 20
51.3595
 30
0.0
 11
47.432
 21
51.3595
 31
0.0
  0
LINE
  8
0
 62
     0
 10
47.432
 20
51.3595
 30
0.0
 11
47.432
 21
57.1595
 31
0.0
  0
LINE
  8
0
 62
     0
 10
47.432
 20
57.1595
 30
0.0
 11
48.2328
 21
57.1595
 31
0.0
  0
LINE
  8
0
 62
     0
 10
48.2328
 20
57.1595
 30
0.0
 11
48.2328
 21
60.259
 31
0.0
  0
LINE
  8
0
 62
     0
 10
48.2328
 20
60.259
 30
0.0
 11
47.432
 21
60.259
 31
0.0
  0
LINE
  8
0
 62
     0
 10
47.432
 20
60.259
 30
0.0
 11
47.432
 21
61.2592
 31
0.0
  0
LINE
  8
0
 62
     0
 10
47.432
 20
61.2592
 30
0.0
 11
33.4326
 21
61.2592
 31
0.0
  0
LINE
  8
0
 62
     0
 10
52.4828
 20
61.2592
 30
0.0
 11
52.4828
 21
60.259
 31
0.0
  0
LINE
  8
0
 62
     0
 10
52.4828
 20
60.259
 30
0.0
 11
51.6819
 21
60.259
 31
0.0
  0
LINE
  8
0
 62
     0
 10
51.6819
 20
60.259
 30
0.0
 11
51.6819
 21
57.1595
 31
0.0
  0
LINE
  8
0
 62
     0
 10
51.6819
 20
57.1595
 30
0.0
 11
52.4828
 21
57.1595
 31
0.0
  0
LINE
  8
0
 62
     0
 10
52.4828
 20
57.1595
 30
0.0
 11
52.4828
 21
51.3595
 31
0.0
  0
LINE
  8
0
 62
     0
 10
52.4828
 20
51.3595
 30
0.0
 11
51.6819
 21
51.3595
 31
0.0
  0
LINE
  8
0
 62
     0
 10
51.6819
 20
51.3595
 30
0.0
 11
51.6819
 21
48.2589
 31
0.0
  0
LINE
  8
0
 62
     0
 10
51.6819
 20
48.2589
 30
0.0
 11
52.4828
 21
48.2589
 31
0.0
  0
LINE
  8
0
 62
     0
 10
52.4828
 20
48.2589
 30
0.0
 11
52.4828
 21
47.2599
 31
0.0
  0
LINE
  8
0
 62
     0
 10
52.4828
 20
47.2599
 30
0.0
 11
66.482
 21
47.2599
 31
0.0
  0
LINE
  8
0
 62
     0
 10
66.482
 20
47.2599
 30
0.0
 11
66.482
 21
48.2589
 31
0.0
  0
LINE
  8
0
 62
     0
 10
66.482
 20
48.2589
 30
0.0
 11
67.2828
 21
48.2589
 31
0.0
  0
LINE
  8
0
 62
     0
 10
67.2828
 20
48.2589
 30
0.0
 11
67.2828
 21
51.3595
 31
0.0
  0
LINE
  8
0
 62
     0
 10
67.2828
 20
51.3595
 30
0.0
 11
66.482
 21
51.3595
 31
0.0
  0
LINE
  8
0
 62
     0
 10
66.482
 20
51.3595
 30
0.0
 11
66.482
 21
57.1595
 31
0.0
  0
LINE
  8
0
 62
     0
 10
66.482
 20
57.1595
 30
0.0
 11
67.2828
 21
57.1595
 31
0.0
  0
LINE
  8
0
 62
     0
 10
67.2828
 20
57.1595
 30
0.0
 11
67.2828
 21
60.259
 31
0.0
  0
LINE
  8
0
 62
     0
 10
67.2828
 20
60.259
 30
0.0
 11
66.482
 21
60.259
 31
0.0
  0
LINE
  8
0
 62
     0
 10
66.482
 20
60.259
 30
0.0
 11
66.482
 21
61.2592
 31
0.0
  0
LINE
  8
0
 62
     0
 10
66.482
 20
61.2592
 30
0.0
 11
52.4828
 21
61.2592
 31
0.0
  0
LINE
  8
0
 62
     0
 10
71.5328
 20
61.2592
 30
0.0
 11
71.5328
 21
60.259
 31
0.0
  0
LINE
  8
0
 62
     0
 10
71.5328
 20
60.259
 30
0.0
 11
70.7319
 21
60.259
 31
0.0
  0
LINE
  8
0
 62
     0
 10
70.7319
 20
60.259
 30
0.0
 11
70.7319
 21
57.1595
 31
0.0
  0
LINE
  8
0
 62
     0
 10
70.7319
 20
57.1595
 30
0.0
 11
71.5328
 21
57.1595
 31
0.0
  0
LINE
  8
0
 62
     0
 10
71.5328
 20
57.1595
 30
0.0
 11
71.5328
 21
51.3595
 31
0.0
  0
LINE
  8
0
 62
     0
 10
71.5328
 20
51.3595
 30
0.0
 11
70.7319
 21
51.3595
 31
0.0
  0
LINE
  8
0
 62
     0
 10
70.7319
 20
51.3595
 30
0.0
 11
70.7319
 21
48.2589
 31
0.0
  0
LINE
  8
0
 62
     0
 10
70.7319
 20
48.2589
 30
0.0
 11
71.5328
 21
48.2589
 31
0.0
  0
LINE
  8
0
 62
     0
 10
71.5328
 20
48.2589
 30
0.0
 11
71.5328
 21
47.2599
 31
0.0
  0
LINE
  8
0
 62
     0
 10
71.5328
 20
47.2599
 30
0.0
 11
85.532
 21
47.2599
 31
0.0
  0
LINE
  8
0
 62
     0
 10
85.532
 20
47.2599
 30
0.0
 11
85.532
 21
48.2589
 31
0.0
  0
LINE
  8
0
 62
     0
 10
85.532
 20
48.2589
 30
0.0
 11
86.3328
 21
48.2589
 31
0.0
  0
LINE
  8
0
 62
     0
 10
86.3328
 20
48.2589
 30
0.0
 11
86.3328
 21
51.3595
 31
0.0
  0
LINE
  8
0
 62
     0
 10
86.3328
 20
51.3595
 30
0.0
 11
85.532
 21
51.3595
 31
0.0
  0
LINE
  8
0
 62
     0
 10
85.532
 20
51.3595
 30
0.0
 11
85.532
 21
57.1595
 31
0.0
  0
LINE
  8
0
 62
     0
 10
85.532
 20
57.1595
 30
0.0
 11
86.3328
 21
57.1595
 31
0.0
  0
LINE
  8
0
 62
     0
 10
86.3328
 20
57.1595
 30
0.0
 11
86.3328
 21
60.259
 31
0.0
  0
LINE
  8
0
 62
     0
 10
86.3328
 20
60.259
 30
0.0
 11
85.532
 21
60.259
 31
0.0
  0
LINE
  8
0
 62
     0
 10
85.532
 20
60.259
 30
0.0
 11
85.532
 21
61.2592
 31
0.0
  0
LINE
  8
0
 62
     0
 10
85.532
 20
61.2592
 30
0.0
 11
71.5328
 21
61.2592
 31
0.0
  0
LINE
  8
0
 62
     0
 10
90.5827
 20
61.2592
 30
0.0
 11
90.5827
 21
60.259
 31
0.0
  0
LINE
  8
0
 62
     0
 10
90.5827
 20
60.259
 30
0.0
 11
89.7819
 21
60.259
 31
0.0
  0
LINE
  8
0
 62
     0
 10
89.7819
 20
60.259
 30
0.0
 11
89.7819
 21
57.1595
 31
0.0
  0
LINE
  8
0
 62
     0
 10
89.7819
 20
57.1595
 30
0.0
 11
90.5827
 21
57.1595
 31
0.0
  0
LINE
  8
0
 62
     0
 10
90.5827
 20
57.1595
 30
0.0
 11
90.5827
 21
51.3595
 31
0.0
  0
LINE
  8
0
 62
     0
 10
90.5827
 20
51.3595
 30
0.0
 11
89.7819
 21
51.3595
 31
0.0
  0
LINE
  8
0
 62
     0
 10
89.7819
 20
51.3595
 30
0.0
 11
89.7819
 21
48.2589
 31
0.0
  0
LINE
  8
0
 62
     0
 10
89.7819
 20
48.2589
 30
0.0
 11
90.5827
 21
48.2589
 31
0.0
  0
LINE
  8
0
 62
     0
 10
90.5827
 20
48.2589
 30
0.0
 11
90.5827
 21
47.2599
 31
0.0
  0
LINE
  8
0
 62
     0
 10
90.5827
 20
47.2599
 30
0.0
 11
104.582
 21
47.2599
 31
0.0
  0
LINE
  8
0
 62
     0
 10
104.582
 20
47.2599
 30
0.0
 11
104.582
 21
48.2589
 31
0.0
  0
LINE
  8
0
 62
     0
 10
104.582
 20
48.2589
 30
0.0
 11
105.383
 21
48.2589
 31
0.0
  0
LINE
  8
0
 62
     0
 10
105.383
 20
48.2589
 30
0.0
 11
105.383
 21
51.3595
 31
0.0
  0
LINE
  8
0
 62
     0
 10
105.383
 20
51.3595
 30
0.0
 11
104.582
 21
51.3595
 31
0.0
  0
LINE
  8
0
 62
     0
 10
104.582
 20
51.3595
 30
0.0
 11
104.582
 21
57.1595
 31
0.0
  0
LINE
  8
0
 62
     0
 10
104.582
 20
57.1595
 30
0.0
 11
105.383
 21
57.1595
 31
0.0
  0
LINE
  8
0
 62
     0
 10
105.383
 20
57.1595
 30
0.0
 11
105.383
 21
60.259
 31
0.0
  0
LINE
  8
0
 62
     0
 10
105.383
 20
60.259
 30
0.0
 11
104.582
 21
60.259
 31
0.0
  0
LINE
  8
0
 62
     0
 10
104.582
 20
60.259
 30
0.0
 11
104.582
 21
61.2592
 31
0.0
  0
LINE
  8
0
 62
     0
 10
104.582
 20
61.2592
 30
0.0
 11
90.5827
 21
61.2592
 31
0.0
  0
LINE
  8
0
 62
     0
 10
109.633
 20
61.2592
 30
0.0
 11
109.633
 21
60.259
 31
0.0
  0
LINE
  8
0
 62
     0
 10
109.633
 20
60.259
 30
0.0
 11
108.832
 21
60.259
 31
0.0
  0
LINE
  8
0
 62
     0
 10
108.832
 20
60.259
 30
0.0
 11
108.832
 21
57.1595
 31
0.0
  0
LINE
  8
0
 62
     0
 10
108.832
 20
57.1595
 30
0.0
 11
109.633
 21
57.1595
 31
0.0
  0
LINE
  8
0
 62
     0
 10
109.633
 20
57.1595
 30
0.0
 11
109.633
 21
51.3595
 31
0.0
  0
LINE
  8
0
 62
     0
 10
109.633
 20
51.3595
 30
0.0
 11
108.832
 21
51.3595
 31
0.0
  0
LINE
  8
0
 62
     0
 10
108.832
 20
51.3595
 30
0.0
 11
108.832
 21
48.2589
 31
0.0
  0
LINE
  8
0
 62
     0
 10
108.832
 20
48.2589
 30
0.0
 11
109.633
 21
48.2589
 31
0.0
  0
LINE
  8
0
 62
     0
 10
109.633
 20
48.2589
 30
0.0
 11
109.633
 21
47.2599
 31
0.0
  0
LINE
  8
0
 62
     0
 10
109.633
 20
47.2599
 30
0.0
 11
123.632
 21
47.2599
 31
0.0
  0
LINE
  8
0
 62
     0
 10
123.632
 20
47.2599
 30
0.0
 11
123.632
 21
48.2589
 31
0.0
  0
LINE
  8
0
 62
     0
 10
123.632
 20
48.2589
 30
0.0
 11
124.431
 21
48.2589
 31
0.0
  0
LINE
  8
0
 62
     0
 10
124.431
 20
48.2589
 30
0.0
 11
124.431
 21
51.3595
 31
0.0
  0
LINE
  8
0
 62
     0
 10
124.431
 20
51.3595
 30
0.0
 11
123.632
 21
51.3595
 31
0.0
  0
LINE
  8
0
 62
     0
 10
123.632
 20
51.3595
 30
0.0
 11
123.632
 21
57.1595
 31
0.0
  0
LINE
  8
0
 62
     0
 10
123.632
 20
57.1595
 30
0.0
 11
124.431
 21
57.1595
 31
0.0
  0
LINE
  8
0
 62
     0
 10
124.431
 20
57.1595
 30
0.0
 11
124.431
 21
60.259
 31
0.0
  0
LINE
  8
0
 62
     0
 10
124.431
 20
60.259
 30
0.0
 11
123.632
 21
60.259
 31
0.0
  0
LINE
  8
0
 62
     0
 10
123.632
 20
60.259
 30
0.0
 11
123.632
 21
61.2592
 31
0.0
  0
LINE
  8
0
 62
     0
 10
123.632
 20
61.2592
 30
0.0
 11
109.633
 21
61.2592
 31
0.0
  0
LINE
  8
0
 62
     0
 10
128.683
 20
61.2592
 30
0.0
 11
128.683
 21
60.259
 31
0.0
  0
LINE
  8
0
 62
     0
 10
128.683
 20
60.259
 30
0.0
 11
127.882
 21
60.259
 31
0.0
  0
LINE
  8
0
 62
     0
 10
127.882
 20
60.259
 30
0.0
 11
127.882
 21
57.1595
 31
0.0
  0
LINE
  8
0
 62
     0
 10
127.882
 20
57.1595
 30
0.0
 11
128.683
 21
57.1595
 31
0.0
  0
LINE
  8
0
 62
     0
 10
128.683
 20
57.1595
 30
0.0
 11
128.683
 21
51.3595
 31
0.0
  0
LINE
  8
0
 62
     0
 10
128.683
 20
51.3595
 30
0.0
 11
127.882
 21
51.3595
 31
0.0
  0
LINE
  8
0
 62
     0
 10
127.882
 20
51.3595
 30
0.0
 11
127.882
 21
48.2589
 31
0.0
  0
LINE
  8
0
 62
     0
 10
127.882
 20
48.2589
 30
0.0
 11
128.683
 21
48.2589
 31
0.0
  0
LINE
  8
0
 62
     0
 10
128.683
 20
48.2589
 30
0.0
 11
128.683
 21
47.2599
 31
0.0
  0
LINE
  8
0
 62
     0
 10
128.683
 20
47.2599
 30
0.0
 11
142.682
 21
47.2599
 31
0.0
  0
LINE
  8
0
 62
     0
 10
142.682
 20
47.2599
 30
0.0
 11
142.682
 21
48.2589
 31
0.0
  0
LINE
  8
0
 62
     0
 10
142.682
 20
48.2589
 30
0.0
 11
143.483
 21
48.2589
 31
0.0
  0
LINE
  8
0
 62
     0
 10
143.483
 20
48.2589
 30
0.0
 11
143.483
 21
51.3595
 31
0.0
  0
LINE
  8
0
 62
     0
 10
143.483
 20
51.3595
 30
0.0
 11
142.682
 21
51.3595
 31
0.0
  0
LINE
  8
0
 62
     0
 10
142.682
 20
51.3595
 30
0.0
 11
142.682
 21
57.1595
 31
0.0
  0
LINE
  8
0
 62
     0
 10
142.682
 20
57.1595
 30
0.0
 11
143.483
 21
57.1595
 31
0.0
  0
LINE
  8
0
 62
     0
 10
143.483
 20
57.1595
 30
0.0
 11
143.483
 21
60.259
 31
0.0
  0
LINE
  8
0
 62
     0
 10
143.483
 20
60.259
 30
0.0
 11
142.682
 21
60.259
 31
0.0
  0
LINE
  8
0
 62
     0
 10
142.682
 20
60.259
 30
0.0
 11
142.682
 21
61.2592
 31
0.0
  0
LINE
  8
0
 62
     0
 10
142.682
 20
61.2592
 30
0.0
 11
128.683
 21
61.2592
 31
0.0
  0
LINE
  8
0
 62
     0
 10
147.733
 20
61.2592
 30
0.0
 11
147.733
 21
60.259
 31
0.0
  0
LINE
  8
0
 62
     0
 10
147.733
 20
60.259
 30
0.0
 11
146.932
 21
60.259
 31
0.0
  0
LINE
  8
0
 62
     0
 10
146.932
 20
60.259
 30
0.0
 11
146.932
 21
57.1595
 31
0.0
  0
LINE
  8
0
 62
     0
 10
146.932
 20
57.1595
 30
0.0
 11
147.733
 21
57.1595
 31
0.0
  0
LINE
  8
0
 62
     0
 10
147.733
 20
57.1595
 30
0.0
 11
147.733
 21
51.3595
 31
0.0
  0
LINE
  8
0
 62
     0
 10
147.733
 20
51.3595
 30
0.0
 11
146.932
 21
51.3595
 31
0.0
  0
LINE
  8
0
 62
     0
 10
146.932
 20
51.3595
 30
0.0
 11
146.932
 21
48.2589
 31
0.0
  0
LINE
  8
0
 62
     0
 10
146.932
 20
48.2589
 30
0.0
 11
147.733
 21
48.2589
 31
0.0
  0
LINE
  8
0
 62
     0
 10
147.733
 20
48.2589
 30
0.0
 11
147.733
 21
47.2599
 31
0.0
  0
LINE
  8
0
 62
     0
 10
147.733
 20
47.2599
 30
0.0
 11
161.732
 21
47.2599
 31
0.0
  0
LINE
  8
0
 62
     0
 10
161.732
 20
47.2599
 30
0.0
 11
161.732
 21
48.2589
 31
0.0
  0
LINE
  8
0
 62
     0
 10
161.732
 20
48.2589
 30
0.0
 11
162.533
 21
48.2589
 31
0.0
  0
LINE
  8
0
 62
     0
 10
162.533
 20
48.2589
 30
0.0
 11
162.533
 21
51.3595
 31
0.0
  0
LINE
  8
0
 62
     0
 10
162.533
 20
51.3595
 30
0.0
 11
161.732
 21
51.3595
 31
0.0
  0
LINE
  8
0
 62
     0
 10
161.732
 20
51.3595
 30
0.0
 11
161.732
 21
57.1595
 31
0.0
  0
LINE
  8
0
 62
     0
 10
161.732
 20
57.1595
 30
0.0
 11
162.533
 21
57.1595
 31
0.0
  0
LINE
  8
0
 62
     0
 10
162.533
 20
57.1595
 30
0.0
 11
162.533
 21
60.259
 31
0.0
  0
LINE
  8
0
 62
     0
 10
162.533
 20
60.259
 30
0.0
 11
161.732
 21
60.259
 31
0.0
  0
LINE
  8
0
 62
     0
 10
161.732
 20
60.259
 30
0.0
 11
161.732
 21
61.2592
 31
0.0
  0
LINE
  8
0
 62
     0
 10
161.732
 20
61.2592
 30
0.0
 11
147.733
 21
61.2592
 31
0.0
  0
LINE
  8
0
 62
     0
 10
166.783
 20
61.2592
 30
0.0
 11
166.783
 21
60.259
 31
0.0
  0
LINE
  8
0
 62
     0
 10
166.783
 20
60.259
 30
0.0
 11
165.982
 21
60.259
 31
0.0
  0
LINE
  8
0
 62
     0
 10
165.982
 20
60.259
 30
0.0
 11
165.982
 21
57.1595
 31
0.0
  0
LINE
  8
0
 62
     0
 10
165.982
 20
57.1595
 30
0.0
 11
166.783
 21
57.1595
 31
0.0
  0
LINE
  8
0
 62
     0
 10
166.783
 20
57.1595
 30
0.0
 11
166.783
 21
51.3595
 31
0.0
  0
LINE
  8
0
 62
     0
 10
166.783
 20
51.3595
 30
0.0
 11
165.982
 21
51.3595
 31
0.0
  0
LINE
  8
0
 62
     0
 10
165.982
 20
51.3595
 30
0.0
 11
165.982
 21
48.2589
 31
0.0
  0
LINE
  8
0
 62
     0
 10
165.982
 20
48.2589
 30
0.0
 11
166.783
 21
48.2589
 31
0.0
  0
LINE
  8
0
 62
     0
 10
166.783
 20
48.2589
 30
0.0
 11
166.783
 21
47.2599
 31
0.0
  0
LINE
  8
0
 62
     0
 10
166.783
 20
47.2599
 30
0.0
 11
180.782
 21
47.2599
 31
0.0
  0
LINE
  8
0
 62
     0
 10
180.782
 20
47.2599
 30
0.0
 11
180.782
 21
48.2589
 31
0.0
  0
LINE
  8
0
 62
     0
 10
180.782
 20
48.2589
 30
0.0
 11
181.583
 21
48.2589
 31
0.0
  0
LINE
  8
0
 62
     0
 10
181.583
 20
48.2589
 30
0.0
 11
181.583
 21
51.3595
 31
0.0
  0
LINE
  8
0
 62
     0
 10
181.583
 20
51.3595
 30
0.0
 11
180.782
 21
51.3595
 31
0.0
  0
LINE
  8
0
 62
     0
 10
180.782
 20
51.3595
 30
0.0
 11
180.782
 21
57.1595
 31
0.0
  0
LINE
  8
0
 62
     0
 10
180.782
 20
57.1595
 30
0.0
 11
181.583
 21
57.1595
 31
0.0
  0
LINE
  8
0
 62
     0
 10
181.583
 20
57.1595
 30
0.0
 11
181.583
 21
60.259
 31
0.0
  0
LINE
  8
0
 62
     0
 10
181.583
 20
60.259
 30
0.0
 11
180.782
 21
60.259
 31
0.0
  0
LINE
  8
0
 62
     0
 10
180.782
 20
60.259
 30
0.0
 11
180.782
 21
61.2592
 31
0.0
  0
LINE
  8
0
 62
     0
 10
180.782
 20
61.2592
 30
0.0
 11
166.783
 21
61.2592
 31
0.0
  0
LINE
  8
0
 62
     0
 10
185.833
 20
61.2592
 30
0.0
 11
185.833
 21
60.259
 31
0.0
  0
LINE
  8
0
 62
     0
 10
185.833
 20
60.259
 30
0.0
 11
185.032
 21
60.259
 31
0.0
  0
LINE
  8
0
 62
     0
 10
185.032
 20
60.259
 30
0.0
 11
185.032
 21
57.1595
 31
0.0
  0
LINE
  8
0
 62
     0
 10
185.032
 20
57.1595
 30
0.0
 11
185.833
 21
57.1595
 31
0.0
  0
LINE
  8
0
 62
     0
 10
185.833
 20
57.1595
 30
0.0
 11
185.833
 21
51.3595
 31
0.0
  0
LINE
  8
0
 62
     0
 10
185.833
 20
51.3595
 30
0.0
 11
185.032
 21
51.3595
 31
0.0
  0
LINE
  8
0
 62
     0
 10
185.032
 20
51.3595
 30
0.0
 11
185.032
 21
48.2589
 31
0.0
  0
LINE
  8
0
 62
     0
 10
185.032
 20
48.2589
 30
0.0
 11
185.833
 21
48.2589
 31
0.0
  0
LINE
  8
0
 62
     0
 10
185.833
 20
48.2589
 30
0.0
 11
185.833
 21
47.2599
 31
0.0
  0
LINE
  8
0
 62
     0
 10
185.833
 20
47.2599
 30
0.0
 11
199.832
 21
47.2599
 31
0.0
  0
LINE
  8
0
 62
     0
 10
199.832
 20
47.2599
 30
0.0
 11
199.832
 21
48.2589
 31
0.0
  0
LINE
  8
0
 62
     0
 10
199.832
 20
48.2589
 30
0.0
 11
200.633
 21
48.2589
 31
0.0
  0
LINE
  8
0
 62
     0
 10
200.633
 20
48.2589
 30
0.0
 11
200.633
 21
51.3595
 31
0.0
  0
LINE
  8
0
 62
     0
 10
200.633
 20
51.3595
 30
0.0
 11
199.832
 21
51.3595
 31
0.0
  0
LINE
  8
0
 62
     0
 10
199.832
 20
51.3595
 30
0.0
 11
199.832
 21
57.1595
 31
0.0
  0
LINE
  8
0
 62
     0
 10
199.832
 20
57.1595
 30
0.0
 11
200.633
 21
57.1595
 31
0.0
  0
LINE
  8
0
 62
     0
 10
200.633
 20
57.1595
 30
0.0
 11
200.633
 21
60.259
 31
0.0
  0
LINE
  8
0
 62
     0
 10
200.633
 20
60.259
 30
0.0
 11
199.832
 21
60.259
 31
0.0
  0
LINE
  8
0
 62
     0
 10
199.832
 20
60.259
 30
0.0
 11
199.832
 21
61.2592
 31
0.0
  0
LINE
  8
0
 62
     0
 10
199.832
 20
61.2592
 30
0.0
 11
185.833
 21
61.2592
 31
0.0
  0
LINE
  8
0
 62
     0
 10
212.027
 20
61.2592
 30
0.0
 11
212.027
 21
60.259
 31
0.0
  0
LINE
  8
0
 62
     0
 10
212.027
 20
60.259
 30
0.0
 11
211.227
 21
60.259
 31
0.0
  0
LINE
  8
0
 62
     0
 10
211.227
 20
60.259
 30
0.0
 11
211.227
 21
57.1595
 31
0.0
  0
LINE
  8
0
 62
     0
 10
211.227
 20
57.1595
 30
0.0
 11
212.027
 21
57.1595
 31
0.0
  0
LINE
  8
0
 62
     0
 10
212.027
 20
57.1595
 30
0.0
 11
212.027
 21
51.3595
 31
0.0
  0
LINE
  8
0
 62
     0
 10
212.027
 20
51.3595
 30
0.0
 11
211.227
 21
51.3595
 31
0.0
  0
LINE
  8
0
 62
     0
 10
211.227
 20
51.3595
 30
0.0
 11
211.227
 21
48.2589
 31
0.0
  0
LINE
  8
0
 62
     0
 10
211.227
 20
48.2589
 30
0.0
 11
212.027
 21
48.2589
 31
0.0
  0
LINE
  8
0
 62
     0
 10
212.027
 20
48.2589
 30
0.0
 11
212.027
 21
47.2599
 31
0.0
  0
LINE
  8
0
 62
     0
 10
212.027
 20
47.2599
 30
0.0
 11
226.026
 21
47.2599
 31
0.0
  0
LINE
  8
0
 62
     0
 10
226.026
 20
47.2599
 30
0.0
 11
226.026
 21
48.2589
 31
0.0
  0
LINE
  8
0
 62
     0
 10
226.026
 20
48.2589
 30
0.0
 11
226.827
 21
48.2589
 31
0.0
  0
LINE
  8
0
 62
     0
 10
226.827
 20
48.2589
 30
0.0
 11
226.827
 21
51.3595
 31
0.0
  0
LINE
  8
0
 62
     0
 10
226.827
 20
51.3595
 30
0.0
 11
226.026
 21
51.3595
 31
0.0
  0
LINE
  8
0
 62
     0
 10
226.026
 20
51.3595
 30
0.0
 11
226.026
 21
57.1595
 31
0.0
  0
LINE
  8
0
 62
     0
 10
226.026
 20
57.1595
 30
0.0
 11
226.827
 21
57.1595
 31
0.0
  0
LINE
  8
0
 62
     0
 10
226.827
 20
57.1595
 30
0.0
 11
226.827
 21
60.259
 31
0.0
  0
LINE
  8
0
 62
     0
 10
226.827
 20
60.259
 30
0.0
 11
226.026
 21
60.259
 31
0.0
  0
LINE
  8
0
 62
     0
 10
226.026
 20
60.259
 30
0.0
 11
226.026
 21
61.2592
 31
0.0
  0
LINE
  8
0
 62
     0
 10
226.026
 20
61.2592
 30
0.0
 11
212.027
 21
61.2592
 31
0.0
  0
LINE
  8
0
 62
     0
 10
9.62007
 20
80.3092
 30
0.0
 11
9.62007
 21
79.309
 31
0.0
  0
LINE
  8
0
 62
     0
 10
9.62007
 20
79.309
 30
0.0
 11
8.81944
 21
79.309
 31
0.0
  0
LINE
  8
0
 62
     0
 10
8.81944
 20
79.309
 30
0.0
 11
8.81944
 21
76.2095
 31
0.0
  0
LINE
  8
0
 62
     0
 10
8.81944
 20
76.2095
 30
0.0
 11
9.62007
 21
76.2095
 31
0.0
  0
LINE
  8
0
 62
     0
 10
9.62007
 20
76.2095
 30
0.0
 11
9.62007
 21
70.4095
 31
0.0
  0
LINE
  8
0
 62
     0
 10
9.62007
 20
70.4095
 30
0.0
 11
8.81944
 21
70.4095
 31
0.0
  0
LINE
  8
0
 62
     0
 10
8.81944
 20
70.4095
 30
0.0
 11
8.81944
 21
67.3089
 31
0.0
  0
LINE
  8
0
 62
     0
 10
8.81944
 20
67.3089
 30
0.0
 11
9.62007
 21
67.3089
 31
0.0
  0
LINE
  8
0
 62
     0
 10
9.62007
 20
67.3089
 30
0.0
 11
9.62007
 21
66.3099
 31
0.0
  0
LINE
  8
0
 62
     0
 10
9.62007
 20
66.3099
 30
0.0
 11
23.6209
 21
66.3099
 31
0.0
  0
LINE
  8
0
 62
     0
 10
23.6209
 20
66.3099
 30
0.0
 11
23.6209
 21
67.3089
 31
0.0
  0
LINE
  8
0
 62
     0
 10
23.6209
 20
67.3089
 30
0.0
 11
24.4202
 21
67.3089
 31
0.0
  0
LINE
  8
0
 62
     0
 10
24.4202
 20
67.3089
 30
0.0
 11
24.4202
 21
70.4095
 31
0.0
  0
LINE
  8
0
 62
     0
 10
24.4202
 20
70.4095
 30
0.0
 11
23.6209
 21
70.4095
 31
0.0
  0
LINE
  8
0
 62
     0
 10
23.6209
 20
70.4095
 30
0.0
 11
23.6209
 21
76.2095
 31
0.0
  0
LINE
  8
0
 62
     0
 10
23.6209
 20
76.2095
 30
0.0
 11
24.4202
 21
76.2095
 31
0.0
  0
LINE
  8
0
 62
     0
 10
24.4202
 20
76.2095
 30
0.0
 11
24.4202
 21
79.309
 31
0.0
  0
LINE
  8
0
 62
     0
 10
24.4202
 20
79.309
 30
0.0
 11
23.6209
 21
79.309
 31
0.0
  0
LINE
  8
0
 62
     0
 10
23.6209
 20
79.309
 30
0.0
 11
23.6209
 21
80.3092
 31
0.0
  0
LINE
  8
0
 62
     0
 10
23.6209
 20
80.3092
 30
0.0
 11
9.62007
 21
80.3092
 31
0.0
  0
LINE
  8
0
 62
     0
 10
28.6701
 20
80.3092
 30
0.0
 11
28.6701
 21
79.309
 31
0.0
  0
LINE
  8
0
 62
     0
 10
28.6701
 20
79.309
 30
0.0
 11
27.8708
 21
79.309
 31
0.0
  0
LINE
  8
0
 62
     0
 10
27.8708
 20
79.309
 30
0.0
 11
27.8708
 21
76.2095
 31
0.0
  0
LINE
  8
0
 62
     0
 10
27.8708
 20
76.2095
 30
0.0
 11
28.6701
 21
76.2095
 31
0.0
  0
LINE
  8
0
 62
     0
 10
28.6701
 20
76.2095
 30
0.0
 11
28.6701
 21
70.4095
 31
0.0
  0
LINE
  8
0
 62
     0
 10
28.6701
 20
70.4095
 30
0.0
 11
27.8708
 21
70.4095
 31
0.0
  0
LINE
  8
0
 62
     0
 10
27.8708
 20
70.4095
 30
0.0
 11
27.8708
 21
67.3089
 31
0.0
  0
LINE
  8
0
 62
     0
 10
27.8708
 20
67.3089
 30
0.0
 11
28.6701
 21
67.3089
 31
0.0
  0
LINE
  8
0
 62
     0
 10
28.6701
 20
67.3089
 30
0.0
 11
28.6701
 21
66.3099
 31
0.0
  0
LINE
  8
0
 62
     0
 10
28.6701
 20
66.3099
 30
0.0
 11
42.6709
 21
66.3099
 31
0.0
  0
LINE
  8
0
 62
     0
 10
42.6709
 20
66.3099
 30
0.0
 11
42.6709
 21
67.3089
 31
0.0
  0
LINE
  8
0
 62
     0
 10
42.6709
 20
67.3089
 30
0.0
 11
43.4703
 21
67.3089
 31
0.0
  0
LINE
  8
0
 62
     0
 10
43.4703
 20
67.3089
 30
0.0
 11
43.4703
 21
70.4095
 31
0.0
  0
LINE
  8
0
 62
     0
 10
43.4703
 20
70.4095
 30
0.0
 11
42.6709
 21
70.4095
 31
0.0
  0
LINE
  8
0
 62
     0
 10
42.6709
 20
70.4095
 30
0.0
 11
42.6709
 21
76.2095
 31
0.0
  0
LINE
  8
0
 62
     0
 10
42.6709
 20
76.2095
 30
0.0
 11
43.4703
 21
76.2095
 31
0.0
  0
LINE
  8
0
 62
     0
 10
43.4703
 20
76.2095
 30
0.0
 11
43.4703
 21
79.309
 31
0.0
  0
LINE
  8
0
 62
     0
 10
43.4703
 20
79.309
 30
0.0
 11
42.6709
 21
79.309
 31
0.0
  0
LINE
  8
0
 62
     0
 10
42.6709
 20
79.309
 30
0.0
 11
42.6709
 21
80.3092
 31
0.0
  0
LINE
  8
0
 62
     0
 10
42.6709
 20
80.3092
 30
0.0
 11
28.6701
 21
80.3092
 31
0.0
  0
LINE
  8
0
 62
     0
 10
47.7203
 20
80.3092
 30
0.0
 11
47.7203
 21
79.309
 31
0.0
  0
LINE
  8
0
 62
     0
 10
47.7203
 20
79.309
 30
0.0
 11
46.9209
 21
79.309
 31
0.0
  0
LINE
  8
0
 62
     0
 10
46.9209
 20
79.309
 30
0.0
 11
46.9209
 21
76.2095
 31
0.0
  0
LINE
  8
0
 62
     0
 10
46.9209
 20
76.2095
 30
0.0
 11
47.7203
 21
76.2095
 31
0.0
  0
LINE
  8
0
 62
     0
 10
47.7203
 20
76.2095
 30
0.0
 11
47.7203
 21
70.4095
 31
0.0
  0
LINE
  8
0
 62
     0
 10
47.7203
 20
70.4095
 30
0.0
 11
46.9209
 21
70.4095
 31
0.0
  0
LINE
  8
0
 62
     0
 10
46.9209
 20
70.4095
 30
0.0
 11
46.9209
 21
67.3089
 31
0.0
  0
LINE
  8
0
 62
     0
 10
46.9209
 20
67.3089
 30
0.0
 11
47.7203
 21
67.3089
 31
0.0
  0
LINE
  8
0
 62
     0
 10
47.7203
 20
67.3089
 30
0.0
 11
47.7203
 21
66.3099
 31
0.0
  0
LINE
  8
0
 62
     0
 10
47.7203
 20
66.3099
 30
0.0
 11
61.7209
 21
66.3099
 31
0.0
  0
LINE
  8
0
 62
     0
 10
61.7209
 20
66.3099
 30
0.0
 11
61.7209
 21
67.3089
 31
0.0
  0
LINE
  8
0
 62
     0
 10
61.7209
 20
67.3089
 30
0.0
 11
62.5203
 21
67.3089
 31
0.0
  0
LINE
  8
0
 62
     0
 10
62.5203
 20
67.3089
 30
0.0
 11
62.5203
 21
70.4095
 31
0.0
  0
LINE
  8
0
 62
     0
 10
62.5203
 20
70.4095
 30
0.0
 11
61.7209
 21
70.4095
 31
0.0
  0
LINE
  8
0
 62
     0
 10
61.7209
 20
70.4095
 30
0.0
 11
61.7209
 21
76.2095
 31
0.0
  0
LINE
  8
0
 62
     0
 10
61.7209
 20
76.2095
 30
0.0
 11
62.5203
 21
76.2095
 31
0.0
  0
LINE
  8
0
 62
     0
 10
62.5203
 20
76.2095
 30
0.0
 11
62.5203
 21
79.309
 31
0.0
  0
LINE
  8
0
 62
     0
 10
62.5203
 20
79.309
 30
0.0
 11
61.7209
 21
79.309
 31
0.0
  0
LINE
  8
0
 62
     0
 10
61.7209
 20
79.309
 30
0.0
 11
61.7209
 21
80.3092
 31
0.0
  0
LINE
  8
0
 62
     0
 10
61.7209
 20
80.3092
 30
0.0
 11
47.7203
 21
80.3092
 31
0.0
  0
LINE
  8
0
 62
     0
 10
66.7703
 20
80.3092
 30
0.0
 11
66.7703
 21
79.309
 31
0.0
  0
LINE
  8
0
 62
     0
 10
66.7703
 20
79.309
 30
0.0
 11
65.9709
 21
79.309
 31
0.0
  0
LINE
  8
0
 62
     0
 10
65.9709
 20
79.309
 30
0.0
 11
65.9709
 21
76.2095
 31
0.0
  0
LINE
  8
0
 62
     0
 10
65.9709
 20
76.2095
 30
0.0
 11
66.7703
 21
76.2095
 31
0.0
  0
LINE
  8
0
 62
     0
 10
66.7703
 20
76.2095
 30
0.0
 11
66.7703
 21
70.4095
 31
0.0
  0
LINE
  8
0
 62
     0
 10
66.7703
 20
70.4095
 30
0.0
 11
65.9709
 21
70.4095
 31
0.0
  0
LINE
  8
0
 62
     0
 10
65.9709
 20
70.4095
 30
0.0
 11
65.9709
 21
67.3089
 31
0.0
  0
LINE
  8
0
 62
     0
 10
65.9709
 20
67.3089
 30
0.0
 11
66.7703
 21
67.3089
 31
0.0
  0
LINE
  8
0
 62
     0
 10
66.7703
 20
67.3089
 30
0.0
 11
66.7703
 21
66.3099
 31
0.0
  0
LINE
  8
0
 62
     0
 10
66.7703
 20
66.3099
 30
0.0
 11
80.7709
 21
66.3099
 31
0.0
  0
LINE
  8
0
 62
     0
 10
80.7709
 20
66.3099
 30
0.0
 11
80.7709
 21
67.3089
 31
0.0
  0
LINE
  8
0
 62
     0
 10
80.7709
 20
67.3089
 30
0.0
 11
81.5703
 21
67.3089
 31
0.0
  0
LINE
  8
0
 62
     0
 10
81.5703
 20
67.3089
 30
0.0
 11
81.5703
 21
70.4095
 31
0.0
  0
LINE
  8
0
 62
     0
 10
81.5703
 20
70.4095
 30
0.0
 11
80.7709
 21
70.4095
 31
0.0
  0
LINE
  8
0
 62
     0
 10
80.7709
 20
70.4095
 30
0.0
 11
80.7709
 21
76.2095
 31
0.0
  0
LINE
  8
0
 62
     0
 10
80.7709
 20
76.2095
 30
0.0
 11
81.5703
 21
76.2095
 31
0.0
  0
LINE
  8
0
 62
     0
 10
81.5703
 20
76.2095
 30
0.0
 11
81.5703
 21
79.309
 31
0.0
  0
LINE
  8
0
 62
     0
 10
81.5703
 20
79.309
 30
0.0
 11
80.7709
 21
79.309
 31
0.0
  0
LINE
  8
0
 62
     0
 10
80.7709
 20
79.309
 30
0.0
 11
80.7709
 21
80.3092
 31
0.0
  0
LINE
  8
0
 62
     0
 10
80.7709
 20
80.3092
 30
0.0
 11
66.7703
 21
80.3092
 31
0.0
  0
LINE
  8
0
 62
     0
 10
85.8203
 20
80.3092
 30
0.0
 11
85.8203
 21
79.309
 31
0.0
  0
LINE
  8
0
 62
     0
 10
85.8203
 20
79.309
 30
0.0
 11
85.0209
 21
79.309
 31
0.0
  0
LINE
  8
0
 62
     0
 10
85.0209
 20
79.309
 30
0.0
 11
85.0209
 21
76.2095
 31
0.0
  0
LINE
  8
0
 62
     0
 10
85.0209
 20
76.2095
 30
0.0
 11
85.8203
 21
76.2095
 31
0.0
  0
LINE
  8
0
 62
     0
 10
85.8203
 20
76.2095
 30
0.0
 11
85.8203
 21
70.4095
 31
0.0
  0
LINE
  8
0
 62
     0
 10
85.8203
 20
70.4095
 30
0.0
 11
85.0209
 21
70.4095
 31
0.0
  0
LINE
  8
0
 62
     0
 10
85.0209
 20
70.4095
 30
0.0
 11
85.0209
 21
67.3089
 31
0.0
  0
LINE
  8
0
 62
     0
 10
85.0209
 20
67.3089
 30
0.0
 11
85.8203
 21
67.3089
 31
0.0
  0
LINE
  8
0
 62
     0
 10
85.8203
 20
67.3089
 30
0.0
 11
85.8203
 21
66.3099
 31
0.0
  0
LINE
  8
0
 62
     0
 10
85.8203
 20
66.3099
 30
0.0
 11
99.8209
 21
66.3099
 31
0.0
  0
LINE
  8
0
 62
     0
 10
99.8209
 20
66.3099
 30
0.0
 11
99.8209
 21
67.3089
 31
0.0
  0
LINE
  8
0
 62
     0
 10
99.8209
 20
67.3089
 30
0.0
 11
100.619
 21
67.3089
 31
0.0
  0
LINE
  8
0
 62
     0
 10
100.619
 20
67.3089
 30
0.0
 11
100.619
 21
70.4095
 31
0.0
  0
LINE
  8
0
 62
     0
 10
100.619
 20
70.4095
 30
0.0
 11
99.8209
 21
70.4095
 31
0.0
  0
LINE
  8
0
 62
     0
 10
99.8209
 20
70.4095
 30
0.0
 11
99.8209
 21
76.2095
 31
0.0
  0
LINE
  8
0
 62
     0
 10
99.8209
 20
76.2095
 30
0.0
 11
100.619
 21
76.2095
 31
0.0
  0
LINE
  8
0
 62
     0
 10
100.619
 20
76.2095
 30
0.0
 11
100.619
 21
79.309
 31
0.0
  0
LINE
  8
0
 62
     0
 10
100.619
 20
79.309
 30
0.0
 11
99.8209
 21
79.309
 31
0.0
  0
LINE
  8
0
 62
     0
 10
99.8209
 20
79.309
 30
0.0
 11
99.8209
 21
80.3092
 31
0.0
  0
LINE
  8
0
 62
     0
 10
99.8209
 20
80.3092
 30
0.0
 11
85.8203
 21
80.3092
 31
0.0
  0
LINE
  8
0
 62
     0
 10
104.87
 20
80.3092
 30
0.0
 11
104.87
 21
79.309
 31
0.0
  0
LINE
  8
0
 62
     0
 10
104.87
 20
79.309
 30
0.0
 11
104.071
 21
79.309
 31
0.0
  0
LINE
  8
0
 62
     0
 10
104.071
 20
79.309
 30
0.0
 11
104.071
 21
76.2095
 31
0.0
  0
LINE
  8
0
 62
     0
 10
104.071
 20
76.2095
 30
0.0
 11
104.87
 21
76.2095
 31
0.0
  0
LINE
  8
0
 62
     0
 10
104.87
 20
76.2095
 30
0.0
 11
104.87
 21
70.4095
 31
0.0
  0
LINE
  8
0
 62
     0
 10
104.87
 20
70.4095
 30
0.0
 11
104.071
 21
70.4095
 31
0.0
  0
LINE
  8
0
 62
     0
 10
104.071
 20
70.4095
 30
0.0
 11
104.071
 21
67.3089
 31
0.0
  0
LINE
  8
0
 62
     0
 10
104.071
 20
67.3089
 30
0.0
 11
104.87
 21
67.3089
 31
0.0
  0
LINE
  8
0
 62
     0
 10
104.87
 20
67.3089
 30
0.0
 11
104.87
 21
66.3099
 31
0.0
  0
LINE
  8
0
 62
     0
 10
104.87
 20
66.3099
 30
0.0
 11
118.87
 21
66.3099
 31
0.0
  0
LINE
  8
0
 62
     0
 10
118.87
 20
66.3099
 30
0.0
 11
118.87
 21
67.3089
 31
0.0
  0
LINE
  8
0
 62
     0
 10
118.87
 20
67.3089
 30
0.0
 11
119.669
 21
67.3089
 31
0.0
  0
LINE
  8
0
 62
     0
 10
119.669
 20
67.3089
 30
0.0
 11
119.669
 21
70.4095
 31
0.0
  0
LINE
  8
0
 62
     0
 10
119.669
 20
70.4095
 30
0.0
 11
118.87
 21
70.4095
 31
0.0
  0
LINE
  8
0
 62
     0
 10
118.87
 20
70.4095
 30
0.0
 11
118.87
 21
76.2095
 31
0.0
  0
LINE
  8
0
 62
     0
 10
118.87
 20
76.2095
 30
0.0
 11
119.669
 21
76.2095
 31
0.0
  0
LINE
  8
0
 62
     0
 10
119.669
 20
76.2095
 30
0.0
 11
119.669
 21
79.309
 31
0.0
  0
LINE
  8
0
 62
     0
 10
119.669
 20
79.309
 30
0.0
 11
118.87
 21
79.309
 31
0.0
  0
LINE
  8
0
 62
     0
 10
118.87
 20
79.309
 30
0.0
 11
118.87
 21
80.3092
 31
0.0
  0
LINE
  8
0
 62
     0
 10
118.87
 20
80.3092
 30
0.0
 11
104.87
 21
80.3092
 31
0.0
  0
LINE
  8
0
 62
     0
 10
123.92
 20
80.3092
 30
0.0
 11
123.92
 21
79.309
 31
0.0
  0
LINE
  8
0
 62
     0
 10
123.92
 20
79.309
 30
0.0
 11
123.119
 21
79.309
 31
0.0
  0
LINE
  8
0
 62
     0
 10
123.119
 20
79.309
 30
0.0
 11
123.119
 21
76.2095
 31
0.0
  0
LINE
  8
0
 62
     0
 10
123.119
 20
76.2095
 30
0.0
 11
123.92
 21
76.2095
 31
0.0
  0
LINE
  8
0
 62
     0
 10
123.92
 20
76.2095
 30
0.0
 11
123.92
 21
70.4095
 31
0.0
  0
LINE
  8
0
 62
     0
 10
123.92
 20
70.4095
 30
0.0
 11
123.119
 21
70.4095
 31
0.0
  0
LINE
  8
0
 62
     0
 10
123.119
 20
70.4095
 30
0.0
 11
123.119
 21
67.3089
 31
0.0
  0
LINE
  8
0
 62
     0
 10
123.119
 20
67.3089
 30
0.0
 11
123.92
 21
67.3089
 31
0.0
  0
LINE
  8
0
 62
     0
 10
123.92
 20
67.3089
 30
0.0
 11
123.92
 21
66.3099
 31
0.0
  0
LINE
  8
0
 62
     0
 10
123.92
 20
66.3099
 30
0.0
 11
137.921
 21
66.3099
 31
0.0
  0
LINE
  8
0
 62
     0
 10
137.921
 20
66.3099
 30
0.0
 11
137.921
 21
67.3089
 31
0.0
  0
LINE
  8
0
 62
     0
 10
137.921
 20
67.3089
 30
0.0
 11
138.72
 21
67.3089
 31
0.0
  0
LINE
  8
0
 62
     0
 10
138.72
 20
67.3089
 30
0.0
 11
138.72
 21
70.4095
 31
0.0
  0
LINE
  8
0
 62
     0
 10
138.72
 20
70.4095
 30
0.0
 11
137.921
 21
70.4095
 31
0.0
  0
LINE
  8
0
 62
     0
 10
137.921
 20
70.4095
 30
0.0
 11
137.921
 21
76.2095
 31
0.0
  0
LINE
  8
0
 62
     0
 10
137.921
 20
76.2095
 30
0.0
 11
138.72
 21
76.2095
 31
0.0
  0
LINE
  8
0
 62
     0
 10
138.72
 20
76.2095
 30
0.0
 11
138.72
 21
79.309
 31
0.0
  0
LINE
  8
0
 62
     0
 10
138.72
 20
79.309
 30
0.0
 11
137.921
 21
79.309
 31
0.0
  0
LINE
  8
0
 62
     0
 10
137.921
 20
79.309
 30
0.0
 11
137.921
 21
80.3092
 31
0.0
  0
LINE
  8
0
 62
     0
 10
137.921
 20
80.3092
 30
0.0
 11
123.92
 21
80.3092
 31
0.0
  0
LINE
  8
0
 62
     0
 10
142.97
 20
80.3092
 30
0.0
 11
142.97
 21
79.309
 31
0.0
  0
LINE
  8
0
 62
     0
 10
142.97
 20
79.309
 30
0.0
 11
142.171
 21
79.309
 31
0.0
  0
LINE
  8
0
 62
     0
 10
142.171
 20
79.309
 30
0.0
 11
142.171
 21
76.2095
 31
0.0
  0
LINE
  8
0
 62
     0
 10
142.171
 20
76.2095
 30
0.0
 11
142.97
 21
76.2095
 31
0.0
  0
LINE
  8
0
 62
     0
 10
142.97
 20
76.2095
 30
0.0
 11
142.97
 21
70.4095
 31
0.0
  0
LINE
  8
0
 62
     0
 10
142.97
 20
70.4095
 30
0.0
 11
142.171
 21
70.4095
 31
0.0
  0
LINE
  8
0
 62
     0
 10
142.171
 20
70.4095
 30
0.0
 11
142.171
 21
67.3089
 31
0.0
  0
LINE
  8
0
 62
     0
 10
142.171
 20
67.3089
 30
0.0
 11
142.97
 21
67.3089
 31
0.0
  0
LINE
  8
0
 62
     0
 10
142.97
 20
67.3089
 30
0.0
 11
142.97
 21
66.3099
 31
0.0
  0
LINE
  8
0
 62
     0
 10
142.97
 20
66.3099
 30
0.0
 11
156.971
 21
66.3099
 31
0.0
  0
LINE
  8
0
 62
     0
 10
156.971
 20
66.3099
 30
0.0
 11
156.971
 21
67.3089
 31
0.0
  0
LINE
  8
0
 62
     0
 10
156.971
 20
67.3089
 30
0.0
 11
157.77
 21
67.3089
 31
0.0
  0
LINE
  8
0
 62
     0
 10
157.77
 20
67.3089
 30
0.0
 11
157.77
 21
70.4095
 31
0.0
  0
LINE
  8
0
 62
     0
 10
157.77
 20
70.4095
 30
0.0
 11
156.971
 21
70.4095
 31
0.0
  0
LINE
  8
0
 62
     0
 10
156.971
 20
70.4095
 30
0.0
 11
156.971
 21
76.2095
 31
0.0
  0
LINE
  8
0
 62
     0
 10
156.971
 20
76.2095
 30
0.0
 11
157.77
 21
76.2095
 31
0.0
  0
LINE
  8
0
 62
     0
 10
157.77
 20
76.2095
 30
0.0
 11
157.77
 21
79.309
 31
0.0
  0
LINE
  8
0
 62
     0
 10
157.77
 20
79.309
 30
0.0
 11
156.971
 21
79.309
 31
0.0
  0
LINE
  8
0
 62
     0
 10
156.971
 20
79.309
 30
0.0
 11
156.971
 21
80.3092
 31
0.0
  0
LINE
  8
0
 62
     0
 10
156.971
 20
80.3092
 30
0.0
 11
142.97
 21
80.3092
 31
0.0
  0
LINE
  8
0
 62
     0
 10
162.02
 20
80.3092
 30
0.0
 11
162.02
 21
79.309
 31
0.0
  0
LINE
  8
0
 62
     0
 10
162.02
 20
79.309
 30
0.0
 11
161.221
 21
79.309
 31
0.0
  0
LINE
  8
0
 62
     0
 10
161.221
 20
79.309
 30
0.0
 11
161.221
 21
76.2095
 31
0.0
  0
LINE
  8
0
 62
     0
 10
161.221
 20
76.2095
 30
0.0
 11
162.02
 21
76.2095
 31
0.0
  0
LINE
  8
0
 62
     0
 10
162.02
 20
76.2095
 30
0.0
 11
162.02
 21
70.4095
 31
0.0
  0
LINE
  8
0
 62
     0
 10
162.02
 20
70.4095
 30
0.0
 11
161.221
 21
70.4095
 31
0.0
  0
LINE
  8
0
 62
     0
 10
161.221
 20
70.4095
 30
0.0
 11
161.221
 21
67.3089
 31
0.0
  0
LINE
  8
0
 62
     0
 10
161.221
 20
67.3089
 30
0.0
 11
162.02
 21
67.3089
 31
0.0
  0
LINE
  8
0
 62
     0
 10
162.02
 20
67.3089
 30
0.0
 11
162.02
 21
66.3099
 31
0.0
  0
LINE
  8
0
 62
     0
 10
162.02
 20
66.3099
 30
0.0
 11
176.021
 21
66.3099
 31
0.0
  0
LINE
  8
0
 62
     0
 10
176.021
 20
66.3099
 30
0.0
 11
176.021
 21
67.3089
 31
0.0
  0
LINE
  8
0
 62
     0
 10
176.021
 20
67.3089
 30
0.0
 11
176.82
 21
67.3089
 31
0.0
  0
LINE
  8
0
 62
     0
 10
176.82
 20
67.3089
 30
0.0
 11
176.82
 21
70.4095
 31
0.0
  0
LINE
  8
0
 62
     0
 10
176.82
 20
70.4095
 30
0.0
 11
176.021
 21
70.4095
 31
0.0
  0
LINE
  8
0
 62
     0
 10
176.021
 20
70.4095
 30
0.0
 11
176.021
 21
76.2095
 31
0.0
  0
LINE
  8
0
 62
     0
 10
176.021
 20
76.2095
 30
0.0
 11
176.82
 21
76.2095
 31
0.0
  0
LINE
  8
0
 62
     0
 10
176.82
 20
76.2095
 30
0.0
 11
176.82
 21
79.309
 31
0.0
  0
LINE
  8
0
 62
     0
 10
176.82
 20
79.309
 30
0.0
 11
176.021
 21
79.309
 31
0.0
  0
LINE
  8
0
 62
     0
 10
176.021
 20
79.309
 30
0.0
 11
176.021
 21
80.3092
 31
0.0
  0
LINE
  8
0
 62
     0
 10
176.021
 20
80.3092
 30
0.0
 11
162.02
 21
80.3092
 31
0.0
  0
LINE
  8
0
 62
     0
 10
181.07
 20
80.3092
 30
0.0
 11
181.07
 21
79.309
 31
0.0
  0
LINE
  8
0
 62
     0
 10
181.07
 20
79.309
 30
0.0
 11
180.271
 21
79.309
 31
0.0
  0
LINE
  8
0
 62
     0
 10
180.271
 20
79.309
 30
0.0
 11
180.271
 21
76.2095
 31
0.0
  0
LINE
  8
0
 62
     0
 10
180.271
 20
76.2095
 30
0.0
 11
181.07
 21
76.2095
 31
0.0
  0
LINE
  8
0
 62
     0
 10
181.07
 20
76.2095
 30
0.0
 11
181.07
 21
70.4095
 31
0.0
  0
LINE
  8
0
 62
     0
 10
181.07
 20
70.4095
 30
0.0
 11
180.271
 21
70.4095
 31
0.0
  0
LINE
  8
0
 62
     0
 10
180.271
 20
70.4095
 30
0.0
 11
180.271
 21
67.3089
 31
0.0
  0
LINE
  8
0
 62
     0
 10
180.271
 20
67.3089
 30
0.0
 11
181.07
 21
67.3089
 31
0.0
  0
LINE
  8
0
 62
     0
 10
181.07
 20
67.3089
 30
0.0
 11
181.07
 21
66.3099
 31
0.0
  0
LINE
  8
0
 62
     0
 10
181.07
 20
66.3099
 30
0.0
 11
195.071
 21
66.3099
 31
0.0
  0
LINE
  8
0
 62
     0
 10
195.071
 20
66.3099
 30
0.0
 11
195.071
 21
67.3089
 31
0.0
  0
LINE
  8
0
 62
     0
 10
195.071
 20
67.3089
 30
0.0
 11
195.87
 21
67.3089
 31
0.0
  0
LINE
  8
0
 62
     0
 10
195.87
 20
67.3089
 30
0.0
 11
195.87
 21
70.4095
 31
0.0
  0
LINE
  8
0
 62
     0
 10
195.87
 20
70.4095
 30
0.0
 11
195.071
 21
70.4095
 31
0.0
  0
LINE
  8
0
 62
     0
 10
195.071
 20
70.4095
 30
0.0
 11
195.071
 21
76.2095
 31
0.0
  0
LINE
  8
0
 62
     0
 10
195.071
 20
76.2095
 30
0.0
 11
195.87
 21
76.2095
 31
0.0
  0
LINE
  8
0
 62
     0
 10
195.87
 20
76.2095
 30
0.0
 11
195.87
 21
79.309
 31
0.0
  0
LINE
  8
0
 62
     0
 10
195.87
 20
79.309
 30
0.0
 11
195.071
 21
79.309
 31
0.0
  0
LINE
  8
0
 62
     0
 10
195.071
 20
79.309
 30
0.0
 11
195.071
 21
80.3092
 31
0.0
  0
LINE
  8
0
 62
     0
 10
195.071
 20
80.3092
 30
0.0
 11
181.07
 21
80.3092
 31
0.0
  0
LINE
  8
0
 62
     0
 10
200.12
 20
80.3092
 30
0.0
 11
200.12
 21
79.309
 31
0.0
  0
LINE
  8
0
 62
     0
 10
200.12
 20
79.309
 30
0.0
 11
199.321
 21
79.309
 31
0.0
  0
LINE
  8
0
 62
     0
 10
199.321
 20
79.309
 30
0.0
 11
199.321
 21
76.2095
 31
0.0
  0
LINE
  8
0
 62
     0
 10
199.321
 20
76.2095
 30
0.0
 11
200.12
 21
76.2095
 31
0.0
  0
LINE
  8
0
 62
     0
 10
200.12
 20
76.2095
 30
0.0
 11
200.12
 21
70.4095
 31
0.0
  0
LINE
  8
0
 62
     0
 10
200.12
 20
70.4095
 30
0.0
 11
199.321
 21
70.4095
 31
0.0
  0
LINE
  8
0
 62
     0
 10
199.321
 20
70.4095
 30
0.0
 11
199.321
 21
67.3089
 31
0.0
  0
LINE
  8
0
 62
     0
 10
199.321
 20
67.3089
 30
0.0
 11
200.12
 21
67.3089
 31
0.0
  0
LINE
  8
0
 62
     0
 10
200.12
 20
67.3089
 30
0.0
 11
200.12
 21
66.3099
 31
0.0
  0
LINE
  8
0
 62
     0
 10
200.12
 20
66.3099
 30
0.0
 11
214.121
 21
66.3099
 31
0.0
  0
LINE
  8
0
 62
     0
 10
214.121
 20
66.3099
 30
0.0
 11
214.121
 21
67.3089
 31
0.0
  0
LINE
  8
0
 62
     0
 10
214.121
 20
67.3089
 30
0.0
 11
214.92
 21
67.3089
 31
0.0
  0
LINE
  8
0
 62
     0
 10
214.92
 20
67.3089
 30
0.0
 11
214.92
 21
70.4095
 31
0.0
  0
LINE
  8
0
 62
     0
 10
214.92
 20
70.4095
 30
0.0
 11
214.121
 21
70.4095
 31
0.0
  0
LINE
  8
0
 62
     0
 10
214.121
 20
70.4095
 30
0.0
 11
214.121
 21
76.2095
 31
0.0
  0
LINE
  8
0
 62
     0
 10
214.121
 20
76.2095
 30
0.0
 11
214.92
 21
76.2095
 31
0.0
  0
LINE
  8
0
 62
     0
 10
214.92
 20
76.2095
 30
0.0
 11
214.92
 21
79.309
 31
0.0
  0
LINE
  8
0
 62
     0
 10
214.92
 20
79.309
 30
0.0
 11
214.121
 21
79.309
 31
0.0
  0
LINE
  8
0
 62
     0
 10
214.121
 20
79.309
 30
0.0
 11
214.121
 21
80.3092
 31
0.0
  0
LINE
  8
0
 62
     0
 10
214.121
 20
80.3092
 30
0.0
 11
200.12
 21
80.3092
 31
0.0
  0
LINE
  8
0
 62
     0
 10
219.17
 20
80.3092
 30
0.0
 11
219.17
 21
79.309
 31
0.0
  0
LINE
  8
0
 62
     0
 10
219.17
 20
79.309
 30
0.0
 11
218.371
 21
79.309
 31
0.0
  0
LINE
  8
0
 62
     0
 10
218.371
 20
79.309
 30
0.0
 11
218.371
 21
76.2095
 31
0.0
  0
LINE
  8
0
 62
     0
 10
218.371
 20
76.2095
 30
0.0
 11
219.17
 21
76.2095
 31
0.0
  0
LINE
  8
0
 62
     0
 10
219.17
 20
76.2095
 30
0.0
 11
219.17
 21
70.4095
 31
0.0
  0
LINE
  8
0
 62
     0
 10
219.17
 20
70.4095
 30
0.0
 11
218.371
 21
70.4095
 31
0.0
  0
LINE
  8
0
 62
     0
 10
218.371
 20
70.4095
 30
0.0
 11
218.371
 21
67.3089
 31
0.0
  0
LINE
  8
0
 62
     0
 10
218.371
 20
67.3089
 30
0.0
 11
219.17
 21
67.3089
 31
0.0
  0
LINE
  8
0
 62
     0
 10
219.17
 20
67.3089
 30
0.0
 11
219.17
 21
66.3099
 31
0.0
  0
LINE
  8
0
 62
     0
 10
219.17
 20
66.3099
 30
0.0
 11
233.171
 21
66.3099
 31
0.0
  0
LINE
  8
0
 62
     0
 10
233.171
 20
66.3099
 30
0.0
 11
233.171
 21
67.3089
 31
0.0
  0
LINE
  8
0
 62
     0
 10
233.171
 20
67.3089
 30
0.0
 11
233.97
 21
67.3089
 31
0.0
  0
LINE
  8
0
 62
     0
 10
233.97
 20
67.3089
 30
0.0
 11
233.97
 21
70.4095
 31
0.0
  0
LINE
  8
0
 62
     0
 10
233.97
 20
70.4095
 30
0.0
 11
233.171
 21
70.4095
 31
0.0
  0
LINE
  8
0
 62
     0
 10
233.171
 20
70.4095
 30
0.0
 11
233.171
 21
76.2095
 31
0.0
  0
LINE
  8
0
 62
     0
 10
233.171
 20
76.2095
 30
0.0
 11
233.97
 21
76.2095
 31
0.0
  0
LINE
  8
0
 62
     0
 10
233.97
 20
76.2095
 30
0.0
 11
233.97
 21
79.309
 31
0.0
  0
LINE
  8
0
 62
     0
 10
233.97
 20
79.309
 30
0.0
 11
233.171
 21
79.309
 31
0.0
  0
LINE
  8
0
 62
     0
 10
233.171
 20
79.309
 30
0.0
 11
233.171
 21
80.3092
 31
0.0
  0
LINE
  8
0
 62
     0
 10
233.171
 20
80.3092
 30
0.0
 11
219.17
 21
80.3092
 31
0.0
  0
LINE
  8
0
 62
     0
 10
247.745
 20
80.3092
 30
0.0
 11
247.745
 21
79.309
 31
0.0
  0
LINE
  8
0
 62
     0
 10
247.745
 20
79.309
 30
0.0
 11
246.946
 21
79.309
 31
0.0
  0
LINE
  8
0
 62
     0
 10
246.946
 20
79.309
 30
0.0
 11
246.946
 21
76.2095
 31
0.0
  0
LINE
  8
0
 62
     0
 10
246.946
 20
76.2095
 30
0.0
 11
247.745
 21
76.2095
 31
0.0
  0
LINE
  8
0
 62
     0
 10
247.745
 20
76.2095
 30
0.0
 11
247.745
 21
70.4095
 31
0.0
  0
LINE
  8
0
 62
     0
 10
247.745
 20
70.4095
 30
0.0
 11
246.946
 21
70.4095
 31
0.0
  0
LINE
  8
0
 62
     0
 10
246.946
 20
70.4095
 30
0.0
 11
246.946
 21
67.3089
 31
0.0
  0
LINE
  8
0
 62
     0
 10
246.946
 20
67.3089
 30
0.0
 11
247.745
 21
67.3089
 31
0.0
  0
LINE
  8
0
 62
     0
 10
247.745
 20
67.3089
 30
0.0
 11
247.745
 21
66.3099
 31
0.0
  0
LINE
  8
0
 62
     0
 10
247.745
 20
66.3099
 30
0.0
 11
261.746
 21
66.3099
 31
0.0
  0
LINE
  8
0
 62
     0
 10
261.746
 20
66.3099
 30
0.0
 11
261.746
 21
67.3089
 31
0.0
  0
LINE
  8
0
 62
     0
 10
261.746
 20
67.3089
 30
0.0
 11
262.545
 21
67.3089
 31
0.0
  0
LINE
  8
0
 62
     0
 10
262.545
 20
67.3089
 30
0.0
 11
262.545
 21
70.4095
 31
0.0
  0
LINE
  8
0
 62
     0
 10
262.545
 20
70.4095
 30
0.0
 11
261.746
 21
70.4095
 31
0.0
  0
LINE
  8
0
 62
     0
 10
261.746
 20
70.4095
 30
0.0
 11
261.746
 21
76.2095
 31
0.0
  0
LINE
  8
0
 62
     0
 10
261.746
 20
76.2095
 30
0.0
 11
262.545
 21
76.2095
 31
0.0
  0
LINE
  8
0
 62
     0
 10
262.545
 20
76.2095
 30
0.0
 11
262.545
 21
79.309
 31
0.0
  0
LINE
  8
0
 62
     0
 10
262.545
 20
79.309
 30
0.0
 11
261.746
 21
79.309
 31
0.0
  0
LINE
  8
0
 62
     0
 10
261.746
 20
79.309
 30
0.0
 11
261.746
 21
80.3092
 31
0.0
  0
LINE
  8
0
 62
     0
 10
261.746
 20
80.3092
 30
0.0
 11
247.745
 21
80.3092
 31
0.0
  0
LINE
  8
0
 62
     0
 10
266.795
 20
80.3092
 30
0.0
 11
266.795
 21
79.309
 31
0.0
  0
LINE
  8
0
 62
     0
 10
266.795
 20
79.309
 30
0.0
 11
265.996
 21
79.309
 31
0.0
  0
LINE
  8
0
 62
     0
 10
265.996
 20
79.309
 30
0.0
 11
265.996
 21
76.2095
 31
0.0
  0
LINE
  8
0
 62
     0
 10
265.996
 20
76.2095
 30
0.0
 11
266.795
 21
76.2095
 31
0.0
  0
LINE
  8
0
 62
     0
 10
266.795
 20
76.2095
 30
0.0
 11
266.795
 21
70.4095
 31
0.0
  0
LINE
  8
0
 62
     0
 10
266.795
 20
70.4095
 30
0.0
 11
265.996
 21
70.4095
 31
0.0
  0
LINE
  8
0
 62
     0
 10
265.996
 20
70.4095
 30
0.0
 11
265.996
 21
67.3089
 31
0.0
  0
LINE
  8
0
 62
     0
 10
265.996
 20
67.3089
 30
0.0
 11
266.795
 21
67.3089
 31
0.0
  0
LINE
  8
0
 62
     0
 10
266.795
 20
67.3089
 30
0.0
 11
266.795
 21
66.3099
 31
0.0
  0
LINE
  8
0
 62
     0
 10
266.795
 20
66.3099
 30
0.0
 11
280.796
 21
66.3099
 31
0.0
  0
LINE
  8
0
 62
     0
 10
280.796
 20
66.3099
 30
0.0
 11
280.796
 21
67.3089
 31
0.0
  0
LINE
  8
0
 62
     0
 10
280.796
 20
67.3089
 30
0.0
 11
281.595
 21
67.3089
 31
0.0
  0
LINE
  8
0
 62
     0
 10
281.595
 20
67.3089
 30
0.0
 11
281.595
 21
70.4095
 31
0.0
  0
LINE
  8
0
 62
     0
 10
281.595
 20
70.4095
 30
0.0
 11
280.796
 21
70.4095
 31
0.0
  0
LINE
  8
0
 62
     0
 10
280.796
 20
70.4095
 30
0.0
 11
280.796
 21
76.2095
 31
0.0
  0
LINE
  8
0
 62
     0
 10
280.796
 20
76.2095
 30
0.0
 11
281.595
 21
76.2095
 31
0.0
  0
LINE
  8
0
 62
     0
 10
281.595
 20
76.2095
 30
0.0
 11
281.595
 21
79.309
 31
0.0
  0
LINE
  8
0
 62
     0
 10
281.595
 20
79.309
 30
0.0
 11
280.796
 21
79.309
 31
0.0
  0
LINE
  8
0
 62
     0
 10
280.796
 20
79.309
 30
0.0
 11
280.796
 21
80.3092
 31
0.0
  0
LINE
  8
0
 62
     0
 10
280.796
 20
80.3092
 30
0.0
 11
266.795
 21
80.3092
 31
0.0
  0
LINE
  8
0
 62
     0
 10
285.845
 20
80.3092
 30
0.0
 11
285.845
 21
79.309
 31
0.0
  0
LINE
  8
0
 62
     0
 10
285.845
 20
79.309
 30
0.0
 11
285.046
 21
79.309
 31
0.0
  0
LINE
  8
0
 62
     0
 10
285.046
 20
79.309
 30
0.0
 11
285.046
 21
76.2095
 31
0.0
  0
LINE
  8
0
 62
     0
 10
285.046
 20
76.2095
 30
0.0
 11
285.845
 21
76.2095
 31
0.0
  0
LINE
  8
0
 62
     0
 10
285.845
 20
76.2095
 30
0.0
 11
285.845
 21
70.4095
 31
0.0
  0
LINE
  8
0
 62
     0
 10
285.845
 20
70.4095
 30
0.0
 11
285.046
 21
70.4095
 31
0.0
  0
LINE
  8
0
 62
     0
 10
285.046
 20
70.4095
 30
0.0
 11
285.046
 21
67.3089
 31
0.0
  0
LINE
  8
0
 62
     0
 10
285.046
 20
67.3089
 30
0.0
 11
285.845
 21
67.3089
 31
0.0
  0
LINE
  8
0
 62
     0
 10
285.845
 20
67.3089
 30
0.0
 11
285.845
 21
66.3099
 31
0.0
  0
LINE
  8
0
 62
     0
 10
285.845
 20
66.3099
 30
0.0
 11
299.846
 21
66.3099
 31
0.0
  0
LINE
  8
0
 62
     0
 10
299.846
 20
66.3099
 30
0.0
 11
299.846
 21
67.3089
 31
0.0
  0
LINE
  8
0
 62
     0
 10
299.846
 20
67.3089
 30
0.0
 11
300.645
 21
67.3089
 31
0.0
  0
LINE
  8
0
 62
     0
 10
300.645
 20
67.3089
 30
0.0
 11
300.645
 21
70.4095
 31
0.0
  0
LINE
  8
0
 62
     0
 10
300.645
 20
70.4095
 30
0.0
 11
299.846
 21
70.4095
 31
0.0
  0
LINE
  8
0
 62
     0
 10
299.846
 20
70.4095
 30
0.0
 11
299.846
 21
76.2095
 31
0.0
  0
LINE
  8
0
 62
     0
 10
299.846
 20
76.2095
 30
0.0
 11
300.645
 21
76.2095
 31
0.0
  0
LINE
  8
0
 62
     0
 10
300.645
 20
76.2095
 30
0.0
 11
300.645
 21
79.309
 31
0.0
  0
LINE
  8
0
 62
     0
 10
300.645
 20
79.309
 30
0.0
 11
299.846
 21
79.309
 31
0.0
  0
LINE
  8
0
 62
     0
 10
299.846
 20
79.309
 30
0.0
 11
299.846
 21
80.3092
 31
0.0
  0
LINE
  8
0
 62
     0
 10
299.846
 20
80.3092
 30
0.0
 11
285.845
 21
80.3092
 31
0.0
  0
LINE
  8
0
 62
     0
 10
247.745
 20
99.3592
 30
0.0
 11
247.745
 21
98.359
 31
0.0
  0
LINE
  8
0
 62
     0
 10
247.745
 20
98.359
 30
0.0
 11
246.944
 21
98.359
 31
0.0
  0
LINE
  8
0
 62
     0
 10
246.944
 20
98.359
 30
0.0
 11
246.944
 21
95.2595
 31
0.0
  0
LINE
  8
0
 62
     0
 10
246.944
 20
95.2595
 30
0.0
 11
247.745
 21
95.2595
 31
0.0
  0
LINE
  8
0
 62
     0
 10
247.745
 20
95.2595
 30
0.0
 11
247.745
 21
89.4595
 31
0.0
  0
LINE
  8
0
 62
     0
 10
247.745
 20
89.4595
 30
0.0
 11
246.944
 21
89.4595
 31
0.0
  0
LINE
  8
0
 62
     0
 10
246.944
 20
89.4595
 30
0.0
 11
246.944
 21
86.3589
 31
0.0
  0
LINE
  8
0
 62
     0
 10
246.944
 20
86.3589
 30
0.0
 11
247.745
 21
86.3589
 31
0.0
  0
LINE
  8
0
 62
     0
 10
247.745
 20
86.3589
 30
0.0
 11
247.745
 21
85.3599
 31
0.0
  0
LINE
  8
0
 62
     0
 10
247.745
 20
85.3599
 30
0.0
 11
261.746
 21
85.3599
 31
0.0
  0
LINE
  8
0
 62
     0
 10
261.746
 20
85.3599
 30
0.0
 11
261.746
 21
86.3589
 31
0.0
  0
LINE
  8
0
 62
     0
 10
261.746
 20
86.3589
 30
0.0
 11
262.545
 21
86.3589
 31
0.0
  0
LINE
  8
0
 62
     0
 10
262.545
 20
86.3589
 30
0.0
 11
262.545
 21
89.4595
 31
0.0
  0
LINE
  8
0
 62
     0
 10
262.545
 20
89.4595
 30
0.0
 11
261.746
 21
89.4595
 31
0.0
  0
LINE
  8
0
 62
     0
 10
261.746
 20
89.4595
 30
0.0
 11
261.746
 21
95.2595
 31
0.0
  0
LINE
  8
0
 62
     0
 10
261.746
 20
95.2595
 30
0.0
 11
262.545
 21
95.2595
 31
0.0
  0
LINE
  8
0
 62
     0
 10
262.545
 20
95.2595
 30
0.0
 11
262.545
 21
98.359
 31
0.0
  0
LINE
  8
0
 62
     0
 10
262.545
 20
98.359
 30
0.0
 11
261.746
 21
98.359
 31
0.0
  0
LINE
  8
0
 62
     0
 10
261.746
 20
98.359
 30
0.0
 11
261.746
 21
99.3592
 31
0.0
  0
LINE
  8
0
 62
     0
 10
261.746
 20
99.3592
 30
0.0
 11
247.745
 21
99.3592
 31
0.0
  0
LINE
  8
0
 62
     0
 10
266.795
 20
99.3592
 30
0.0
 11
266.795
 21
98.359
 31
0.0
  0
LINE
  8
0
 62
     0
 10
266.795
 20
98.359
 30
0.0
 11
265.996
 21
98.359
 31
0.0
  0
LINE
  8
0
 62
     0
 10
265.996
 20
98.359
 30
0.0
 11
265.996
 21
95.2595
 31
0.0
  0
LINE
  8
0
 62
     0
 10
265.996
 20
95.2595
 30
0.0
 11
266.795
 21
95.2595
 31
0.0
  0
LINE
  8
0
 62
     0
 10
266.795
 20
95.2595
 30
0.0
 11
266.795
 21
89.4595
 31
0.0
  0
LINE
  8
0
 62
     0
 10
266.795
 20
89.4595
 30
0.0
 11
265.996
 21
89.4595
 31
0.0
  0
LINE
  8
0
 62
     0
 10
265.996
 20
89.4595
 30
0.0
 11
265.996
 21
86.3589
 31
0.0
  0
LINE
  8
0
 62
     0
 10
265.996
 20
86.3589
 30
0.0
 11
266.795
 21
86.3589
 31
0.0
  0
LINE
  8
0
 62
     0
 10
266.795
 20
86.3589
 30
0.0
 11
266.795
 21
85.3599
 31
0.0
  0
LINE
  8
0
 62
     0
 10
266.795
 20
85.3599
 30
0.0
 11
280.796
 21
85.3599
 31
0.0
  0
LINE
  8
0
 62
     0
 10
280.796
 20
85.3599
 30
0.0
 11
280.796
 21
86.3589
 31
0.0
  0
LINE
  8
0
 62
     0
 10
280.796
 20
86.3589
 30
0.0
 11
281.595
 21
86.3589
 31
0.0
  0
LINE
  8
0
 62
     0
 10
281.595
 20
86.3589
 30
0.0
 11
281.595
 21
89.4595
 31
0.0
  0
LINE
  8
0
 62
     0
 10
281.595
 20
89.4595
 30
0.0
 11
280.796
 21
89.4595
 31
0.0
  0
LINE
  8
0
 62
     0
 10
280.796
 20
89.4595
 30
0.0
 11
280.796
 21
95.2595
 31
0.0
  0
LINE
  8
0
 62
     0
 10
280.796
 20
95.2595
 30
0.0
 11
281.595
 21
95.2595
 31
0.0
  0
LINE
  8
0
 62
     0
 10
281.595
 20
95.2595
 30
0.0
 11
281.595
 21
98.359
 31
0.0
  0
LINE
  8
0
 62
     0
 10
281.595
 20
98.359
 30
0.0
 11
280.796
 21
98.359
 31
0.0
  0
LINE
  8
0
 62
     0
 10
280.796
 20
98.359
 30
0.0
 11
280.796
 21
99.3592
 31
0.0
  0
LINE
  8
0
 62
     0
 10
280.796
 20
99.3592
 30
0.0
 11
266.795
 21
99.3592
 31
0.0
  0
LINE
  8
0
 62
     0
 10
285.845
 20
99.3592
 30
0.0
 11
285.845
 21
98.359
 31
0.0
  0
LINE
  8
0
 62
     0
 10
285.845
 20
98.359
 30
0.0
 11
285.046
 21
98.359
 31
0.0
  0
LINE
  8
0
 62
     0
 10
285.046
 20
98.359
 30
0.0
 11
285.046
 21
95.2595
 31
0.0
  0
LINE
  8
0
 62
     0
 10
285.046
 20
95.2595
 30
0.0
 11
285.845
 21
95.2595
 31
0.0
  0
LINE
  8
0
 62
     0
 10
285.845
 20
95.2595
 30
0.0
 11
285.845
 21
89.4595
 31
0.0
  0
LINE
  8
0
 62
     0
 10
285.845
 20
89.4595
 30
0.0
 11
285.046
 21
89.4595
 31
0.0
  0
LINE
  8
0
 62
     0
 10
285.046
 20
89.4595
 30
0.0
 11
285.046
 21
86.3589
 31
0.0
  0
LINE
  8
0
 62
     0
 10
285.046
 20
86.3589
 30
0.0
 11
285.845
 21
86.3589
 31
0.0
  0
LINE
  8
0
 62
     0
 10
285.845
 20
86.3589
 30
0.0
 11
285.845
 21
85.3599
 31
0.0
  0
LINE
  8
0
 62
     0
 10
285.845
 20
85.3599
 30
0.0
 11
299.846
 21
85.3599
 31
0.0
  0
LINE
  8
0
 62
     0
 10
299.846
 20
85.3599
 30
0.0
 11
299.846
 21
86.3589
 31
0.0
  0
LINE
  8
0
 62
     0
 10
299.846
 20
86.3589
 30
0.0
 11
300.645
 21
86.3589
 31
0.0
  0
LINE
  8
0
 62
     0
 10
300.645
 20
86.3589
 30
0.0
 11
300.645
 21
89.4595
 31
0.0
  0
LINE
  8
0
 62
     0
 10
300.645
 20
89.4595
 30
0.0
 11
299.846
 21
89.4595
 31
0.0
  0
LINE
  8
0
 62
     0
 10
299.846
 20
89.4595
 30
0.0
 11
299.846
 21
95.2595
 31
0.0
  0
LINE
  8
0
 62
     0
 10
299.846
 20
95.2595
 30
0.0
 11
300.645
 21
95.2595
 31
0.0
  0
LINE
  8
0
 62
     0
 10
300.645
 20
95.2595
 30
0.0
 11
300.645
 21
98.359
 31
0.0
  0
LINE
  8
0
 62
     0
 10
300.645
 20
98.359
 30
0.0
 11
299.846
 21
98.359
 31
0.0
  0
LINE
  8
0
 62
     0
 10
299.846
 20
98.359
 30
0.0
 11
299.846
 21
99.3592
 31
0.0
  0
LINE
  8
0
 62
     0
 10
299.846
 20
99.3592
 30
0.0
 11
285.845
 21
99.3592
 31
0.0
  0
LINE
  8
0
 62
     0
 10
9.62007
 20
104.122
 30
0.0
 11
9.62007
 21
103.123
 31
0.0
  0
LINE
  8
0
 62
     0
 10
9.62007
 20
103.123
 30
0.0
 11
8.81944
 21
103.123
 31
0.0
  0
LINE
  8
0
 62
     0
 10
8.81944
 20
103.123
 30
0.0
 11
8.81944
 21
100.021
 31
0.0
  0
LINE
  8
0
 62
     0
 10
8.81944
 20
100.021
 30
0.0
 11
9.62007
 21
100.021
 31
0.0
  0
LINE
  8
0
 62
     0
 10
9.62007
 20
100.021
 30
0.0
 11
9.62007
 21
94.222
 31
0.0
  0
LINE
  8
0
 62
     0
 10
9.62007
 20
94.222
 30
0.0
 11
8.81944
 21
94.222
 31
0.0
  0
LINE
  8
0
 62
     0
 10
8.81944
 20
94.222
 30
0.0
 11
8.81944
 21
91.1214
 31
0.0
  0
LINE
  8
0
 62
     0
 10
8.81944
 20
91.1214
 30
0.0
 11
9.62007
 21
91.1214
 31
0.0
  0
LINE
  8
0
 62
     0
 10
9.62007
 20
91.1214
 30
0.0
 11
9.62007
 21
90.121
 31
0.0
  0
LINE
  8
0
 62
     0
 10
9.62007
 20
90.121
 30
0.0
 11
23.6209
 21
90.121
 31
0.0
  0
LINE
  8
0
 62
     0
 10
23.6209
 20
90.121
 30
0.0
 11
23.6209
 21
91.1214
 31
0.0
  0
LINE
  8
0
 62
     0
 10
23.6209
 20
91.1214
 30
0.0
 11
24.4202
 21
91.1214
 31
0.0
  0
LINE
  8
0
 62
     0
 10
24.4202
 20
91.1214
 30
0.0
 11
24.4202
 21
94.222
 31
0.0
  0
LINE
  8
0
 62
     0
 10
24.4202
 20
94.222
 30
0.0
 11
23.6209
 21
94.222
 31
0.0
  0
LINE
  8
0
 62
     0
 10
23.6209
 20
94.222
 30
0.0
 11
23.6209
 21
100.021
 31
0.0
  0
LINE
  8
0
 62
     0
 10
23.6209
 20
100.021
 30
0.0
 11
24.4202
 21
100.021
 31
0.0
  0
LINE
  8
0
 62
     0
 10
24.4202
 20
100.021
 30
0.0
 11
24.4202
 21
103.123
 31
0.0
  0
LINE
  8
0
 62
     0
 10
24.4202
 20
103.123
 30
0.0
 11
23.6209
 21
103.123
 31
0.0
  0
LINE
  8
0
 62
     0
 10
23.6209
 20
103.123
 30
0.0
 11
23.6209
 21
104.122
 31
0.0
  0
LINE
  8
0
 62
     0
 10
23.6209
 20
104.122
 30
0.0
 11
9.62007
 21
104.122
 31
0.0
  0
LINE
  8
0
 62
     0
 10
38.1952
 20
104.122
 30
0.0
 11
38.1952
 21
103.123
 31
0.0
  0
LINE
  8
0
 62
     0
 10
38.1952
 20
103.123
 30
0.0
 11
37.3959
 21
103.123
 31
0.0
  0
LINE
  8
0
 62
     0
 10
37.3959
 20
103.123
 30
0.0
 11
37.3959
 21
100.021
 31
0.0
  0
LINE
  8
0
 62
     0
 10
37.3959
 20
100.021
 30
0.0
 11
38.1952
 21
100.021
 31
0.0
  0
LINE
  8
0
 62
     0
 10
38.1952
 20
100.021
 30
0.0
 11
38.1952
 21
94.222
 31
0.0
  0
LINE
  8
0
 62
     0
 10
38.1952
 20
94.222
 30
0.0
 11
37.3959
 21
94.222
 31
0.0
  0
LINE
  8
0
 62
     0
 10
37.3959
 20
94.222
 30
0.0
 11
37.3959
 21
91.1214
 31
0.0
  0
LINE
  8
0
 62
     0
 10
37.3959
 20
91.1214
 30
0.0
 11
38.1952
 21
91.1214
 31
0.0
  0
LINE
  8
0
 62
     0
 10
38.1952
 20
91.1214
 30
0.0
 11
38.1952
 21
90.121
 31
0.0
  0
LINE
  8
0
 62
     0
 10
38.1952
 20
90.121
 30
0.0
 11
52.1959
 21
90.121
 31
0.0
  0
LINE
  8
0
 62
     0
 10
52.1959
 20
90.121
 30
0.0
 11
52.1959
 21
91.1214
 31
0.0
  0
LINE
  8
0
 62
     0
 10
52.1959
 20
91.1214
 30
0.0
 11
52.9953
 21
91.1214
 31
0.0
  0
LINE
  8
0
 62
     0
 10
52.9953
 20
91.1214
 30
0.0
 11
52.9953
 21
94.222
 31
0.0
  0
LINE
  8
0
 62
     0
 10
52.9953
 20
94.222
 30
0.0
 11
52.1959
 21
94.222
 31
0.0
  0
LINE
  8
0
 62
     0
 10
52.1959
 20
94.222
 30
0.0
 11
52.1959
 21
100.021
 31
0.0
  0
LINE
  8
0
 62
     0
 10
52.1959
 20
100.021
 30
0.0
 11
52.9953
 21
100.021
 31
0.0
  0
LINE
  8
0
 62
     0
 10
52.9953
 20
100.021
 30
0.0
 11
52.9953
 21
103.123
 31
0.0
  0
LINE
  8
0
 62
     0
 10
52.9953
 20
103.123
 30
0.0
 11
52.1959
 21
103.123
 31
0.0
  0
LINE
  8
0
 62
     0
 10
52.1959
 20
103.123
 30
0.0
 11
52.1959
 21
104.122
 31
0.0
  0
LINE
  8
0
 62
     0
 10
52.1959
 20
104.122
 30
0.0
 11
38.1952
 21
104.122
 31
0.0
  0
LINE
  8
0
 62
     0
 10
57.2453
 20
104.122
 30
0.0
 11
57.2453
 21
103.123
 31
0.0
  0
LINE
  8
0
 62
     0
 10
57.2453
 20
103.123
 30
0.0
 11
56.4459
 21
103.123
 31
0.0
  0
LINE
  8
0
 62
     0
 10
56.4459
 20
103.123
 30
0.0
 11
56.4459
 21
100.021
 31
0.0
  0
LINE
  8
0
 62
     0
 10
56.4459
 20
100.021
 30
0.0
 11
57.2453
 21
100.021
 31
0.0
  0
LINE
  8
0
 62
     0
 10
57.2453
 20
100.021
 30
0.0
 11
57.2453
 21
94.222
 31
0.0
  0
LINE
  8
0
 62
     0
 10
57.2453
 20
94.222
 30
0.0
 11
56.4459
 21
94.222
 31
0.0
  0
LINE
  8
0
 62
     0
 10
56.4459
 20
94.222
 30
0.0
 11
56.4459
 21
91.1214
 31
0.0
  0
LINE
  8
0
 62
     0
 10
56.4459
 20
91.1214
 30
0.0
 11
57.2453
 21
91.1214
 31
0.0
  0
LINE
  8
0
 62
     0
 10
57.2453
 20
91.1214
 30
0.0
 11
57.2453
 21
90.121
 31
0.0
  0
LINE
  8
0
 62
     0
 10
57.2453
 20
90.121
 30
0.0
 11
71.2459
 21
90.121
 31
0.0
  0
LINE
  8
0
 62
     0
 10
71.2459
 20
90.121
 30
0.0
 11
71.2459
 21
91.1214
 31
0.0
  0
LINE
  8
0
 62
     0
 10
71.2459
 20
91.1214
 30
0.0
 11
72.0453
 21
91.1214
 31
0.0
  0
LINE
  8
0
 62
     0
 10
72.0453
 20
91.1214
 30
0.0
 11
72.0453
 21
94.222
 31
0.0
  0
LINE
  8
0
 62
     0
 10
72.0453
 20
94.222
 30
0.0
 11
71.2459
 21
94.222
 31
0.0
  0
LINE
  8
0
 62
     0
 10
71.2459
 20
94.222
 30
0.0
 11
71.2459
 21
100.021
 31
0.0
  0
LINE
  8
0
 62
     0
 10
71.2459
 20
100.021
 30
0.0
 11
72.0453
 21
100.021
 31
0.0
  0
LINE
  8
0
 62
     0
 10
72.0453
 20
100.021
 30
0.0
 11
72.0453
 21
103.123
 31
0.0
  0
LINE
  8
0
 62
     0
 10
72.0453
 20
103.123
 30
0.0
 11
71.2459
 21
103.123
 31
0.0
  0
LINE
  8
0
 62
     0
 10
71.2459
 20
103.123
 30
0.0
 11
71.2459
 21
104.122
 31
0.0
  0
LINE
  8
0
 62
     0
 10
71.2459
 20
104.122
 30
0.0
 11
57.2453
 21
104.122
 31
0.0
  0
LINE
  8
0
 62
     0
 10
76.2953
 20
104.122
 30
0.0
 11
76.2953
 21
103.123
 31
0.0
  0
LINE
  8
0
 62
     0
 10
76.2953
 20
103.123
 30
0.0
 11
75.4959
 21
103.123
 31
0.0
  0
LINE
  8
0
 62
     0
 10
75.4959
 20
103.123
 30
0.0
 11
75.4959
 21
100.021
 31
0.0
  0
LINE
  8
0
 62
     0
 10
75.4959
 20
100.021
 30
0.0
 11
76.2953
 21
100.021
 31
0.0
  0
LINE
  8
0
 62
     0
 10
76.2953
 20
100.021
 30
0.0
 11
76.2953
 21
94.222
 31
0.0
  0
LINE
  8
0
 62
     0
 10
76.2953
 20
94.222
 30
0.0
 11
75.4959
 21
94.222
 31
0.0
  0
LINE
  8
0
 62
     0
 10
75.4959
 20
94.222
 30
0.0
 11
75.4959
 21
91.1214
 31
0.0
  0
LINE
  8
0
 62
     0
 10
75.4959
 20
91.1214
 30
0.0
 11
76.2953
 21
91.1214
 31
0.0
  0
LINE
  8
0
 62
     0
 10
76.2953
 20
91.1214
 30
0.0
 11
76.2953
 21
90.121
 31
0.0
  0
LINE
  8
0
 62
     0
 10
76.2953
 20
90.121
 30
0.0
 11
90.2959
 21
90.121
 31
0.0
  0
LINE
  8
0
 62
     0
 10
90.2959
 20
90.121
 30
0.0
 11
90.2959
 21
91.1214
 31
0.0
  0
LINE
  8
0
 62
     0
 10
90.2959
 20
91.1214
 30
0.0
 11
91.0953
 21
91.1214
 31
0.0
  0
LINE
  8
0
 62
     0
 10
91.0953
 20
91.1214
 30
0.0
 11
91.0953
 21
94.222
 31
0.0
  0
LINE
  8
0
 62
     0
 10
91.0953
 20
94.222
 30
0.0
 11
90.2959
 21
94.222
 31
0.0
  0
LINE
  8
0
 62
     0
 10
90.2959
 20
94.222
 30
0.0
 11
90.2959
 21
100.021
 31
0.0
  0
LINE
  8
0
 62
     0
 10
90.2959
 20
100.021
 30
0.0
 11
91.0953
 21
100.021
 31
0.0
  0
LINE
  8
0
 62
     0
 10
91.0953
 20
100.021
 30
0.0
 11
91.0953
 21
103.123
 31
0.0
  0
LINE
  8
0
 62
     0
 10
91.0953
 20
103.123
 30
0.0
 11
90.2959
 21
103.123
 31
0.0
  0
LINE
  8
0
 62
     0
 10
90.2959
 20
103.123
 30
0.0
 11
90.2959
 21
104.122
 31
0.0
  0
LINE
  8
0
 62
     0
 10
90.2959
 20
104.122
 30
0.0
 11
76.2953
 21
104.122
 31
0.0
  0
LINE
  8
0
 62
     0
 10
109.633
 20
104.122
 30
0.0
 11
109.633
 21
103.123
 31
0.0
  0
LINE
  8
0
 62
     0
 10
109.633
 20
103.123
 30
0.0
 11
108.832
 21
103.123
 31
0.0
  0
LINE
  8
0
 62
     0
 10
108.832
 20
103.123
 30
0.0
 11
108.832
 21
100.021
 31
0.0
  0
LINE
  8
0
 62
     0
 10
108.832
 20
100.021
 30
0.0
 11
109.633
 21
100.021
 31
0.0
  0
LINE
  8
0
 62
     0
 10
109.633
 20
100.021
 30
0.0
 11
109.633
 21
94.222
 31
0.0
  0
LINE
  8
0
 62
     0
 10
109.633
 20
94.222
 30
0.0
 11
108.832
 21
94.222
 31
0.0
  0
LINE
  8
0
 62
     0
 10
108.832
 20
94.222
 30
0.0
 11
108.832
 21
91.1214
 31
0.0
  0
LINE
  8
0
 62
     0
 10
108.832
 20
91.1214
 30
0.0
 11
109.633
 21
91.1214
 31
0.0
  0
LINE
  8
0
 62
     0
 10
109.633
 20
91.1214
 30
0.0
 11
109.633
 21
90.121
 31
0.0
  0
LINE
  8
0
 62
     0
 10
109.633
 20
90.121
 30
0.0
 11
123.632
 21
90.121
 31
0.0
  0
LINE
  8
0
 62
     0
 10
123.632
 20
90.121
 30
0.0
 11
123.632
 21
91.1214
 31
0.0
  0
LINE
  8
0
 62
     0
 10
123.632
 20
91.1214
 30
0.0
 11
124.431
 21
91.1214
 31
0.0
  0
LINE
  8
0
 62
     0
 10
124.431
 20
91.1214
 30
0.0
 11
124.431
 21
94.222
 31
0.0
  0
LINE
  8
0
 62
     0
 10
124.431
 20
94.222
 30
0.0
 11
123.632
 21
94.222
 31
0.0
  0
LINE
  8
0
 62
     0
 10
123.632
 20
94.222
 30
0.0
 11
123.632
 21
100.021
 31
0.0
  0
LINE
  8
0
 62
     0
 10
123.632
 20
100.021
 30
0.0
 11
124.431
 21
100.021
 31
0.0
  0
LINE
  8
0
 62
     0
 10
124.431
 20
100.021
 30
0.0
 11
124.431
 21
103.123
 31
0.0
  0
LINE
  8
0
 62
     0
 10
124.431
 20
103.123
 30
0.0
 11
123.632
 21
103.123
 31
0.0
  0
LINE
  8
0
 62
     0
 10
123.632
 20
103.123
 30
0.0
 11
123.632
 21
104.122
 31
0.0
  0
LINE
  8
0
 62
     0
 10
123.632
 20
104.122
 30
0.0
 11
109.633
 21
104.122
 31
0.0
  0
LINE
  8
0
 62
     0
 10
128.683
 20
104.122
 30
0.0
 11
128.683
 21
103.123
 31
0.0
  0
LINE
  8
0
 62
     0
 10
128.683
 20
103.123
 30
0.0
 11
127.882
 21
103.123
 31
0.0
  0
LINE
  8
0
 62
     0
 10
127.882
 20
103.123
 30
0.0
 11
127.882
 21
100.021
 31
0.0
  0
LINE
  8
0
 62
     0
 10
127.882
 20
100.021
 30
0.0
 11
128.683
 21
100.021
 31
0.0
  0
LINE
  8
0
 62
     0
 10
128.683
 20
100.021
 30
0.0
 11
128.683
 21
94.222
 31
0.0
  0
LINE
  8
0
 62
     0
 10
128.683
 20
94.222
 30
0.0
 11
127.882
 21
94.222
 31
0.0
  0
LINE
  8
0
 62
     0
 10
127.882
 20
94.222
 30
0.0
 11
127.882
 21
91.1214
 31
0.0
  0
LINE
  8
0
 62
     0
 10
127.882
 20
91.1214
 30
0.0
 11
128.683
 21
91.1214
 31
0.0
  0
LINE
  8
0
 62
     0
 10
128.683
 20
91.1214
 30
0.0
 11
128.683
 21
90.121
 31
0.0
  0
LINE
  8
0
 62
     0
 10
128.683
 20
90.121
 30
0.0
 11
142.682
 21
90.121
 31
0.0
  0
LINE
  8
0
 62
     0
 10
142.682
 20
90.121
 30
0.0
 11
142.682
 21
91.1214
 31
0.0
  0
LINE
  8
0
 62
     0
 10
142.682
 20
91.1214
 30
0.0
 11
143.483
 21
91.1214
 31
0.0
  0
LINE
  8
0
 62
     0
 10
143.483
 20
91.1214
 30
0.0
 11
143.483
 21
94.222
 31
0.0
  0
LINE
  8
0
 62
     0
 10
143.483
 20
94.222
 30
0.0
 11
142.682
 21
94.222
 31
0.0
  0
LINE
  8
0
 62
     0
 10
142.682
 20
94.222
 30
0.0
 11
142.682
 21
100.021
 31
0.0
  0
LINE
  8
0
 62
     0
 10
142.682
 20
100.021
 30
0.0
 11
143.483
 21
100.021
 31
0.0
  0
LINE
  8
0
 62
     0
 10
143.483
 20
100.021
 30
0.0
 11
143.483
 21
103.123
 31
0.0
  0
LINE
  8
0
 62
     0
 10
143.483
 20
103.123
 30
0.0
 11
142.682
 21
103.123
 31
0.0
  0
LINE
  8
0
 62
     0
 10
142.682
 20
103.123
 30
0.0
 11
142.682
 21
104.122
 31
0.0
  0
LINE
  8
0
 62
     0
 10
142.682
 20
104.122
 30
0.0
 11
128.683
 21
104.122
 31
0.0
  0
LINE
  8
0
 62
     0
 10
147.733
 20
104.122
 30
0.0
 11
147.733
 21
103.123
 31
0.0
  0
LINE
  8
0
 62
     0
 10
147.733
 20
103.123
 30
0.0
 11
146.932
 21
103.123
 31
0.0
  0
LINE
  8
0
 62
     0
 10
146.932
 20
103.123
 30
0.0
 11
146.932
 21
100.021
 31
0.0
  0
LINE
  8
0
 62
     0
 10
146.932
 20
100.021
 30
0.0
 11
147.733
 21
100.021
 31
0.0
  0
LINE
  8
0
 62
     0
 10
147.733
 20
100.021
 30
0.0
 11
147.733
 21
94.222
 31
0.0
  0
LINE
  8
0
 62
     0
 10
147.733
 20
94.222
 30
0.0
 11
146.932
 21
94.222
 31
0.0
  0
LINE
  8
0
 62
     0
 10
146.932
 20
94.222
 30
0.0
 11
146.932
 21
91.1214
 31
0.0
  0
LINE
  8
0
 62
     0
 10
146.932
 20
91.1214
 30
0.0
 11
147.733
 21
91.1214
 31
0.0
  0
LINE
  8
0
 62
     0
 10
147.733
 20
91.1214
 30
0.0
 11
147.733
 21
90.121
 31
0.0
  0
LINE
  8
0
 62
     0
 10
147.733
 20
90.121
 30
0.0
 11
161.732
 21
90.121
 31
0.0
  0
LINE
  8
0
 62
     0
 10
161.732
 20
90.121
 30
0.0
 11
161.732
 21
91.1214
 31
0.0
  0
LINE
  8
0
 62
     0
 10
161.732
 20
91.1214
 30
0.0
 11
162.533
 21
91.1214
 31
0.0
  0
LINE
  8
0
 62
     0
 10
162.533
 20
91.1214
 30
0.0
 11
162.533
 21
94.222
 31
0.0
  0
LINE
  8
0
 62
     0
 10
162.533
 20
94.222
 30
0.0
 11
161.732
 21
94.222
 31
0.0
  0
LINE
  8
0
 62
     0
 10
161.732
 20
94.222
 30
0.0
 11
161.732
 21
100.021
 31
0.0
  0
LINE
  8
0
 62
     0
 10
161.732
 20
100.021
 30
0.0
 11
162.533
 21
100.021
 31
0.0
  0
LINE
  8
0
 62
     0
 10
162.533
 20
100.021
 30
0.0
 11
162.533
 21
103.123
 31
0.0
  0
LINE
  8
0
 62
     0
 10
162.533
 20
103.123
 30
0.0
 11
161.732
 21
103.123
 31
0.0
  0
LINE
  8
0
 62
     0
 10
161.732
 20
103.123
 30
0.0
 11
161.732
 21
104.122
 31
0.0
  0
LINE
  8
0
 62
     0
 10
161.732
 20
104.122
 30
0.0
 11
147.733
 21
104.122
 31
0.0
  0
LINE
  8
0
 62
     0
 10
181.07
 20
104.122
 30
0.0
 11
181.07
 21
103.123
 31
0.0
  0
LINE
  8
0
 62
     0
 10
181.07
 20
103.123
 30
0.0
 11
180.271
 21
103.123
 31
0.0
  0
LINE
  8
0
 62
     0
 10
180.271
 20
103.123
 30
0.0
 11
180.271
 21
100.021
 31
0.0
  0
LINE
  8
0
 62
     0
 10
180.271
 20
100.021
 30
0.0
 11
181.07
 21
100.021
 31
0.0
  0
LINE
  8
0
 62
     0
 10
181.07
 20
100.021
 30
0.0
 11
181.07
 21
94.222
 31
0.0
  0
LINE
  8
0
 62
     0
 10
181.07
 20
94.222
 30
0.0
 11
180.271
 21
94.222
 31
0.0
  0
LINE
  8
0
 62
     0
 10
180.271
 20
94.222
 30
0.0
 11
180.271
 21
91.1214
 31
0.0
  0
LINE
  8
0
 62
     0
 10
180.271
 20
91.1214
 30
0.0
 11
181.07
 21
91.1214
 31
0.0
  0
LINE
  8
0
 62
     0
 10
181.07
 20
91.1214
 30
0.0
 11
181.07
 21
90.121
 31
0.0
  0
LINE
  8
0
 62
     0
 10
181.07
 20
90.121
 30
0.0
 11
195.071
 21
90.121
 31
0.0
  0
LINE
  8
0
 62
     0
 10
195.071
 20
90.121
 30
0.0
 11
195.071
 21
91.1214
 31
0.0
  0
LINE
  8
0
 62
     0
 10
195.071
 20
91.1214
 30
0.0
 11
195.87
 21
91.1214
 31
0.0
  0
LINE
  8
0
 62
     0
 10
195.87
 20
91.1214
 30
0.0
 11
195.87
 21
94.222
 31
0.0
  0
LINE
  8
0
 62
     0
 10
195.87
 20
94.222
 30
0.0
 11
195.071
 21
94.222
 31
0.0
  0
LINE
  8
0
 62
     0
 10
195.071
 20
94.222
 30
0.0
 11
195.071
 21
100.021
 31
0.0
  0
LINE
  8
0
 62
     0
 10
195.071
 20
100.021
 30
0.0
 11
195.87
 21
100.021
 31
0.0
  0
LINE
  8
0
 62
     0
 10
195.87
 20
100.021
 30
0.0
 11
195.87
 21
103.123
 31
0.0
  0
LINE
  8
0
 62
     0
 10
195.87
 20
103.123
 30
0.0
 11
195.071
 21
103.123
 31
0.0
  0
LINE
  8
0
 62
     0
 10
195.071
 20
103.123
 30
0.0
 11
195.071
 21
104.122
 31
0.0
  0
LINE
  8
0
 62
     0
 10
195.071
 20
104.122
 30
0.0
 11
181.07
 21
104.122
 31
0.0
  0
LINE
  8
0
 62
     0
 10
200.12
 20
104.122
 30
0.0
 11
200.12
 21
103.123
 31
0.0
  0
LINE
  8
0
 62
     0
 10
200.12
 20
103.123
 30
0.0
 11
199.321
 21
103.123
 31
0.0
  0
LINE
  8
0
 62
     0
 10
199.321
 20
103.123
 30
0.0
 11
199.321
 21
100.021
 31
0.0
  0
LINE
  8
0
 62
     0
 10
199.321
 20
100.021
 30
0.0
 11
200.12
 21
100.021
 31
0.0
  0
LINE
  8
0
 62
     0
 10
200.12
 20
100.021
 30
0.0
 11
200.12
 21
94.222
 31
0.0
  0
LINE
  8
0
 62
     0
 10
200.12
 20
94.222
 30
0.0
 11
199.321
 21
94.222
 31
0.0
  0
LINE
  8
0
 62
     0
 10
199.321
 20
94.222
 30
0.0
 11
199.321
 21
91.1214
 31
0.0
  0
LINE
  8
0
 62
     0
 10
199.321
 20
91.1214
 30
0.0
 11
200.12
 21
91.1214
 31
0.0
  0
LINE
  8
0
 62
     0
 10
200.12
 20
91.1214
 30
0.0
 11
200.12
 21
90.121
 31
0.0
  0
LINE
  8
0
 62
     0
 10
200.12
 20
90.121
 30
0.0
 11
214.121
 21
90.121
 31
0.0
  0
LINE
  8
0
 62
     0
 10
214.121
 20
90.121
 30
0.0
 11
214.121
 21
91.1214
 31
0.0
  0
LINE
  8
0
 62
     0
 10
214.121
 20
91.1214
 30
0.0
 11
214.92
 21
91.1214
 31
0.0
  0
LINE
  8
0
 62
     0
 10
214.92
 20
91.1214
 30
0.0
 11
214.92
 21
94.222
 31
0.0
  0
LINE
  8
0
 62
     0
 10
214.92
 20
94.222
 30
0.0
 11
214.121
 21
94.222
 31
0.0
  0
LINE
  8
0
 62
     0
 10
214.121
 20
94.222
 30
0.0
 11
214.121
 21
100.021
 31
0.0
  0
LINE
  8
0
 62
     0
 10
214.121
 20
100.021
 30
0.0
 11
214.92
 21
100.021
 31
0.0
  0
LINE
  8
0
 62
     0
 10
214.92
 20
100.021
 30
0.0
 11
214.92
 21
103.123
 31
0.0
  0
LINE
  8
0
 62
     0
 10
214.92
 20
103.123
 30
0.0
 11
214.121
 21
103.123
 31
0.0
  0
LINE
  8
0
 62
     0
 10
214.121
 20
103.123
 30
0.0
 11
214.121
 21
104.122
 31
0.0
  0
LINE
  8
0
 62
     0
 10
214.121
 20
104.122
 30
0.0
 11
200.12
 21
104.122
 31
0.0
  0
LINE
  8
0
 62
     0
 10
219.17
 20
104.122
 30
0.0
 11
219.17
 21
103.123
 31
0.0
  0
LINE
  8
0
 62
     0
 10
219.17
 20
103.123
 30
0.0
 11
218.371
 21
103.123
 31
0.0
  0
LINE
  8
0
 62
     0
 10
218.371
 20
103.123
 30
0.0
 11
218.371
 21
100.021
 31
0.0
  0
LINE
  8
0
 62
     0
 10
218.371
 20
100.021
 30
0.0
 11
219.17
 21
100.021
 31
0.0
  0
LINE
  8
0
 62
     0
 10
219.17
 20
100.021
 30
0.0
 11
219.17
 21
94.222
 31
0.0
  0
LINE
  8
0
 62
     0
 10
219.17
 20
94.222
 30
0.0
 11
218.371
 21
94.222
 31
0.0
  0
LINE
  8
0
 62
     0
 10
218.371
 20
94.222
 30
0.0
 11
218.371
 21
91.1214
 31
0.0
  0
LINE
  8
0
 62
     0
 10
218.371
 20
91.1214
 30
0.0
 11
219.17
 21
91.1214
 31
0.0
  0
LINE
  8
0
 62
     0
 10
219.17
 20
91.1214
 30
0.0
 11
219.17
 21
90.121
 31
0.0
  0
LINE
  8
0
 62
     0
 10
219.17
 20
90.121
 30
0.0
 11
233.171
 21
90.121
 31
0.0
  0
LINE
  8
0
 62
     0
 10
233.171
 20
90.121
 30
0.0
 11
233.171
 21
91.1214
 31
0.0
  0
LINE
  8
0
 62
     0
 10
233.171
 20
91.1214
 30
0.0
 11
233.97
 21
91.1214
 31
0.0
  0
LINE
  8
0
 62
     0
 10
233.97
 20
91.1214
 30
0.0
 11
233.97
 21
94.222
 31
0.0
  0
LINE
  8
0
 62
     0
 10
233.97
 20
94.222
 30
0.0
 11
233.171
 21
94.222
 31
0.0
  0
LINE
  8
0
 62
     0
 10
233.171
 20
94.222
 30
0.0
 11
233.171
 21
100.021
 31
0.0
  0
LINE
  8
0
 62
     0
 10
233.171
 20
100.021
 30
0.0
 11
233.97
 21
100.021
 31
0.0
  0
LINE
  8
0
 62
     0
 10
233.97
 20
100.021
 30
0.0
 11
233.97
 21
103.123
 31
0.0
  0
LINE
  8
0
 62
     0
 10
233.97
 20
103.123
 30
0.0
 11
233.171
 21
103.123
 31
0.0
  0
LINE
  8
0
 62
     0
 10
233.171
 20
103.123
 30
0.0
 11
233.171
 21
104.122
 31
0.0
  0
LINE
  8
0
 62
     0
 10
233.171
 20
104.122
 30
0.0
 11
219.17
 21
104.122
 31
0.0
  0
LINE
  8
0
 62
     0
 10
154.423
 20
111.598
 30
0.0
 11
154.146
 21
111.456
 31
0.0
  0
LINE
  8
0
 62
     0
 10
154.146
 20
111.456
 30
0.0
 11
153.924
 21
111.234
 31
0.0
  0
LINE
  8
0
 62
     0
 10
153.924
 20
111.234
 30
0.0
 11
153.782
 21
110.956
 31
0.0
  0
LINE
  8
0
 62
     0
 10
153.782
 20
110.956
 30
0.0
 11
153.734
 21
110.647
 31
0.0
  0
LINE
  8
0
 62
     0
 10
153.734
 20
110.647
 30
0.0
 11
153.782
 21
110.337
 31
0.0
  0
LINE
  8
0
 62
     0
 10
153.782
 20
110.337
 30
0.0
 11
153.924
 21
110.06
 31
0.0
  0
LINE
  8
0
 62
     0
 10
153.924
 20
110.06
 30
0.0
 11
154.146
 21
109.837
 31
0.0
  0
LINE
  8
0
 62
     0
 10
154.146
 20
109.837
 30
0.0
 11
154.423
 21
109.694
 31
0.0
  0
LINE
  8
0
 62
     0
 10
154.423
 20
109.694
 30
0.0
 11
154.733
 21
109.647
 31
0.0
  0
LINE
  8
0
 62
     0
 10
154.733
 20
109.647
 30
0.0
 11
155.043
 21
109.694
 31
0.0
  0
LINE
  8
0
 62
     0
 10
155.043
 20
109.694
 30
0.0
 11
155.32
 21
109.837
 31
0.0
  0
LINE
  8
0
 62
     0
 10
155.32
 20
109.837
 30
0.0
 11
155.542
 21
110.06
 31
0.0
  0
LINE
  8
0
 62
     0
 10
155.542
 20
110.06
 30
0.0
 11
155.684
 21
110.337
 31
0.0
  0
LINE
  8
0
 62
     0
 10
155.684
 20
110.337
 30
0.0
 11
155.733
 21
110.647
 31
0.0
  0
LINE
  8
0
 62
     0
 10
155.733
 20
110.647
 30
0.0
 11
155.684
 21
110.956
 31
0.0
  0
LINE
  8
0
 62
     0
 10
155.684
 20
110.956
 30
0.0
 11
155.542
 21
111.234
 31
0.0
  0
LINE
  8
0
 62
     0
 10
155.542
 20
111.234
 30
0.0
 11
155.32
 21
111.456
 31
0.0
  0
LINE
  8
0
 62
     0
 10
155.32
 20
111.456
 30
0.0
 11
155.043
 21
111.598
 31
0.0
  0
LINE
  8
0
 62
     0
 10
155.043
 20
111.598
 30
0.0
 11
154.733
 21
111.646
 31
0.0
  0
LINE
  8
0
 62
     0
 10
154.733
 20
111.646
 30
0.0
 11
154.423
 21
111.598
 31
0.0
  0
LINE
  8
0
 62
     0
 10
306.561
 20
111.598
 30
0.0
 11
306.284
 21
111.456
 31
0.0
  0
LINE
  8
0
 62
     0
 10
306.284
 20
111.456
 30
0.0
 11
306.061
 21
111.234
 31
0.0
  0
LINE
  8
0
 62
     0
 10
306.061
 20
111.234
 30
0.0
 11
305.919
 21
110.956
 31
0.0
  0
LINE
  8
0
 62
     0
 10
305.919
 20
110.956
 30
0.0
 11
305.872
 21
110.647
 31
0.0
  0
LINE
  8
0
 62
     0
 10
305.872
 20
110.647
 30
0.0
 11
305.919
 21
110.337
 31
0.0
  0
LINE
  8
0
 62
     0
 10
305.919
 20
110.337
 30
0.0
 11
306.061
 21
110.06
 31
0.0
  0
LINE
  8
0
 62
     0
 10
306.061
 20
110.06
 30
0.0
 11
306.284
 21
109.837
 31
0.0
  0
LINE
  8
0
 62
     0
 10
306.284
 20
109.837
 30
0.0
 11
306.561
 21
109.694
 31
0.0
  0
LINE
  8
0
 62
     0
 10
306.561
 20
109.694
 30
0.0
 11
306.871
 21
109.647
 31
0.0
  0
LINE
  8
0
 62
     0
 10
306.871
 20
109.647
 30
0.0
 11
307.18
 21
109.694
 31
0.0
  0
LINE
  8
0
 62
     0
 10
307.18
 20
109.694
 30
0.0
 11
307.458
 21
109.837
 31
0.0
  0
LINE
  8
0
 62
     0
 10
307.458
 20
109.837
 30
0.0
 11
307.68
 21
110.06
 31
0.0
  0
LINE
  8
0
 62
     0
 10
307.68
 20
110.06
 30
0.0
 11
307.822
 21
110.337
 31
0.0
  0
LINE
  8
0
 62
     0
 10
307.822
 20
110.337
 30
0.0
 11
307.872
 21
110.647
 31
0.0
  0
LINE
  8
0
 62
     0
 10
307.872
 20
110.647
 30
0.0
 11
307.822
 21
110.956
 31
0.0
  0
LINE
  8
0
 62
     0
 10
307.822
 20
110.956
 30
0.0
 11
307.68
 21
111.234
 31
0.0
  0
LINE
  8
0
 62
     0
 10
307.68
 20
111.234
 30
0.0
 11
307.458
 21
111.456
 31
0.0
  0
LINE
  8
0
 62
     0
 10
307.458
 20
111.456
 30
0.0
 11
307.18
 21
111.598
 31
0.0
  0
LINE
  8
0
 62
     0
 10
307.18
 20
111.598
 30
0.0
 11
306.871
 21
111.646
 31
0.0
  0
LINE
  8
0
 62
     0
 10
306.871
 20
111.646
 30
0.0
 11
306.561
 21
111.598
 31
0.0
  0
LINE
  8
0
 62
     0
 10
2.28617
 20
111.598
 30
0.0
 11
2.0078
 21
111.456
 31
0.0
  0
LINE
  8
0
 62
     0
 10
2.0078
 20
111.456
 30
0.0
 11
1.78594
 21
111.234
 31
0.0
  0
LINE
  8
0
 62
     0
 10
1.78594
 20
111.234
 30
0.0
 11
1.644
 21
110.956
 31
0.0
  0
LINE
  8
0
 62
     0
 10
1.644
 20
110.956
 30
0.0
 11
1.59439
 21
110.647
 31
0.0
  0
LINE
  8
0
 62
     0
 10
1.59439
 20
110.647
 30
0.0
 11
1.644
 21
110.337
 31
0.0
  0
LINE
  8
0
 62
     0
 10
1.644
 20
110.337
 30
0.0
 11
1.78594
 21
110.06
 31
0.0
  0
LINE
  8
0
 62
     0
 10
1.78594
 20
110.06
 30
0.0
 11
2.0078
 21
109.837
 31
0.0
  0
LINE
  8
0
 62
     0
 10
2.0078
 20
109.837
 30
0.0
 11
2.28617
 21
109.694
 31
0.0
  0
LINE
  8
0
 62
     0
 10
2.28617
 20
109.694
 30
0.0
 11
2.59485
 21
109.647
 31
0.0
  0
LINE
  8
0
 62
     0
 10
2.59485
 20
109.647
 30
0.0
 11
2.90491
 21
109.694
 31
0.0
  0
LINE
  8
0
 62
     0
 10
2.90491
 20
109.694
 30
0.0
 11
3.18189
 21
109.837
 31
0.0
  0
LINE
  8
0
 62
     0
 10
3.18189
 20
109.837
 30
0.0
 11
3.40513
 21
110.06
 31
0.0
  0
LINE
  8
0
 62
     0
 10
3.40513
 20
110.06
 30
0.0
 11
3.54707
 21
110.337
 31
0.0
  0
LINE
  8
0
 62
     0
 10
3.54707
 20
110.337
 30
0.0
 11
3.5953
 21
110.647
 31
0.0
  0
LINE
  8
0
 62
     0
 10
3.5953
 20
110.647
 30
0.0
 11
3.54707
 21
110.956
 31
0.0
  0
LINE
  8
0
 62
     0
 10
3.54707
 20
110.956
 30
0.0
 11
3.40513
 21
111.234
 31
0.0
  0
LINE
  8
0
 62
     0
 10
3.40513
 20
111.234
 30
0.0
 11
3.18189
 21
111.456
 31
0.0
  0
LINE
  8
0
 62
     0
 10
3.18189
 20
111.456
 30
0.0
 11
2.90491
 21
111.598
 31
0.0
  0
LINE
  8
0
 62
     0
 10
2.90491
 20
111.598
 30
0.0
 11
2.59485
 21
111.646
 31
0.0
  0
LINE
  8
0
 62
     0
 10
2.59485
 20
111.646
 30
0.0
 11
2.28617
 21
111.598
 31
0.0
  0
ENDSEC
  0
EOF
