0
SECTION
2
HEADER
9
$INSUNITS
70
4
9
$ACADVER
1
AC1014
9
$HANDSEED
5
FFFF
0
ENDSEC
0
SECTION
2
TABLES
0
TABLE
2
VPORT
5
8
100
AcDbSymbolTable
0
ENDTAB
0
TABLE
2
LTYPE
5
5
100
AcDbSymbolTable
0
LTYPE
5
14
100
AcDbSymbolTableRecord
100
AcDbLinetypeTableRecord
2
BYBLOCK
70
0
0
LTYPE
5
15
100
AcDbSymbolTableRecord
100
AcDbLinetypeTableRecord
2
BYLAYER
70
0
0
ENDTAB
0
TABLE
2
LAYER
5
2
100
AcDbSymbolTable
70
2
0
LAYER
5
50
100
AcDbSymbolTableRecord
100
AcDbLayerTableRecord
2
0
70
0
6
CONTINUOUS
0
ENDTAB
0
TABLE
2
STYLE
5
3
100
AcDbSymbolTable
70
1
0
STYLE
5
11
100
AcDbSymbolTableRecord
100
AcDbTextStyleTableRecord
2
STANDARD
70
0
0
ENDTAB
0
TABLE
2
VIEW
5
6
100
AcDbSymbolTable
70
0
0
ENDTAB
0
TABLE
2
UCS
5
7
100
AcDbSymbolTable
70
0
0
ENDTAB
0
TABLE
2
APPID
5
9
100
AcDbSymbolTable
70
2
0
APPID
5
12
100
AcDbSymbolTableRecord
100
AcDbRegAppTableRecord
2
ACAD
70
0
0
ENDTAB
0
TABLE
2
DIMSTYLE
5
A
100
AcDbSymbolTable
70
1
0
ENDTAB
0
TABLE
2
BLOCK_RECORD
5
1
100
AcDbSymbolTable
70
1
0
BLOCK_RECORD
5
1F
100
AcDbSymbolTableRecord
100
AcDbBlockTableRecord
2
*MODEL_SPACE
0
BLOCK_RECORD
5
1B
100
AcDbSymbolTableRecord
100
AcDbBlockTableRecord
2
*PAPER_SPACE
0
ENDTAB
0
ENDSEC
0
SECTION
2
BLOCKS
0
BLOCK
5
20
100
AcDbEntity
100
AcDbBlockBegin
2
*MODEL_SPACE
0
ENDBLK
5
21
100
AcDbEntity
100
AcDbBlockEnd
0
BLOCK
5
1C
100
AcDbEntity
100
AcDbBlockBegin
2
*PAPER_SPACE
0
ENDBLK
5
1D
100
AcDbEntity
100
AcDbBlockEnd
0
ENDSEC
0
SECTION
2
ENTITIES
0
LWPOLYLINE
5
100
100
AcDbEntity
8
0
100
AcDbPolyline
90
84
70
1
43
0.0
10
309.36700000000002
20
112.22499999999999
10
309.37099999999998
20
112.14600000000002
10
309.37099999999998
20
1.1327499999999979
10
309.36700000000002
20
1.05558
10
309.35900000000004
20
0.97702900000000015
10
309.34300000000002
20
0.89985900000000008
10
309.32299999999998
20
0.82406800000000002
10
309.29500000000007
20
0.74965300000000001
10
309.262
20
0.67937200000000009
10
309.22300000000001
20
0.61185100000000003
10
309.18099999999998
20
0.545705
10
309.13099999999997
20
0.48368999999999995
10
309.07900000000001
20
0.425813
10
309.02099999999996
20
0.37344700000000003
10
308.959
20
0.32383899999999999
10
308.89400000000001
20
0.27974199999999999
10
308.82400000000007
20
0.242535
10
308.75400000000002
20
0.20946199999999998
10
308.68099999999998
20
0.18190100000000001
10
308.60500000000002
20
0.16122999999999998
10
308.52699999999999
20
0.14469400000000002
10
308.44900000000001
20
0.13642599999999999
10
308.37200000000001
20
0.13367000000000001
10
1.09554
20
0.13367000000000001
10
1.0169900000000001
20
0.13642599999999999
10
0.93844500000000008
20
0.14469400000000002
10
0.86127500000000012
20
0.16122999999999998
10
0.7854810000000001
20
0.18190100000000001
10
0.71244499999999999
20
0.20946199999999998
10
0.64216499999999999
20
0.242535
10
0.57188500000000009
20
0.27974199999999999
10
0.50711800000000007
20
0.32383899999999999
10
0.44510700000000003
20
0.37344700000000003
10
0.38723000000000007
20
0.425813
10
0.33486300000000002
20
0.48368999999999995
10
0.28525400000000001
20
0.545705
10
0.242535
20
0.61185100000000003
10
0.20394999999999999
20
0.67937200000000009
10
0.170877
20
0.74965300000000001
10
0.143316
20
0.82406800000000002
10
0.122645
20
0.89985900000000008
10
0.107487
20
0.97702900000000015
10
0.097840800000000006
20
1.05558
10
0.095084600000000019
20
1.1327499999999999
10
0.095084600000000019
20
112.14600000000002
10
0.097840800000000006
20
112.22499999999999
10
0.107487
20
112.303
10
0.122645
20
112.38100000000001
10
0.143316
20
112.45600000000002
10
0.170877
20
112.529
10
0.20394999999999999
20
112.59999999999999
10
0.242535
20
112.67000000000002
10
0.28525400000000001
20
112.735
10
0.33486300000000002
20
112.79600000000002
10
0.38723000000000007
20
112.85400000000001
10
0.44510700000000003
20
112.90700000000001
10
0.50711800000000007
20
112.956
10
0.57188500000000009
20
112.99900000000001
10
0.64216499999999999
20
113.03800000000001
10
0.71244499999999999
20
113.071
10
0.7854810000000001
20
113.09800000000001
10
0.86127500000000012
20
113.11900000000001
10
0.93844500000000008
20
113.13400000000001
10
1.0169900000000001
20
113.14399999999999
10
1.09554
20
113.146
10
308.37200000000001
20
113.146
10
308.44900000000001
20
113.14399999999999
10
308.52699999999999
20
113.13400000000001
10
308.60500000000002
20
113.11900000000001
10
308.68099999999998
20
113.09800000000001
10
308.75400000000002
20
113.071
10
308.82400000000007
20
113.03800000000001
10
308.89400000000001
20
112.99900000000001
10
308.959
20
112.956
10
309.02099999999996
20
112.90700000000001
10
309.07900000000001
20
112.85400000000001
10
309.13099999999997
20
112.79600000000002
10
309.18099999999998
20
112.735
10
309.22300000000001
20
112.67000000000002
10
309.262
20
112.59999999999999
10
309.29500000000007
20
112.529
10
309.32299999999998
20
112.45600000000002
10
309.34300000000002
20
112.38100000000001
10
309.35900000000004
20
112.303
0
LWPOLYLINE
5
101
100
AcDbEntity
8
0
100
AcDbPolyline
90
20
70
1
43
0.0
10
153.92400000000004
20
110.06
10
154.14600000000002
20
109.837
10
154.423
20
109.694
10
154.733
20
109.64700000000001
10
155.04300000000001
20
109.694
10
155.31999999999999
20
109.837
10
155.54200000000003
20
110.06
10
155.684
20
110.33700000000002
10
155.733
20
110.64700000000002
10
155.684
20
110.95600000000002
10
155.54200000000003
20
111.23400000000001
10
155.31999999999999
20
111.45600000000002
10
155.04300000000001
20
111.59800000000001
10
154.733
20
111.646
10
154.423
20
111.59800000000001
10
154.14600000000002
20
111.45600000000002
10
153.92400000000004
20
111.23400000000001
10
153.78200000000001
20
110.95600000000002
10
153.73400000000001
20
110.64700000000002
10
153.78200000000001
20
110.33700000000002
0
LWPOLYLINE
5
102
100
AcDbEntity
8
0
100
AcDbPolyline
90
20
70
1
43
0.0
10
307.18000000000006
20
3.5842900000000006
10
306.87099999999998
20
3.6325199999999995
10
306.56099999999998
20
3.5842900000000006
10
306.28399999999999
20
3.4423400000000006
10
306.06099999999998
20
3.2218499999999999
10
305.91900000000004
20
2.94211
10
305.87200000000001
20
2.6334299999999997
10
305.91900000000004
20
2.3247499999999999
10
306.06099999999998
20
2.04501
10
306.28399999999999
20
1.8245200000000004
10
306.56099999999998
20
1.6825800000000002
10
306.87099999999998
20
1.6329799999999999
10
307.18000000000006
20
1.6825800000000002
10
307.45799999999997
20
1.8245200000000004
10
307.68000000000001
20
2.04501
10
307.822
20
2.3247499999999999
10
307.87200000000001
20
2.6334299999999997
10
307.822
20
2.94211
10
307.68000000000001
20
3.2218499999999999
10
307.45799999999997
20
3.4423400000000006
0
LWPOLYLINE
5
103
100
AcDbEntity
8
0
100
AcDbPolyline
90
20
70
1
43
0.0
10
2.9049100000000001
20
1.6825800000000002
10
3.1818900000000006
20
1.8245200000000004
10
3.4051300000000007
20
2.04501
10
3.5470699999999997
20
2.3247499999999999
10
3.5952999999999999
20
2.6334299999999997
10
3.5470699999999997
20
2.94211
10
3.4051300000000007
20
3.2218499999999999
10
3.1818900000000006
20
3.4423400000000006
10
2.9049100000000001
20
3.5842900000000006
10
2.5948500000000001
20
3.6325199999999995
10
2.2861700000000003
20
3.5842900000000006
10
2.0078
20
3.4423400000000006
10
1.7859400000000003
20
3.2218499999999999
10
1.6440000000000001
20
2.94211
10
1.59439
20
2.6334299999999997
10
1.6440000000000001
20
2.3247499999999999
10
1.7859400000000003
20
2.04501
10
2.0078
20
1.8245200000000004
10
2.2861700000000003
20
1.6825800000000002
10
2.5948500000000001
20
1.6329799999999999
0
LWPOLYLINE
5
104
100
AcDbEntity
8
0
100
AcDbPolyline
90
20
70
1
43
0.0
10
154.733
20
1.6329799999999999
10
155.04300000000001
20
1.6825800000000002
10
155.31999999999999
20
1.8245200000000004
10
155.54200000000003
20
2.04501
10
155.684
20
2.3247499999999999
10
155.733
20
2.6334299999999997
10
155.684
20
2.94211
10
155.54200000000003
20
3.2218499999999999
10
155.31999999999999
20
3.4423400000000006
10
155.04300000000001
20
3.5842900000000006
10
154.733
20
3.6325199999999995
10
154.423
20
3.5842900000000006
10
154.14600000000002
20
3.4423400000000006
10
153.92400000000004
20
3.2218499999999999
10
153.78200000000001
20
2.94211
10
153.73400000000001
20
2.6334299999999997
10
153.78200000000001
20
2.3247499999999999
10
153.92400000000004
20
2.04501
10
154.14600000000002
20
1.8245200000000004
10
154.423
20
1.6825800000000002
0
LWPOLYLINE
5
105
100
AcDbEntity
8
0
100
AcDbPolyline
90
8
70
1
43
0.0
10
92.321799999999996
20
87.595100000000002
10
36.169000000000011
20
87.595100000000002
42
-0.41421356237307161
10
35.669000000000011
20
88.095100000000016
10
35.669000000000004
20
106.148
42
-0.41421356237308982
10
36.169000000000004
20
106.648
10
92.321799999999996
20
106.648
42
-0.41421356237309503
10
92.821799999999996
20
106.148
10
92.821799999999996
20
88.095100000000016
42
-0.41421356237307422
0
LWPOLYLINE
5
106
100
AcDbEntity
8
0
100
AcDbPolyline
90
14
70
1
43
0.0
10
301.87200000000001
20
25.685300000000005
10
283.322
20
25.685300000000005
10
283.322
20
44.235399999999998
42
0.41421356237313145
10
282.822
20
44.735399999999998
10
264.76900000000006
20
44.735399999999998
42
0.41421356237313145
10
264.26900000000001
20
44.235399999999998
10
264.26900000000001
20
25.685300000000005
10
245.71900000000002
20
25.685300000000005
42
0.41421356237312362
10
245.21900000000002
20
25.185300000000005
10
245.21900000000002
20
7.1325000000000021
42
0.41421356237312817
10
245.71900000000002
20
6.6325000000000012
10
301.87200000000001
20
6.6325000000000012
42
0.41421356237312817
10
302.37200000000001
20
7.1325000000000021
10
302.37200000000001
20
25.185300000000005
42
0.41421356237312362
0
LWPOLYLINE
5
107
100
AcDbEntity
8
0
100
AcDbPolyline
90
8
70
1
43
0.0
10
26.146899999999999
20
106.148
10
26.146899999999995
20
88.095100000000016
42
-0.41421356237306639
10
25.646900000000002
20
87.595100000000002
10
7.5941500000000079
20
87.595100000000031
42
-0.41421356237310542
10
7.0941500000000097
20
88.095100000000031
10
7.0941500000000035
20
106.148
42
-0.41421356237309437
10
7.5941500000000097
20
106.648
10
25.646900000000006
20
106.648
42
-0.41421356237309243
0
LWPOLYLINE
5
108
100
AcDbEntity
8
0
100
AcDbPolyline
90
8
70
1
43
0.0
10
245.21900000000002
20
64.282600000000002
10
245.21900000000002
20
101.38500000000001
42
-0.41421356237313667
10
245.71900000000002
20
101.88500000000002
10
301.87200000000001
20
101.88500000000002
42
-0.41421356237313667
10
302.37200000000001
20
101.38500000000001
10
302.37200000000001
20
64.282600000000016
42
-0.41421356237313667
10
301.87200000000001
20
63.782600000000009
10
245.71900000000002
20
63.782600000000009
42
-0.41421356237313145
0
LWPOLYLINE
5
109
100
AcDbEntity
8
0
100
AcDbPolyline
90
13
70
1
43
0.0
10
211.88299999999998
20
7.1325000000000003
10
211.88299999999998
20
25.682500000000005
10
235.197
20
25.682500000000005
42
0.41421356237309243
10
235.697
20
26.182500000000001
10
235.69700000000006
20
82.335399999999993
42
0.4142135623730846
10
235.197
20
82.835400000000007
10
7.0941499999999991
20
82.835400000000007
10
7.0941500000000035
20
26.182500000000005
42
0.41421356237309115
10
7.5941499999999991
20
25.682500000000005
10
30.906600000000001
20
25.682500000000005
10
30.906600000000001
20
7.1325000000000021
42
0.4142135623730957
10
31.406600000000001
20
6.6325000000000021
10
211.38299999999998
20
6.6325000000000074
42
0.41421356237312817
0
LWPOLYLINE
5
110
100
AcDbEntity
8
0
100
AcDbPolyline
90
8
70
1
43
0.0
10
107.10700000000003
20
88.095100000000016
10
107.10700000000003
20
106.148
42
-0.41421356237309503
10
107.60700000000003
20
106.648
10
163.75799999999998
20
106.64799999999998
42
-0.41421356237310542
10
164.25799999999995
20
106.148
10
164.25800000000004
20
88.095100000000016
42
-0.4142135623730846
10
163.75799999999998
20
87.595100000000002
10
107.60700000000003
20
87.595100000000002
42
-0.41421356237307422
0
LWPOLYLINE
5
111
100
AcDbEntity
8
0
100
AcDbPolyline
90
20
70
1
43
0.0
10
2.0078
20
111.45600000000002
10
1.7859400000000003
20
111.23400000000001
10
1.6440000000000001
20
110.95600000000002
10
1.59439
20
110.64700000000002
10
1.6440000000000001
20
110.33700000000002
10
1.7859400000000003
20
110.06
10
2.0078
20
109.837
10
2.2861700000000003
20
109.694
10
2.5948500000000001
20
109.64700000000001
10
2.9049100000000001
20
109.694
10
3.1818900000000006
20
109.837
10
3.4051300000000007
20
110.06
10
3.5470699999999997
20
110.33700000000002
10
3.5952999999999999
20
110.64700000000002
10
3.5470699999999997
20
110.95600000000002
10
3.4051300000000007
20
111.23400000000001
10
3.1818900000000006
20
111.45600000000002
10
2.9049100000000001
20
111.59800000000001
10
2.5948500000000001
20
111.646
10
2.2861700000000003
20
111.59800000000001
0
LWPOLYLINE
5
112
100
AcDbEntity
8
0
100
AcDbPolyline
90
8
70
1
43
0.0
10
235.197
20
87.595100000000002
10
179.04400000000004
20
87.595099999999988
42
-0.4142135623730846
10
178.54399999999998
20
88.095100000000016
10
178.54400000000001
20
106.148
42
-0.41421356237310542
10
179.04400000000004
20
106.64800000000001
10
235.197
20
106.64799999999998
42
-0.41421356237310542
10
235.69699999999997
20
106.148
10
235.69700000000006
20
88.095100000000016
42
-0.4142135623730846
0
LWPOLYLINE
5
113
100
AcDbEntity
8
0
100
AcDbPolyline
90
20
70
1
43
0.0
10
306.56099999999998
20
111.59800000000001
10
306.28399999999999
20
111.45600000000002
10
306.06099999999998
20
111.23400000000001
10
305.91900000000004
20
110.95600000000002
10
305.87200000000001
20
110.64700000000002
10
305.91900000000004
20
110.33700000000002
10
306.06099999999998
20
110.06
10
306.28399999999999
20
109.837
10
306.56099999999998
20
109.694
10
306.87099999999998
20
109.64700000000001
10
307.18000000000006
20
109.694
10
307.45799999999997
20
109.837
10
307.68000000000001
20
110.06
10
307.822
20
110.33700000000002
10
307.87200000000001
20
110.64700000000002
10
307.822
20
110.95600000000002
10
307.68000000000001
20
111.23400000000001
10
307.45799999999997
20
111.45600000000002
10
307.18000000000006
20
111.59800000000001
10
306.87099999999998
20
111.646
0
ENDSEC
0
SECTION
2
OBJECTS
0
DICTIONARY
5
C
100
AcDbDictionary
3
ACAD_GROUP
350
D
3
ACAD_MLINESTYLE
350
17
0
DICTIONARY
5
D
100
AcDbDictionary
0
DICTIONARY
5
1A
330
C
100
AcDbDictionary
0
DICTIONARY
5
17
100
AcDbDictionary
0
ENDSEC
0
EOF
